<?xml version="1.0" encoding="UTF-8" standalone="no"?>
<!DOCTYPE svg PUBLIC "-//W3C//DTD SVG 1.1//EN"
 "http://www.w3.org/Graphics/SVG/1.1/DTD/svg11.dtd">
<!-- Generated by graphviz version 9.0.0 (0)
 -->
<!-- Pages: 1 -->
<svg width="478pt" height="309pt"
 viewBox="0.00 0.00 478.00 309.00" xmlns="http://www.w3.org/2000/svg" xmlns:xlink="http://www.w3.org/1999/xlink">
<g id="graph0" class="graph" transform="scale(1 1) rotate(0) translate(4 305)">
<polygon fill="white" stroke="none" points="-4,4 -4,-305 474,-305 474,4 -4,4"/>
<g id="clust1" class="cluster">
<title>outer_cluster_5</title>
</g>
<g id="clust2" class="cluster">
<title>cluster_5</title>
<path fill="#ffffb3" stroke="black" stroke-dasharray="5,2" d="M135,-169C135,-169 329,-169 329,-169 335,-169 341,-175 341,-181 341,-181 341,-199 341,-199 341,-205 335,-211 329,-211 329,-211 135,-211 135,-211 129,-211 123,-205 123,-199 123,-199 123,-181 123,-181 123,-175 129,-169 135,-169"/>
</g>
<g id="clust4" class="cluster">
<title>outer_cluster_4</title>
</g>
<g id="clust5" class="cluster">
<title>cluster_4</title>
<path fill="#ffffb3" stroke="black" stroke-dasharray="5,2" d="M23,-90C23,-90 111,-90 111,-90 117,-90 123,-96 123,-102 123,-102 123,-120 123,-120 123,-126 117,-132 111,-132 111,-132 23,-132 23,-132 17,-132 11,-126 11,-120 11,-120 11,-102 11,-102 11,-96 17,-90 23,-90"/>
</g>
<g id="clust7" class="cluster">
<title>outer_cluster_0</title>
</g>
<g id="clust8" class="cluster">
<title>cluster_0</title>
<path fill="#ffffb3" stroke="black" stroke-dasharray="5,2" d="M169,-11C169,-11 263,-11 263,-11 269,-11 275,-17 275,-23 275,-23 275,-41 275,-41 275,-47 269,-53 263,-53 263,-53 169,-53 169,-53 163,-53 157,-47 157,-41 157,-41 157,-23 157,-23 157,-17 163,-11 169,-11"/>
</g>
<g id="clust10" class="cluster">
<title>outer_cluster_3</title>
</g>
<g id="clust11" class="cluster">
<title>cluster_3</title>
<path fill="#ffffb3" stroke="black" stroke-dasharray="5,2" d="M141,-90C141,-90 223,-90 223,-90 229,-90 235,-96 235,-102 235,-102 235,-120 235,-120 235,-126 229,-132 223,-132 223,-132 141,-132 141,-132 135,-132 129,-126 129,-120 129,-120 129,-102 129,-102 129,-96 135,-90 141,-90"/>
</g>
<g id="clust13" class="cluster">
<title>outer_cluster_6</title>
</g>
<g id="clust14" class="cluster">
<title>cluster_6</title>
<path fill="#ffffb3" stroke="black" stroke-dasharray="5,2" d="M23,-169C23,-169 105,-169 105,-169 111,-169 117,-175 117,-181 117,-181 117,-199 117,-199 117,-205 111,-211 105,-211 105,-211 23,-211 23,-211 17,-211 11,-205 11,-199 11,-199 11,-181 11,-181 11,-175 17,-169 23,-169"/>
</g>
<g id="clust16" class="cluster">
<title>outer_cluster_2</title>
</g>
<g id="clust17" class="cluster">
<title>cluster_2</title>
<path fill="#ffffb3" stroke="black" stroke-dasharray="5,2" d="M253,-90C253,-90 447,-90 447,-90 453,-90 459,-96 459,-102 459,-102 459,-120 459,-120 459,-126 453,-132 447,-132 447,-132 253,-132 253,-132 247,-132 241,-126 241,-120 241,-120 241,-102 241,-102 241,-96 247,-90 253,-90"/>
</g>
<g id="clust19" class="cluster">
<title>outer_cluster_7</title>
</g>
<g id="clust20" class="cluster">
<title>cluster_7</title>
<path fill="#ffffb3" stroke="black" stroke-dasharray="5,2" d="M216,-248C216,-248 390,-248 390,-248 396,-248 402,-254 402,-260 402,-260 402,-278 402,-278 402,-284 396,-290 390,-290 390,-290 216,-290 216,-290 210,-290 204,-284 204,-278 204,-278 204,-260 204,-260 204,-254 210,-248 216,-248"/>
</g>
<g id="clust22" class="cluster">
<title>outer_cluster_1</title>
</g>
<g id="clust23" class="cluster">
<title>cluster_1</title>
<path fill="#ffffb3" stroke="black" stroke-dasharray="5,2" d="M293,-11C293,-11 387,-11 387,-11 393,-11 399,-17 399,-23 399,-23 399,-41 399,-41 399,-47 393,-53 387,-53 387,-53 293,-53 293,-53 287,-53 281,-47 281,-41 281,-41 281,-23 281,-23 281,-17 287,-11 293,-11"/>
</g>
<!-- Op2&#45;4530183860351580419&#45;&gt;Var&#45;2498675125255728815 -->
<g id="edge1" class="edge">
<title>Op2&#45;4530183860351580419:s&#45;&gt;Var&#45;2498675125255728815</title>
<path fill="none" stroke="black" d="M260,-174C260,-112.83 185.99,-154.47 128,-135 127.11,-134.7 126.21,-134.4 125.31,-134.09"/>
<polygon fill="black" stroke="black" points="126.02,-132.48 120.72,-132.5 124.87,-135.79 126.02,-132.48"/>
</g>
<!-- Op2&#45;4530183860351580419&#45;&gt;Op2&#45;1099404310919387869 -->
<g id="edge2" class="edge">
<title>Op2&#45;4530183860351580419:s&#45;&gt;Op2&#45;1099404310919387869</title>
<path fill="none" stroke="black" d="M312,-174C312,-169.49 270.65,-150.34 234.59,-134.51"/>
<polygon fill="black" stroke="black" points="235.53,-133.01 230.24,-132.61 234.12,-136.21 235.53,-133.01"/>
</g>
<!-- Op2&#45;1099404310919387869&#45;&gt;Var&#45;1747479766223496002 -->
<g id="edge5" class="edge">
<title>Op2&#45;1099404310919387869:s&#45;&gt;Var&#45;1747479766223496002</title>
<path fill="none" stroke="black" d="M157,-95C157,-78.34 168.32,-64.38 181.04,-53.95"/>
<polygon fill="black" stroke="black" points="177.93,-57.27 181.77,-53.62 176.5,-54.08 177.93,-57.27"/>
</g>
<!-- Op2&#45;1099404310919387869&#45;&gt;Var&#45;17720959334994776468 -->
<g id="edge6" class="edge">
<title>Op2&#45;1099404310919387869:s&#45;&gt;Var&#45;17720959334994776468</title>
<path fill="none" stroke="black" d="M207,-95C207,-86.3 244.83,-69.25 280.14,-55.22"/>
<polygon fill="black" stroke="black" points="280.37,-57.02 284.38,-53.55 279.08,-53.76 280.37,-57.02"/>
</g>
<!-- Op2&#45;13456858597877904421&#45;&gt;Var&#45;2498675125255728815 -->
<g id="edge4" class="edge">
<title>Op2&#45;13456858597877904421:s&#45;&gt;Var&#45;2498675125255728815</title>
<path fill="none" stroke="black" d="M204,-174C204,-169.28 160.25,-150.09 122.19,-134.3"/>
<polygon fill="black" stroke="black" points="123.31,-132.87 118.02,-132.57 121.97,-136.1 123.31,-132.87"/>
</g>
<!-- Op2&#45;13456858597877904421&#45;&gt;Op2&#45;1099404310919387869 -->
<g id="edge3" class="edge">
<title>Op2&#45;13456858597877904421:s&#45;&gt;Op2&#45;1099404310919387869</title>
<path fill="none" stroke="black" d="M152,-174C152,-159.82 158.44,-145.47 165.35,-134.15"/>
<polygon fill="black" stroke="black" points="164.66,-138.41 165.93,-133.27 161.73,-136.5 164.66,-138.41"/>
</g>
<!-- Op2&#45;12447369924942790367&#45;&gt;Var&#45;2498675125255728815 -->
<g id="edge7" class="edge">
<title>Op2&#45;12447369924942790367:s&#45;&gt;Var&#45;2498675125255728815</title>
<path fill="none" stroke="black" d="M39,-174C39,-159.99 45.01,-145.66 51.46,-134.31"/>
<polygon fill="black" stroke="black" points="50.44,-137.94 52.6,-133.1 47.89,-135.53 50.44,-137.94"/>
</g>
<!-- Op2&#45;12447369924942790367&#45;&gt;Op2&#45;1099404310919387869 -->
<g id="edge8" class="edge">
<title>Op2&#45;12447369924942790367:s&#45;&gt;Op2&#45;1099404310919387869</title>
<path fill="none" stroke="black" d="M89,-174C89,-162.02 110.62,-147.19 133.01,-135.03"/>
<polygon fill="black" stroke="black" points="133.77,-136.6 137.37,-132.71 132.13,-133.51 133.77,-136.6"/>
</g>
<!-- Op2&#45;11669170575846068978&#45;&gt;Var&#45;1747479766223496002 -->
<g id="edge9" class="edge">
<title>Op2&#45;11669170575846068978:s&#45;&gt;Var&#45;1747479766223496002</title>
<path fill="none" stroke="black" d="M378,-95C378,-93.58 321.99,-72.4 275.84,-55.18"/>
<polygon fill="black" stroke="black" points="276.69,-53.63 271.4,-53.52 275.47,-56.91 276.69,-53.63"/>
</g>
<!-- Op2&#45;11669170575846068978&#45;&gt;Var&#45;17720959334994776468 -->
<g id="edge10" class="edge">
<title>Op2&#45;11669170575846068978:s&#45;&gt;Var&#45;17720959334994776468</title>
<path fill="none" stroke="black" d="M430,-95C430,-76.16 416.46,-62.61 399.89,-53.08"/>
<polygon fill="black" stroke="black" points="404.5,-55.91 399.96,-53.17 401.8,-58.14 404.5,-55.91"/>
</g>
<!-- Op2&#45;16584664614395780245&#45;&gt;Var&#45;1747479766223496002 -->
<g id="edge12" class="edge">
<title>Op2&#45;16584664614395780245:s&#45;&gt;Var&#45;1747479766223496002</title>
<path fill="none" stroke="black" d="M322,-95C322,-82.04 298.11,-67.42 273.01,-55.62"/>
<polygon fill="black" stroke="black" points="273.96,-54.13 268.68,-53.63 272.49,-57.31 273.96,-54.13"/>
</g>
<!-- Op2&#45;16584664614395780245&#45;&gt;Var&#45;17720959334994776468 -->
<g id="edge11" class="edge">
<title>Op2&#45;16584664614395780245:s&#45;&gt;Var&#45;17720959334994776468</title>
<path fill="none" stroke="black" d="M270,-95C270,-77.36 282.61,-63.53 297.13,-53.44"/>
<polygon fill="black" stroke="black" points="292.85,-56.62 297.1,-53.45 291.8,-53.28 292.85,-56.62"/>
</g>
<!-- Op2&#45;16463693734372638882&#45;&gt;Op2&#45;4530183860351580419 -->
<g id="edge14" class="edge">
<title>Op2&#45;16463693734372638882:s&#45;&gt;Op2&#45;4530183860351580419</title>
<path fill="none" stroke="black" d="M375,-253C375,-233.55 360.51,-219.7 343.21,-210.1"/>
<polygon fill="black" stroke="black" points="347.12,-211.07 342.16,-209.22 344.88,-213.76 347.12,-211.07"/>
</g>
<!-- Op2&#45;16463693734372638882&#45;&gt;Op2&#45;11669170575846068978 -->
<g id="edge13" class="edge">
<title>Op2&#45;16463693734372638882:s&#45;&gt;Op2&#45;11669170575846068978</title>
<path fill="none" stroke="black" d="M329,-253C329,-251.34 370.79,-173.59 391.98,-134.27"/>
<polygon fill="black" stroke="black" points="391.01,-138.07 392.96,-133.14 388.36,-135.77 391.01,-138.07"/>
</g>
<!-- Op2&#45;1269641591177710019&#45;&gt;Op2&#45;13456858597877904421 -->
<g id="edge15" class="edge">
<title>Op2&#45;1269641591177710019:s&#45;&gt;Op2&#45;13456858597877904421</title>
<path fill="none" stroke="black" d="M231,-253C231,-236.75 220.35,-222.61 208.6,-211.95"/>
<polygon fill="black" stroke="black" points="213.42,-212.63 208.2,-211.73 211.73,-215.69 213.42,-212.63"/>
</g>
<!-- Op2&#45;1269641591177710019&#45;&gt;Op2&#45;16584664614395780245 -->
<g id="edge16" class="edge">
<title>Op2&#45;1269641591177710019:s&#45;&gt;Op2&#45;16584664614395780245</title>
<path fill="none" stroke="black" d="M277,-253C277,-219.31 325.4,-243.32 342,-214 352.51,-195.44 349.37,-186.02 342,-166 337.51,-153.8 328.89,-142.47 320.32,-133.38"/>
<polygon fill="black" stroke="black" points="324.8,-135.21 319.97,-133.04 322.39,-137.75 324.8,-135.21"/>
</g>
<!-- Op2&#45;4530183860351580419 -->
<g id="node1" class="node">
<title>Op2&#45;4530183860351580419</title>
<g id="a_node1"><a xlink:title="5: Op2&#45;4530183860351580419">
<path fill="white" stroke="none" d="M244.67,-174C244.67,-174 327.33,-174 327.33,-174 332.67,-174 338,-179.33 338,-184.67 338,-184.67 338,-195.33 338,-195.33 338,-200.67 332.67,-206 327.33,-206 327.33,-206 244.67,-206 244.67,-206 239.33,-206 234,-200.67 234,-195.33 234,-195.33 234,-184.67 234,-184.67 234,-179.33 239.33,-174 244.67,-174"/>
<text text-anchor="start" x="238.75" y="-185.32" font-family="Helvetica,sans-Serif" font-size="14.00">Op2(And, ·, ·)</text>
<path fill="none" stroke="black" d="M244.67,-174C244.67,-174 327.33,-174 327.33,-174 332.67,-174 338,-179.33 338,-184.67 338,-184.67 338,-195.33 338,-195.33 338,-200.67 332.67,-206 327.33,-206 327.33,-206 244.67,-206 244.67,-206 239.33,-206 234,-200.67 234,-195.33 234,-195.33 234,-184.67 234,-184.67 234,-179.33 239.33,-174 244.67,-174"/>
</a>
</g>
</g>
<!-- Var&#45;2498675125255728815 -->
<g id="node2" class="node">
<title>Var&#45;2498675125255728815</title>
<g id="a_node2"><a xlink:title="4: Var&#45;2498675125255728815">
<path fill="white" stroke="none" d="M25.04,-95C25.04,-95 108.96,-95 108.96,-95 114.29,-95 119.62,-100.33 119.62,-105.67 119.62,-105.67 119.62,-116.33 119.62,-116.33 119.62,-121.67 114.29,-127 108.96,-127 108.96,-127 25.04,-127 25.04,-127 19.71,-127 14.38,-121.67 14.38,-116.33 14.38,-116.33 14.38,-105.67 14.38,-105.67 14.38,-100.33 19.71,-95 25.04,-95"/>
<text text-anchor="start" x="19.38" y="-106.33" font-family="Helvetica,sans-Serif" font-size="14.00">Var(&quot;i_cin&quot;, 1)</text>
<path fill="none" stroke="black" d="M25.04,-95C25.04,-95 108.96,-95 108.96,-95 114.29,-95 119.62,-100.33 119.62,-105.67 119.62,-105.67 119.62,-116.33 119.62,-116.33 119.62,-121.67 114.29,-127 108.96,-127 108.96,-127 25.04,-127 25.04,-127 19.71,-127 14.38,-121.67 14.38,-116.33 14.38,-116.33 14.38,-105.67 14.38,-105.67 14.38,-100.33 19.71,-95 25.04,-95"/>
</a>
</g>
</g>
<!-- Op2&#45;1099404310919387869 -->
<g id="node3" class="node">
<title>Op2&#45;1099404310919387869</title>
<g id="a_node3"><a xlink:title="3: Op2&#45;1099404310919387869">
<path fill="white" stroke="none" d="M142.67,-95C142.67,-95 221.33,-95 221.33,-95 226.67,-95 232,-100.33 232,-105.67 232,-105.67 232,-116.33 232,-116.33 232,-121.67 226.67,-127 221.33,-127 221.33,-127 142.67,-127 142.67,-127 137.33,-127 132,-121.67 132,-116.33 132,-116.33 132,-105.67 132,-105.67 132,-100.33 137.33,-95 142.67,-95"/>
<text text-anchor="start" x="136.62" y="-106.33" font-family="Helvetica,sans-Serif" font-size="14.00">Op2(Xor, ·, ·)</text>
<path fill="none" stroke="black" d="M142.67,-95C142.67,-95 221.33,-95 221.33,-95 226.67,-95 232,-100.33 232,-105.67 232,-105.67 232,-116.33 232,-116.33 232,-121.67 226.67,-127 221.33,-127 221.33,-127 142.67,-127 142.67,-127 137.33,-127 132,-121.67 132,-116.33 132,-116.33 132,-105.67 132,-105.67 132,-100.33 137.33,-95 142.67,-95"/>
</a>
</g>
</g>
<!-- Op2&#45;13456858597877904421 -->
<g id="node4" class="node">
<title>Op2&#45;13456858597877904421</title>
<g id="a_node4"><a xlink:title="5: Op2&#45;13456858597877904421">
<path fill="white" stroke="none" d="M136.67,-174C136.67,-174 219.33,-174 219.33,-174 224.67,-174 230,-179.33 230,-184.67 230,-184.67 230,-195.33 230,-195.33 230,-200.67 224.67,-206 219.33,-206 219.33,-206 136.67,-206 136.67,-206 131.33,-206 126,-200.67 126,-195.33 126,-195.33 126,-184.67 126,-184.67 126,-179.33 131.33,-174 136.67,-174"/>
<text text-anchor="start" x="130.75" y="-185.32" font-family="Helvetica,sans-Serif" font-size="14.00">Op2(And, ·, ·)</text>
<path fill="none" stroke="black" d="M136.67,-174C136.67,-174 219.33,-174 219.33,-174 224.67,-174 230,-179.33 230,-184.67 230,-184.67 230,-195.33 230,-195.33 230,-200.67 224.67,-206 219.33,-206 219.33,-206 136.67,-206 136.67,-206 131.33,-206 126,-200.67 126,-195.33 126,-195.33 126,-184.67 126,-184.67 126,-179.33 131.33,-174 136.67,-174"/>
</a>
</g>
</g>
<!-- Var&#45;1747479766223496002 -->
<g id="node5" class="node">
<title>Var&#45;1747479766223496002</title>
<g id="a_node5"><a xlink:title="0: Var&#45;1747479766223496002">
<path fill="white" stroke="none" d="M170.67,-16C170.67,-16 261.33,-16 261.33,-16 266.67,-16 272,-21.33 272,-26.67 272,-26.67 272,-37.33 272,-37.33 272,-42.67 266.67,-48 261.33,-48 261.33,-48 170.67,-48 170.67,-48 165.33,-48 160,-42.67 160,-37.33 160,-37.33 160,-26.67 160,-26.67 160,-21.33 165.33,-16 170.67,-16"/>
<text text-anchor="start" x="165" y="-27.32" font-family="Helvetica,sans-Serif" font-size="14.00">Var(&quot;i_bit1&quot;, 1)</text>
<path fill="none" stroke="black" d="M170.67,-16C170.67,-16 261.33,-16 261.33,-16 266.67,-16 272,-21.33 272,-26.67 272,-26.67 272,-37.33 272,-37.33 272,-42.67 266.67,-48 261.33,-48 261.33,-48 170.67,-48 170.67,-48 165.33,-48 160,-42.67 160,-37.33 160,-37.33 160,-26.67 160,-26.67 160,-21.33 165.33,-16 170.67,-16"/>
</a>
</g>
</g>
<!-- Var&#45;17720959334994776468 -->
<g id="node6" class="node">
<title>Var&#45;17720959334994776468</title>
<g id="a_node6"><a xlink:title="1: Var&#45;17720959334994776468">
<path fill="white" stroke="none" d="M294.67,-16C294.67,-16 385.33,-16 385.33,-16 390.67,-16 396,-21.33 396,-26.67 396,-26.67 396,-37.33 396,-37.33 396,-42.67 390.67,-48 385.33,-48 385.33,-48 294.67,-48 294.67,-48 289.33,-48 284,-42.67 284,-37.33 284,-37.33 284,-26.67 284,-26.67 284,-21.33 289.33,-16 294.67,-16"/>
<text text-anchor="start" x="289" y="-27.32" font-family="Helvetica,sans-Serif" font-size="14.00">Var(&quot;i_bit2&quot;, 1)</text>
<path fill="none" stroke="black" d="M294.67,-16C294.67,-16 385.33,-16 385.33,-16 390.67,-16 396,-21.33 396,-26.67 396,-26.67 396,-37.33 396,-37.33 396,-42.67 390.67,-48 385.33,-48 385.33,-48 294.67,-48 294.67,-48 289.33,-48 284,-42.67 284,-37.33 284,-37.33 284,-26.67 284,-26.67 284,-21.33 289.33,-16 294.67,-16"/>
</a>
</g>
</g>
<!-- Op2&#45;12447369924942790367 -->
<g id="node7" class="node">
<title>Op2&#45;12447369924942790367</title>
<g id="a_node7"><a xlink:title="6: Op2&#45;12447369924942790367">
<path fill="white" stroke="none" d="M24.67,-174C24.67,-174 103.33,-174 103.33,-174 108.67,-174 114,-179.33 114,-184.67 114,-184.67 114,-195.33 114,-195.33 114,-200.67 108.67,-206 103.33,-206 103.33,-206 24.67,-206 24.67,-206 19.33,-206 14,-200.67 14,-195.33 14,-195.33 14,-184.67 14,-184.67 14,-179.33 19.33,-174 24.67,-174"/>
<text text-anchor="start" x="18.62" y="-185.32" font-family="Helvetica,sans-Serif" font-size="14.00">Op2(Xor, ·, ·)</text>
<path fill="none" stroke="black" d="M24.67,-174C24.67,-174 103.33,-174 103.33,-174 108.67,-174 114,-179.33 114,-184.67 114,-184.67 114,-195.33 114,-195.33 114,-200.67 108.67,-206 103.33,-206 103.33,-206 24.67,-206 24.67,-206 19.33,-206 14,-200.67 14,-195.33 14,-195.33 14,-184.67 14,-184.67 14,-179.33 19.33,-174 24.67,-174"/>
</a>
</g>
</g>
<!-- Op2&#45;11669170575846068978 -->
<g id="node8" class="node">
<title>Op2&#45;11669170575846068978</title>
<g id="a_node8"><a xlink:title="2: Op2&#45;11669170575846068978">
<path fill="white" stroke="none" d="M362.67,-95C362.67,-95 445.33,-95 445.33,-95 450.67,-95 456,-100.33 456,-105.67 456,-105.67 456,-116.33 456,-116.33 456,-121.67 450.67,-127 445.33,-127 445.33,-127 362.67,-127 362.67,-127 357.33,-127 352,-121.67 352,-116.33 352,-116.33 352,-105.67 352,-105.67 352,-100.33 357.33,-95 362.67,-95"/>
<text text-anchor="start" x="356.75" y="-106.33" font-family="Helvetica,sans-Serif" font-size="14.00">Op2(And, ·, ·)</text>
<path fill="none" stroke="black" d="M362.67,-95C362.67,-95 445.33,-95 445.33,-95 450.67,-95 456,-100.33 456,-105.67 456,-105.67 456,-116.33 456,-116.33 456,-121.67 450.67,-127 445.33,-127 445.33,-127 362.67,-127 362.67,-127 357.33,-127 352,-121.67 352,-116.33 352,-116.33 352,-105.67 352,-105.67 352,-100.33 357.33,-95 362.67,-95"/>
</a>
</g>
</g>
<!-- Op2&#45;16584664614395780245 -->
<g id="node9" class="node">
<title>Op2&#45;16584664614395780245</title>
<g id="a_node9"><a xlink:title="2: Op2&#45;16584664614395780245">
<path fill="white" stroke="none" d="M254.67,-95C254.67,-95 337.33,-95 337.33,-95 342.67,-95 348,-100.33 348,-105.67 348,-105.67 348,-116.33 348,-116.33 348,-121.67 342.67,-127 337.33,-127 337.33,-127 254.67,-127 254.67,-127 249.33,-127 244,-121.67 244,-116.33 244,-116.33 244,-105.67 244,-105.67 244,-100.33 249.33,-95 254.67,-95"/>
<text text-anchor="start" x="248.75" y="-106.33" font-family="Helvetica,sans-Serif" font-size="14.00">Op2(And, ·, ·)</text>
<path fill="none" stroke="black" d="M254.67,-95C254.67,-95 337.33,-95 337.33,-95 342.67,-95 348,-100.33 348,-105.67 348,-105.67 348,-116.33 348,-116.33 348,-121.67 342.67,-127 337.33,-127 337.33,-127 254.67,-127 254.67,-127 249.33,-127 244,-121.67 244,-116.33 244,-116.33 244,-105.67 244,-105.67 244,-100.33 249.33,-95 254.67,-95"/>
</a>
</g>
</g>
<!-- Op2&#45;16463693734372638882 -->
<g id="node10" class="node">
<title>Op2&#45;16463693734372638882</title>
<g id="a_node10"><a xlink:title="7: Op2&#45;16463693734372638882">
<path fill="white" stroke="none" d="M315.67,-253C315.67,-253 388.33,-253 388.33,-253 393.67,-253 399,-258.33 399,-263.67 399,-263.67 399,-274.33 399,-274.33 399,-279.67 393.67,-285 388.33,-285 388.33,-285 315.67,-285 315.67,-285 310.33,-285 305,-279.67 305,-274.33 305,-274.33 305,-263.67 305,-263.67 305,-258.33 310.33,-253 315.67,-253"/>
<text text-anchor="start" x="310" y="-264.32" font-family="Helvetica,sans-Serif" font-size="14.00">Op2(Or, ·, ·)</text>
<path fill="none" stroke="black" d="M315.67,-253C315.67,-253 388.33,-253 388.33,-253 393.67,-253 399,-258.33 399,-263.67 399,-263.67 399,-274.33 399,-274.33 399,-279.67 393.67,-285 388.33,-285 388.33,-285 315.67,-285 315.67,-285 310.33,-285 305,-279.67 305,-274.33 305,-274.33 305,-263.67 305,-263.67 305,-258.33 310.33,-253 315.67,-253"/>
</a>
</g>
</g>
<!-- Op2&#45;1269641591177710019 -->
<g id="node11" class="node">
<title>Op2&#45;1269641591177710019</title>
<g id="a_node11"><a xlink:title="7: Op2&#45;1269641591177710019">
<path fill="white" stroke="none" d="M217.67,-253C217.67,-253 290.33,-253 290.33,-253 295.67,-253 301,-258.33 301,-263.67 301,-263.67 301,-274.33 301,-274.33 301,-279.67 295.67,-285 290.33,-285 290.33,-285 217.67,-285 217.67,-285 212.33,-285 207,-279.67 207,-274.33 207,-274.33 207,-263.67 207,-263.67 207,-258.33 212.33,-253 217.67,-253"/>
<text text-anchor="start" x="212" y="-264.32" font-family="Helvetica,sans-Serif" font-size="14.00">Op2(Or, ·, ·)</text>
<path fill="none" stroke="black" d="M217.67,-253C217.67,-253 290.33,-253 290.33,-253 295.67,-253 301,-258.33 301,-263.67 301,-263.67 301,-274.33 301,-274.33 301,-279.67 295.67,-285 290.33,-285 290.33,-285 217.67,-285 217.67,-285 212.33,-285 207,-279.67 207,-274.33 207,-274.33 207,-263.67 207,-263.67 207,-258.33 212.33,-253 217.67,-253"/>
</a>
</g>
</g>
</g>
</svg>
