<?xml version="1.0" encoding="UTF-8" standalone="no"?>
<!DOCTYPE svg PUBLIC "-//W3C//DTD SVG 1.1//EN"
 "http://www.w3.org/Graphics/SVG/1.1/DTD/svg11.dtd">
<!-- Generated by graphviz version 9.0.0 (0)
 -->
<!-- Pages: 1 -->
<svg width="330pt" height="467pt"
 viewBox="0.00 0.00 330.00 467.00" xmlns="http://www.w3.org/2000/svg" xmlns:xlink="http://www.w3.org/1999/xlink">
<g id="graph0" class="graph" transform="scale(1 1) rotate(0) translate(4 463)">
<polygon fill="white" stroke="none" points="-4,4 -4,-463 326,-463 326,4 -4,4"/>
<g id="clust1" class="cluster">
<title>outer_cluster_5</title>
</g>
<g id="clust2" class="cluster">
<title>cluster_5</title>
<path fill="#ffffb3" stroke="black" stroke-dasharray="5,2" d="M35,-169C35,-169 105,-169 105,-169 111,-169 117,-175 117,-181 117,-181 117,-199 117,-199 117,-205 111,-211 105,-211 105,-211 35,-211 35,-211 29,-211 23,-205 23,-199 23,-199 23,-181 23,-181 23,-175 29,-169 35,-169"/>
</g>
<g id="clust4" class="cluster">
<title>outer_cluster_2</title>
</g>
<g id="clust5" class="cluster">
<title>cluster_2</title>
<path fill="#ffffb3" stroke="black" stroke-dasharray="5,2" d="M187,-11C187,-11 281,-11 281,-11 287,-11 293,-17 293,-23 293,-23 293,-41 293,-41 293,-47 287,-53 281,-53 281,-53 187,-53 187,-53 181,-53 175,-47 175,-41 175,-41 175,-23 175,-23 175,-17 181,-11 187,-11"/>
</g>
<g id="clust7" class="cluster">
<title>outer_cluster_9</title>
</g>
<g id="clust8" class="cluster">
<title>cluster_9</title>
<path fill="#ffffb3" stroke="black" stroke-dasharray="5,2" d="M57,-327C57,-327 133,-327 133,-327 139,-327 145,-333 145,-339 145,-339 145,-357 145,-357 145,-363 139,-369 133,-369 133,-369 57,-369 57,-369 51,-369 45,-363 45,-357 45,-357 45,-339 45,-339 45,-333 51,-327 57,-327"/>
</g>
<g id="clust10" class="cluster">
<title>outer_cluster_7</title>
</g>
<g id="clust11" class="cluster">
<title>cluster_7</title>
<path fill="#ffffb3" stroke="black" stroke-dasharray="5,2" d="M149,-169C149,-169 225,-169 225,-169 231,-169 237,-175 237,-181 237,-181 237,-199 237,-199 237,-205 231,-211 225,-211 225,-211 149,-211 149,-211 143,-211 137,-205 137,-199 137,-199 137,-181 137,-181 137,-175 143,-169 149,-169"/>
</g>
<g id="clust13" class="cluster">
<title>outer_cluster_6</title>
</g>
<g id="clust14" class="cluster">
<title>cluster_6</title>
<path fill="#ffffb3" stroke="black" stroke-dasharray="5,2" d="M60,-406C60,-406 130,-406 130,-406 136,-406 142,-412 142,-418 142,-418 142,-436 142,-436 142,-442 136,-448 130,-448 130,-448 60,-448 60,-448 54,-448 48,-442 48,-436 48,-436 48,-418 48,-418 48,-412 54,-406 60,-406"/>
</g>
<g id="clust19" class="cluster">
<title>outer_cluster_0</title>
</g>
<g id="clust20" class="cluster">
<title>cluster_0</title>
<path fill="#ffffb3" stroke="black" stroke-dasharray="5,2" d="M46,-11C46,-11 140,-11 140,-11 146,-11 152,-17 152,-23 152,-23 152,-41 152,-41 152,-47 146,-53 140,-53 140,-53 46,-53 46,-53 40,-53 34,-47 34,-41 34,-41 34,-23 34,-23 34,-17 40,-11 46,-11"/>
</g>
<g id="clust16" class="cluster">
<title>outer_cluster_8</title>
</g>
<g id="clust17" class="cluster">
<title>cluster_8</title>
<path fill="#ffffb3" stroke="black" stroke-dasharray="5,2" d="M23,-90C23,-90 99,-90 99,-90 105,-90 111,-96 111,-102 111,-102 111,-120 111,-120 111,-126 105,-132 99,-132 99,-132 23,-132 23,-132 17,-132 11,-126 11,-120 11,-120 11,-102 11,-102 11,-96 17,-90 23,-90"/>
</g>
<g id="clust22" class="cluster">
<title>outer_cluster_1</title>
</g>
<g id="clust23" class="cluster">
<title>cluster_1</title>
<path fill="#ffffb3" stroke="black" stroke-dasharray="5,2" d="M129,-90C129,-90 199,-90 199,-90 205,-90 211,-96 211,-102 211,-102 211,-120 211,-120 211,-126 205,-132 199,-132 199,-132 129,-132 129,-132 123,-132 117,-126 117,-120 117,-120 117,-102 117,-102 117,-96 123,-90 129,-90"/>
</g>
<g id="clust25" class="cluster">
<title>outer_cluster_3</title>
</g>
<g id="clust26" class="cluster">
<title>cluster_3</title>
<path fill="#ffffb3" stroke="black" stroke-dasharray="5,2" d="M229,-90C229,-90 299,-90 299,-90 305,-90 311,-96 311,-102 311,-102 311,-120 311,-120 311,-126 305,-132 299,-132 299,-132 229,-132 229,-132 223,-132 217,-126 217,-120 217,-120 217,-102 217,-102 217,-96 223,-90 229,-90"/>
</g>
<g id="clust28" class="cluster">
<title>outer_cluster_4</title>
</g>
<g id="clust29" class="cluster">
<title>cluster_4</title>
<path fill="#ffffb3" stroke="black" stroke-dasharray="5,2" d="M143,-248C143,-248 213,-248 213,-248 219,-248 225,-254 225,-260 225,-260 225,-278 225,-278 225,-284 219,-290 213,-290 213,-290 143,-290 143,-290 137,-290 131,-284 131,-278 131,-278 131,-260 131,-260 131,-254 137,-248 143,-248"/>
</g>
<!-- Op1&#45;15226756172942143697&#45;&gt;Op2&#45;14115315143431114661 -->
<g id="edge1" class="edge">
<title>Op1&#45;15226756172942143697:s&#45;&gt;Op2&#45;14115315143431114661</title>
<path fill="none" stroke="black" d="M70,-174C70,-160.97 68.03,-146.55 65.93,-134.91"/>
<polygon fill="black" stroke="black" points="68.82,-137.39 65.33,-133.4 65.57,-138.7 68.82,-137.39"/>
</g>
<!-- Op2&#45;14115315143431114661&#45;&gt;Var&#45;17720959334994776468 -->
<g id="edge8" class="edge">
<title>Op2&#45;14115315143431114661:s&#45;&gt;Var&#45;17720959334994776468</title>
<path fill="none" stroke="black" d="M84,-95C84,-84.76 132.36,-66.16 174.16,-52"/>
<polygon fill="black" stroke="black" points="172.3,-57.12 174.06,-52.12 169.57,-54.94 172.3,-57.12"/>
</g>
<!-- Op2&#45;14115315143431114661&#45;&gt;Var&#45;1747479766223496002 -->
<g id="edge7" class="edge">
<title>Op2&#45;14115315143431114661:s&#45;&gt;Var&#45;1747479766223496002</title>
<path fill="none" stroke="black" d="M38,-95C38,-78.61 48.88,-64.54 60.97,-53.96"/>
<polygon fill="black" stroke="black" points="57.84,-57.54 61.48,-53.69 56.23,-54.44 57.84,-57.54"/>
</g>
<!-- Op2&#45;6185135629727421286&#45;&gt;Op1&#45;15226756172942143697 -->
<g id="edge3" class="edge">
<title>Op2&#45;6185135629727421286:s&#45;&gt;Op1&#45;15226756172942143697</title>
<path fill="none" stroke="black" d="M118,-332C118,-288.06 96.85,-240.33 82.63,-213.2"/>
<polygon fill="black" stroke="black" points="86.31,-214.76 81.71,-212.14 83.67,-217.06 86.31,-214.76"/>
</g>
<!-- Op2&#45;6185135629727421286&#45;&gt;Op1&#45;5977397321866771562 -->
<g id="edge2" class="edge">
<title>Op2&#45;6185135629727421286:s&#45;&gt;Op1&#45;5977397321866771562</title>
<path fill="none" stroke="black" d="M72,-332C72,-303.56 100.79,-287.92 128.36,-279.47"/>
<polygon fill="black" stroke="black" points="125.27,-282.23 129.55,-279.11 124.26,-278.88 125.27,-282.23"/>
</g>
<!-- Op1&#45;5977397321866771562&#45;&gt;Op2&#45;14240201057427861590 -->
<g id="edge11" class="edge">
<title>Op1&#45;5977397321866771562:s&#45;&gt;Op2&#45;14240201057427861590</title>
<path fill="none" stroke="black" d="M178,-253C178,-239.97 179.97,-225.55 182.07,-213.91"/>
<polygon fill="black" stroke="black" points="182.43,-217.7 182.67,-212.4 179.18,-216.39 182.43,-217.7"/>
</g>
<!-- Op2&#45;14240201057427861590&#45;&gt;Op1&#45;5145996267849227305 -->
<g id="edge4" class="edge">
<title>Op2&#45;14240201057427861590:s&#45;&gt;Op1&#45;5145996267849227305</title>
<path fill="none" stroke="black" d="M164,-174C164,-161.22 164,-146.96 164,-135.35"/>
<polygon fill="black" stroke="black" points="165.75,-138.51 164,-133.51 162.25,-138.51 165.75,-138.51"/>
</g>
<!-- Op2&#45;14240201057427861590&#45;&gt;Op1&#45;16889558280977232211 -->
<g id="edge5" class="edge">
<title>Op2&#45;14240201057427861590:s&#45;&gt;Op1&#45;16889558280977232211</title>
<path fill="none" stroke="black" d="M210,-174C210,-157.62 220.85,-143.46 232.83,-132.83"/>
<polygon fill="black" stroke="black" points="229.45,-136.32 233.26,-132.63 227.98,-133.14 229.45,-136.32"/>
</g>
<!-- Op1&#45;5145996267849227305&#45;&gt;Var&#45;1747479766223496002 -->
<g id="edge9" class="edge">
<title>Op1&#45;5145996267849227305:s&#45;&gt;Var&#45;1747479766223496002</title>
<path fill="none" stroke="black" d="M164,-95C164,-77.06 150.98,-63.12 136.1,-53.04"/>
<polygon fill="black" stroke="black" points="142.71,-53.64 137.41,-53.53 141.49,-56.92 142.71,-53.64"/>
</g>
<!-- Op1&#45;16889558280977232211&#45;&gt;Var&#45;17720959334994776468 -->
<g id="edge10" class="edge">
<title>Op1&#45;16889558280977232211:s&#45;&gt;Var&#45;17720959334994776468</title>
<path fill="none" stroke="black" d="M264,-95C264,-80.82 257.56,-66.47 250.65,-55.15"/>
<polygon fill="black" stroke="black" points="254.27,-57.5 250.07,-54.27 251.34,-59.41 254.27,-57.5"/>
</g>
<!-- Op1&#45;9354975166378141244&#45;&gt;Op2&#45;6185135629727421286 -->
<g id="edge6" class="edge">
<title>Op1&#45;9354975166378141244:s&#45;&gt;Op2&#45;6185135629727421286</title>
<path fill="none" stroke="black" d="M95,-411C95,-398.22 95,-383.96 95,-372.35"/>
<polygon fill="black" stroke="black" points="96.75,-375.51 95,-370.51 93.25,-375.51 96.75,-375.51"/>
</g>
<!-- Op1&#45;15226756172942143697 -->
<g id="node1" class="node">
<title>Op1&#45;15226756172942143697</title>
<g id="a_node1"><a xlink:title="5: Op1&#45;15226756172942143697">
<path fill="white" stroke="none" d="M37.04,-174C37.04,-174 102.96,-174 102.96,-174 108.29,-174 113.62,-179.33 113.62,-184.67 113.62,-184.67 113.62,-195.33 113.62,-195.33 113.62,-200.67 108.29,-206 102.96,-206 102.96,-206 37.04,-206 37.04,-206 31.71,-206 26.38,-200.67 26.38,-195.33 26.38,-195.33 26.38,-184.67 26.38,-184.67 26.38,-179.33 31.71,-174 37.04,-174"/>
<text text-anchor="start" x="31.38" y="-185.32" font-family="Helvetica,sans-Serif" font-size="14.00">Op1(Not, ·)</text>
<path fill="none" stroke="black" d="M37.04,-174C37.04,-174 102.96,-174 102.96,-174 108.29,-174 113.62,-179.33 113.62,-184.67 113.62,-184.67 113.62,-195.33 113.62,-195.33 113.62,-200.67 108.29,-206 102.96,-206 102.96,-206 37.04,-206 37.04,-206 31.71,-206 26.38,-200.67 26.38,-195.33 26.38,-195.33 26.38,-184.67 26.38,-184.67 26.38,-179.33 31.71,-174 37.04,-174"/>
</a>
</g>
</g>
<!-- Op2&#45;14115315143431114661 -->
<g id="node2" class="node">
<title>Op2&#45;14115315143431114661</title>
<g id="a_node2"><a xlink:title="8: Op2&#45;14115315143431114661">
<path fill="white" stroke="none" d="M24.67,-95C24.67,-95 97.33,-95 97.33,-95 102.67,-95 108,-100.33 108,-105.67 108,-105.67 108,-116.33 108,-116.33 108,-121.67 102.67,-127 97.33,-127 97.33,-127 24.67,-127 24.67,-127 19.33,-127 14,-121.67 14,-116.33 14,-116.33 14,-105.67 14,-105.67 14,-100.33 19.33,-95 24.67,-95"/>
<text text-anchor="start" x="19" y="-106.33" font-family="Helvetica,sans-Serif" font-size="14.00">Op2(Or, ·, ·)</text>
<path fill="none" stroke="black" d="M24.67,-95C24.67,-95 97.33,-95 97.33,-95 102.67,-95 108,-100.33 108,-105.67 108,-105.67 108,-116.33 108,-116.33 108,-121.67 102.67,-127 97.33,-127 97.33,-127 24.67,-127 24.67,-127 19.33,-127 14,-121.67 14,-116.33 14,-116.33 14,-105.67 14,-105.67 14,-100.33 19.33,-95 24.67,-95"/>
</a>
</g>
</g>
<!-- Var&#45;17720959334994776468 -->
<g id="node3" class="node">
<title>Var&#45;17720959334994776468</title>
<g id="a_node3"><a xlink:title="2: Var&#45;17720959334994776468">
<path fill="white" stroke="none" d="M188.67,-16C188.67,-16 279.33,-16 279.33,-16 284.67,-16 290,-21.33 290,-26.67 290,-26.67 290,-37.33 290,-37.33 290,-42.67 284.67,-48 279.33,-48 279.33,-48 188.67,-48 188.67,-48 183.33,-48 178,-42.67 178,-37.33 178,-37.33 178,-26.67 178,-26.67 178,-21.33 183.33,-16 188.67,-16"/>
<text text-anchor="start" x="183" y="-27.32" font-family="Helvetica,sans-Serif" font-size="14.00">Var(&quot;i_bit2&quot;, 1)</text>
<path fill="none" stroke="black" d="M188.67,-16C188.67,-16 279.33,-16 279.33,-16 284.67,-16 290,-21.33 290,-26.67 290,-26.67 290,-37.33 290,-37.33 290,-42.67 284.67,-48 279.33,-48 279.33,-48 188.67,-48 188.67,-48 183.33,-48 178,-42.67 178,-37.33 178,-37.33 178,-26.67 178,-26.67 178,-21.33 183.33,-16 188.67,-16"/>
</a>
</g>
</g>
<!-- Op2&#45;6185135629727421286 -->
<g id="node4" class="node">
<title>Op2&#45;6185135629727421286</title>
<g id="a_node4"><a xlink:title="9: Op2&#45;6185135629727421286">
<path fill="white" stroke="none" d="M58.67,-332C58.67,-332 131.33,-332 131.33,-332 136.67,-332 142,-337.33 142,-342.67 142,-342.67 142,-353.33 142,-353.33 142,-358.67 136.67,-364 131.33,-364 131.33,-364 58.67,-364 58.67,-364 53.33,-364 48,-358.67 48,-353.33 48,-353.33 48,-342.67 48,-342.67 48,-337.33 53.33,-332 58.67,-332"/>
<text text-anchor="start" x="53" y="-343.32" font-family="Helvetica,sans-Serif" font-size="14.00">Op2(Or, ·, ·)</text>
<path fill="none" stroke="black" d="M58.67,-332C58.67,-332 131.33,-332 131.33,-332 136.67,-332 142,-337.33 142,-342.67 142,-342.67 142,-353.33 142,-353.33 142,-358.67 136.67,-364 131.33,-364 131.33,-364 58.67,-364 58.67,-364 53.33,-364 48,-358.67 48,-353.33 48,-353.33 48,-342.67 48,-342.67 48,-337.33 53.33,-332 58.67,-332"/>
</a>
</g>
</g>
<!-- Op1&#45;5977397321866771562 -->
<g id="node5" class="node">
<title>Op1&#45;5977397321866771562</title>
<g id="a_node5"><a xlink:title="4: Op1&#45;5977397321866771562">
<path fill="white" stroke="none" d="M145.04,-253C145.04,-253 210.96,-253 210.96,-253 216.29,-253 221.62,-258.33 221.62,-263.67 221.62,-263.67 221.62,-274.33 221.62,-274.33 221.62,-279.67 216.29,-285 210.96,-285 210.96,-285 145.04,-285 145.04,-285 139.71,-285 134.38,-279.67 134.38,-274.33 134.38,-274.33 134.38,-263.67 134.38,-263.67 134.38,-258.33 139.71,-253 145.04,-253"/>
<text text-anchor="start" x="139.38" y="-264.32" font-family="Helvetica,sans-Serif" font-size="14.00">Op1(Not, ·)</text>
<path fill="none" stroke="black" d="M145.04,-253C145.04,-253 210.96,-253 210.96,-253 216.29,-253 221.62,-258.33 221.62,-263.67 221.62,-263.67 221.62,-274.33 221.62,-274.33 221.62,-279.67 216.29,-285 210.96,-285 210.96,-285 145.04,-285 145.04,-285 139.71,-285 134.38,-279.67 134.38,-274.33 134.38,-274.33 134.38,-263.67 134.38,-263.67 134.38,-258.33 139.71,-253 145.04,-253"/>
</a>
</g>
</g>
<!-- Op2&#45;14240201057427861590 -->
<g id="node6" class="node">
<title>Op2&#45;14240201057427861590</title>
<g id="a_node6"><a xlink:title="7: Op2&#45;14240201057427861590">
<path fill="white" stroke="none" d="M150.67,-174C150.67,-174 223.33,-174 223.33,-174 228.67,-174 234,-179.33 234,-184.67 234,-184.67 234,-195.33 234,-195.33 234,-200.67 228.67,-206 223.33,-206 223.33,-206 150.67,-206 150.67,-206 145.33,-206 140,-200.67 140,-195.33 140,-195.33 140,-184.67 140,-184.67 140,-179.33 145.33,-174 150.67,-174"/>
<text text-anchor="start" x="145" y="-185.32" font-family="Helvetica,sans-Serif" font-size="14.00">Op2(Or, ·, ·)</text>
<path fill="none" stroke="black" d="M150.67,-174C150.67,-174 223.33,-174 223.33,-174 228.67,-174 234,-179.33 234,-184.67 234,-184.67 234,-195.33 234,-195.33 234,-200.67 228.67,-206 223.33,-206 223.33,-206 150.67,-206 150.67,-206 145.33,-206 140,-200.67 140,-195.33 140,-195.33 140,-184.67 140,-184.67 140,-179.33 145.33,-174 150.67,-174"/>
</a>
</g>
</g>
<!-- Op1&#45;5145996267849227305 -->
<g id="node7" class="node">
<title>Op1&#45;5145996267849227305</title>
<g id="a_node7"><a xlink:title="1: Op1&#45;5145996267849227305">
<path fill="white" stroke="none" d="M131.04,-95C131.04,-95 196.96,-95 196.96,-95 202.29,-95 207.62,-100.33 207.62,-105.67 207.62,-105.67 207.62,-116.33 207.62,-116.33 207.62,-121.67 202.29,-127 196.96,-127 196.96,-127 131.04,-127 131.04,-127 125.71,-127 120.38,-121.67 120.38,-116.33 120.38,-116.33 120.38,-105.67 120.38,-105.67 120.38,-100.33 125.71,-95 131.04,-95"/>
<text text-anchor="start" x="125.38" y="-106.33" font-family="Helvetica,sans-Serif" font-size="14.00">Op1(Not, ·)</text>
<path fill="none" stroke="black" d="M131.04,-95C131.04,-95 196.96,-95 196.96,-95 202.29,-95 207.62,-100.33 207.62,-105.67 207.62,-105.67 207.62,-116.33 207.62,-116.33 207.62,-121.67 202.29,-127 196.96,-127 196.96,-127 131.04,-127 131.04,-127 125.71,-127 120.38,-121.67 120.38,-116.33 120.38,-116.33 120.38,-105.67 120.38,-105.67 120.38,-100.33 125.71,-95 131.04,-95"/>
</a>
</g>
</g>
<!-- Op1&#45;16889558280977232211 -->
<g id="node8" class="node">
<title>Op1&#45;16889558280977232211</title>
<g id="a_node8"><a xlink:title="3: Op1&#45;16889558280977232211">
<path fill="white" stroke="none" d="M231.04,-95C231.04,-95 296.96,-95 296.96,-95 302.29,-95 307.62,-100.33 307.62,-105.67 307.62,-105.67 307.62,-116.33 307.62,-116.33 307.62,-121.67 302.29,-127 296.96,-127 296.96,-127 231.04,-127 231.04,-127 225.71,-127 220.38,-121.67 220.38,-116.33 220.38,-116.33 220.38,-105.67 220.38,-105.67 220.38,-100.33 225.71,-95 231.04,-95"/>
<text text-anchor="start" x="225.38" y="-106.33" font-family="Helvetica,sans-Serif" font-size="14.00">Op1(Not, ·)</text>
<path fill="none" stroke="black" d="M231.04,-95C231.04,-95 296.96,-95 296.96,-95 302.29,-95 307.62,-100.33 307.62,-105.67 307.62,-105.67 307.62,-116.33 307.62,-116.33 307.62,-121.67 302.29,-127 296.96,-127 296.96,-127 231.04,-127 231.04,-127 225.71,-127 220.38,-121.67 220.38,-116.33 220.38,-116.33 220.38,-105.67 220.38,-105.67 220.38,-100.33 225.71,-95 231.04,-95"/>
</a>
</g>
</g>
<!-- Op1&#45;9354975166378141244 -->
<g id="node9" class="node">
<title>Op1&#45;9354975166378141244</title>
<g id="a_node9"><a xlink:title="6: Op1&#45;9354975166378141244">
<path fill="white" stroke="none" d="M62.04,-411C62.04,-411 127.96,-411 127.96,-411 133.29,-411 138.62,-416.33 138.62,-421.67 138.62,-421.67 138.62,-432.33 138.62,-432.33 138.62,-437.67 133.29,-443 127.96,-443 127.96,-443 62.04,-443 62.04,-443 56.71,-443 51.38,-437.67 51.38,-432.33 51.38,-432.33 51.38,-421.67 51.38,-421.67 51.38,-416.33 56.71,-411 62.04,-411"/>
<text text-anchor="start" x="56.38" y="-422.32" font-family="Helvetica,sans-Serif" font-size="14.00">Op1(Not, ·)</text>
<path fill="none" stroke="black" d="M62.04,-411C62.04,-411 127.96,-411 127.96,-411 133.29,-411 138.62,-416.33 138.62,-421.67 138.62,-421.67 138.62,-432.33 138.62,-432.33 138.62,-437.67 133.29,-443 127.96,-443 127.96,-443 62.04,-443 62.04,-443 56.71,-443 51.38,-437.67 51.38,-432.33 51.38,-432.33 51.38,-421.67 51.38,-421.67 51.38,-416.33 56.71,-411 62.04,-411"/>
</a>
</g>
</g>
<!-- Var&#45;1747479766223496002 -->
<g id="node10" class="node">
<title>Var&#45;1747479766223496002</title>
<g id="a_node10"><a xlink:title="0: Var&#45;1747479766223496002">
<path fill="white" stroke="none" d="M47.67,-16C47.67,-16 138.33,-16 138.33,-16 143.67,-16 149,-21.33 149,-26.67 149,-26.67 149,-37.33 149,-37.33 149,-42.67 143.67,-48 138.33,-48 138.33,-48 47.67,-48 47.67,-48 42.33,-48 37,-42.67 37,-37.33 37,-37.33 37,-26.67 37,-26.67 37,-21.33 42.33,-16 47.67,-16"/>
<text text-anchor="start" x="42" y="-27.32" font-family="Helvetica,sans-Serif" font-size="14.00">Var(&quot;i_bit1&quot;, 1)</text>
<path fill="none" stroke="black" d="M47.67,-16C47.67,-16 138.33,-16 138.33,-16 143.67,-16 149,-21.33 149,-26.67 149,-26.67 149,-37.33 149,-37.33 149,-42.67 143.67,-48 138.33,-48 138.33,-48 47.67,-48 47.67,-48 42.33,-48 37,-42.67 37,-37.33 37,-37.33 37,-26.67 37,-26.67 37,-21.33 42.33,-16 47.67,-16"/>
</a>
</g>
</g>
</g>
</svg>
