<?xml version="1.0" encoding="UTF-8" standalone="no"?>
<!DOCTYPE svg PUBLIC "-//W3C//DTD SVG 1.1//EN"
 "http://www.w3.org/Graphics/SVG/1.1/DTD/svg11.dtd">
<!-- Generated by graphviz version 8.1.0 (0)
 -->
<!-- Pages: 1 -->
<svg width="356pt" height="230pt"
 viewBox="0.00 0.00 356.00 230.00" xmlns="http://www.w3.org/2000/svg" xmlns:xlink="http://www.w3.org/1999/xlink">
<g id="graph0" class="graph" transform="scale(1 1) rotate(0) translate(4 226)">
<polygon fill="white" stroke="none" points="-4,4 -4,-226 352,-226 352,4 -4,4"/>
<g id="clust1" class="cluster">
<title>outer_cluster_2</title>
</g>
<g id="clust2" class="cluster">
<title>cluster_2</title>
<path fill="#ffffb3" stroke="black" stroke-dasharray="5,2" d="M42,-11C42,-11 136,-11 136,-11 142,-11 148,-17 148,-23 148,-23 148,-41 148,-41 148,-47 142,-53 136,-53 136,-53 42,-53 42,-53 36,-53 30,-47 30,-41 30,-41 30,-23 30,-23 30,-17 36,-11 42,-11"/>
</g>
<g id="clust4" class="cluster">
<title>outer_cluster_1</title>
</g>
<g id="clust5" class="cluster">
<title>cluster_1</title>
<path fill="#ffffb3" stroke="black" stroke-dasharray="5,2" d="M23,-90C23,-90 105,-90 105,-90 111,-90 117,-96 117,-102 117,-102 117,-120 117,-120 117,-126 111,-132 105,-132 105,-132 23,-132 23,-132 17,-132 11,-126 11,-120 11,-120 11,-102 11,-102 11,-96 17,-90 23,-90"/>
</g>
<g id="clust7" class="cluster">
<title>outer_cluster_0</title>
</g>
<g id="clust8" class="cluster">
<title>cluster_0</title>
<path fill="#ffffb3" stroke="black" stroke-dasharray="5,2" d="M239,-90C239,-90 325,-90 325,-90 331,-90 337,-96 337,-102 337,-102 337,-120 337,-120 337,-126 331,-132 325,-132 325,-132 239,-132 239,-132 233,-132 227,-126 227,-120 227,-120 227,-102 227,-102 227,-96 233,-90 239,-90"/>
</g>
<g id="clust10" class="cluster">
<title>outer_cluster_3</title>
</g>
<g id="clust11" class="cluster">
<title>cluster_3</title>
<path fill="#ffffb3" stroke="black" stroke-dasharray="5,2" d="M209,-11C209,-11 303,-11 303,-11 309,-11 315,-17 315,-23 315,-23 315,-41 315,-41 315,-47 309,-53 303,-53 303,-53 209,-53 209,-53 203,-53 197,-47 197,-41 197,-41 197,-23 197,-23 197,-17 203,-11 209,-11"/>
</g>
<g id="clust13" class="cluster">
<title>outer_cluster_10</title>
</g>
<g id="clust14" class="cluster">
<title>cluster_10</title>
<path fill="#bebada" stroke="black" stroke-dasharray="5,2" d="M135,-90C135,-90 209,-90 209,-90 215,-90 221,-96 221,-102 221,-102 221,-120 221,-120 221,-126 215,-132 209,-132 209,-132 135,-132 135,-132 129,-132 123,-126 123,-120 123,-120 123,-102 123,-102 123,-96 129,-90 135,-90"/>
</g>
<g id="clust16" class="cluster">
<title>outer_cluster_Unit&#45;0</title>
</g>
<g id="clust17" class="cluster">
<title>cluster_Unit&#45;0</title>
<path fill="#fb8072" stroke="black" stroke-dasharray="5,2" d="M25,-169C25,-169 275,-169 275,-169 281,-169 287,-175 287,-181 287,-181 287,-199 287,-199 287,-205 281,-211 275,-211 275,-211 25,-211 25,-211 19,-211 13,-205 13,-199 13,-199 13,-181 13,-181 13,-175 19,-169 25,-169"/>
</g>
<!-- Op2&#45;15660640694187950306&#45;&gt;Var&#45;2308170335133184780 -->
<g id="edge2" class="edge">
<title>Op2&#45;15660640694187950306:s&#45;&gt;Var&#45;2308170335133184780</title>
<path fill="none" stroke="black" d="M89,-95C89,-81.98 89,-67.43 89,-55.7"/>
<polygon fill="black" stroke="black" points="90.75,-59 89,-54 87.25,-59 90.75,-59"/>
</g>
<!-- Op2&#45;15660640694187950306&#45;&gt;Var&#45;18281649903904465246 -->
<g id="edge1" class="edge">
<title>Op2&#45;15660640694187950306:s&#45;&gt;Var&#45;18281649903904465246</title>
<path fill="none" stroke="black" d="M39,-95C39,-86.87 130.23,-63.22 194.39,-47.59"/>
<polygon fill="black" stroke="black" points="192.41,-50.09 196,-46.2 190.76,-47 192.41,-50.09"/>
</g>
<!-- Op2&#45;2353521701394760001&#45;&gt;Var&#45;2308170335133184780 -->
<g id="edge4" class="edge">
<title>Op2&#45;2353521701394760001:s&#45;&gt;Var&#45;2308170335133184780</title>
<path fill="none" stroke="black" d="M308,-95C308,-86.78 215.39,-63.03 150.62,-47.43"/>
<polygon fill="black" stroke="black" points="154.24,-46.84 149,-46.04 152.59,-49.93 154.24,-46.84"/>
</g>
<!-- Op2&#45;2353521701394760001&#45;&gt;Var&#45;18281649903904465246 -->
<g id="edge3" class="edge">
<title>Op2&#45;2353521701394760001:s&#45;&gt;Var&#45;18281649903904465246</title>
<path fill="none" stroke="black" d="M256,-95C256,-81.98 256,-67.43 256,-55.7"/>
<polygon fill="black" stroke="black" points="257.75,-59 256,-54 254.25,-59 257.75,-59"/>
</g>
<!-- HasType&#45;5290151780539952054&#45;&gt;Var&#45;2308170335133184780 -->
<g id="edge5" class="edge">
<title>HasType&#45;5290151780539952054:s&#45;&gt;Var&#45;2308170335133184780</title>
<path fill="none" stroke="black" d="M91,-174C91,-134.04 31.26,-168.83 10,-135 -1.35,-116.94 0.04,-105.87 10,-87 16.67,-74.35 27.79,-64.11 39.61,-56.08"/>
<polygon fill="black" stroke="black" points="40.1,-57.19 43.34,-53 38.19,-54.26 40.1,-57.19"/>
</g>
<!-- HasType&#45;5290151780539952054&#45;&gt;Bitvector&#45;5871781006564002453 -->
<g id="edge6" class="edge">
<title>HasType&#45;5290151780539952054:s&#45;&gt;Bitvector&#45;5871781006564002453</title>
<path fill="none" stroke="black" d="M124,-174C124,-158.14 133.95,-143.87 144.78,-133.03"/>
<polygon fill="black" stroke="black" points="142.23,-136.43 145.12,-132 140.09,-133.66 142.23,-136.43"/>
</g>
<!-- HasType&#45;17938027133241055492&#45;&gt;Var&#45;18281649903904465246 -->
<g id="edge7" class="edge">
<title>HasType&#45;17938027133241055492:s&#45;&gt;Var&#45;18281649903904465246</title>
<path fill="none" stroke="black" d="M233,-174C233,-124.22 309.58,-175.87 338,-135 350.18,-117.48 348.12,-105.78 338,-87 331.14,-74.27 319.81,-64.04 307.74,-56.06"/>
<polygon fill="black" stroke="black" points="309.06,-54.19 303.9,-53 307.19,-57.15 309.06,-54.19"/>
</g>
<!-- HasType&#45;17938027133241055492&#45;&gt;Bitvector&#45;5871781006564002453 -->
<g id="edge8" class="edge">
<title>HasType&#45;17938027133241055492:s&#45;&gt;Bitvector&#45;5871781006564002453</title>
<path fill="none" stroke="black" d="M266,-174C266,-161.85 243.85,-146.89 221.06,-134.71"/>
<polygon fill="black" stroke="black" points="222.13,-132.77 216.89,-132 220.5,-135.87 222.13,-132.77"/>
</g>
<!-- HasType&#45;3377577844511369682&#45;&gt;Op2&#45;2353521701394760001 -->
<g id="edge9" class="edge">
<title>HasType&#45;3377577844511369682:s&#45;&gt;Op2&#45;2353521701394760001</title>
<path fill="none" stroke="black" d="M162,-174C162,-165.92 196.8,-148.56 228.91,-134.26"/>
<polygon fill="black" stroke="black" points="229.17,-135.62 233.04,-132 227.76,-132.42 229.17,-135.62"/>
</g>
<!-- HasType&#45;3377577844511369682&#45;&gt;Bitvector&#45;5871781006564002453 -->
<g id="edge10" class="edge">
<title>HasType&#45;3377577844511369682:s&#45;&gt;Bitvector&#45;5871781006564002453</title>
<path fill="none" stroke="black" d="M195,-174C195,-160.06 189.83,-145.4 184.39,-133.83"/>
<polygon fill="black" stroke="black" points="187.41,-135.76 182.89,-133 184.7,-137.98 187.41,-135.76"/>
</g>
<!-- Var&#45;2308170335133184780 -->
<g id="node1" class="node">
<title>Var&#45;2308170335133184780</title>
<g id="a_node1"><a xlink:title="2: Var&#45;2308170335133184780">
<path fill="white" stroke="none" d="M43.67,-16C43.67,-16 134.33,-16 134.33,-16 139.67,-16 145,-21.33 145,-26.67 145,-26.67 145,-37.33 145,-37.33 145,-42.67 139.67,-48 134.33,-48 134.33,-48 43.67,-48 43.67,-48 38.33,-48 33,-42.67 33,-37.33 33,-37.33 33,-26.67 33,-26.67 33,-21.33 38.33,-16 43.67,-16"/>
<text text-anchor="start" x="38" y="-27.32" font-family="Helvetica,sans-Serif" font-size="14.00">Var(&quot;i_bit2&quot;, 1)</text>
<path fill="none" stroke="black" d="M43.67,-16C43.67,-16 134.33,-16 134.33,-16 139.67,-16 145,-21.33 145,-26.67 145,-26.67 145,-37.33 145,-37.33 145,-42.67 139.67,-48 134.33,-48 134.33,-48 43.67,-48 43.67,-48 38.33,-48 33,-42.67 33,-37.33 33,-37.33 33,-26.67 33,-26.67 33,-21.33 38.33,-16 43.67,-16"/>
</a>
</g>
</g>
<!-- Op2&#45;15660640694187950306 -->
<g id="node2" class="node">
<title>Op2&#45;15660640694187950306</title>
<g id="a_node2"><a xlink:title="1: Op2&#45;15660640694187950306">
<path fill="white" stroke="none" d="M24.67,-95C24.67,-95 103.33,-95 103.33,-95 108.67,-95 114,-100.33 114,-105.67 114,-105.67 114,-116.33 114,-116.33 114,-121.67 108.67,-127 103.33,-127 103.33,-127 24.67,-127 24.67,-127 19.33,-127 14,-121.67 14,-116.33 14,-116.33 14,-105.67 14,-105.67 14,-100.33 19.33,-95 24.67,-95"/>
<text text-anchor="start" x="18.62" y="-106.33" font-family="Helvetica,sans-Serif" font-size="14.00">Op2(Xor, 路, 路)</text>
<path fill="none" stroke="black" d="M24.67,-95C24.67,-95 103.33,-95 103.33,-95 108.67,-95 114,-100.33 114,-105.67 114,-105.67 114,-116.33 114,-116.33 114,-121.67 108.67,-127 103.33,-127 103.33,-127 24.67,-127 24.67,-127 19.33,-127 14,-121.67 14,-116.33 14,-116.33 14,-105.67 14,-105.67 14,-100.33 19.33,-95 24.67,-95"/>
</a>
</g>
</g>
<!-- Var&#45;18281649903904465246 -->
<g id="node3" class="node">
<title>Var&#45;18281649903904465246</title>
<g id="a_node3"><a xlink:title="3: Var&#45;18281649903904465246">
<path fill="white" stroke="none" d="M210.67,-16C210.67,-16 301.33,-16 301.33,-16 306.67,-16 312,-21.33 312,-26.67 312,-26.67 312,-37.33 312,-37.33 312,-42.67 306.67,-48 301.33,-48 301.33,-48 210.67,-48 210.67,-48 205.33,-48 200,-42.67 200,-37.33 200,-37.33 200,-26.67 200,-26.67 200,-21.33 205.33,-16 210.67,-16"/>
<text text-anchor="start" x="205" y="-27.32" font-family="Helvetica,sans-Serif" font-size="14.00">Var(&quot;i_bit1&quot;, 1)</text>
<path fill="none" stroke="black" d="M210.67,-16C210.67,-16 301.33,-16 301.33,-16 306.67,-16 312,-21.33 312,-26.67 312,-26.67 312,-37.33 312,-37.33 312,-42.67 306.67,-48 301.33,-48 301.33,-48 210.67,-48 210.67,-48 205.33,-48 200,-42.67 200,-37.33 200,-37.33 200,-26.67 200,-26.67 200,-21.33 205.33,-16 210.67,-16"/>
</a>
</g>
</g>
<!-- Op2&#45;2353521701394760001 -->
<g id="node4" class="node">
<title>Op2&#45;2353521701394760001</title>
<g id="a_node4"><a xlink:title="0: Op2&#45;2353521701394760001">
<path fill="white" stroke="none" d="M240.67,-95C240.67,-95 323.33,-95 323.33,-95 328.67,-95 334,-100.33 334,-105.67 334,-105.67 334,-116.33 334,-116.33 334,-121.67 328.67,-127 323.33,-127 323.33,-127 240.67,-127 240.67,-127 235.33,-127 230,-121.67 230,-116.33 230,-116.33 230,-105.67 230,-105.67 230,-100.33 235.33,-95 240.67,-95"/>
<text text-anchor="start" x="234.75" y="-106.33" font-family="Helvetica,sans-Serif" font-size="14.00">Op2(And, 路, 路)</text>
<path fill="none" stroke="black" d="M240.67,-95C240.67,-95 323.33,-95 323.33,-95 328.67,-95 334,-100.33 334,-105.67 334,-105.67 334,-116.33 334,-116.33 334,-121.67 328.67,-127 323.33,-127 323.33,-127 240.67,-127 240.67,-127 235.33,-127 230,-121.67 230,-116.33 230,-116.33 230,-105.67 230,-105.67 230,-100.33 235.33,-95 240.67,-95"/>
</a>
</g>
</g>
<!-- Bitvector&#45;5871781006564002453 -->
<g id="node5" class="node">
<title>Bitvector&#45;5871781006564002453</title>
<g id="a_node5"><a xlink:title="10: Bitvector&#45;5871781006564002453">
<path fill="white" stroke="none" d="M136.79,-95C136.79,-95 207.21,-95 207.21,-95 212.54,-95 217.88,-100.33 217.88,-105.67 217.88,-105.67 217.88,-116.33 217.88,-116.33 217.88,-121.67 212.54,-127 207.21,-127 207.21,-127 136.79,-127 136.79,-127 131.46,-127 126.12,-121.67 126.12,-116.33 126.12,-116.33 126.12,-105.67 126.12,-105.67 126.12,-100.33 131.46,-95 136.79,-95"/>
<text text-anchor="start" x="131.12" y="-106.33" font-family="Helvetica,sans-Serif" font-size="14.00">Bitvector(1)</text>
<path fill="none" stroke="black" d="M136.79,-95C136.79,-95 207.21,-95 207.21,-95 212.54,-95 217.88,-100.33 217.88,-105.67 217.88,-105.67 217.88,-116.33 217.88,-116.33 217.88,-121.67 212.54,-127 207.21,-127 207.21,-127 136.79,-127 136.79,-127 131.46,-127 126.12,-121.67 126.12,-116.33 126.12,-116.33 126.12,-105.67 126.12,-105.67 126.12,-100.33 131.46,-95 136.79,-95"/>
</a>
</g>
</g>
<!-- HasType&#45;5290151780539952054 -->
<g id="node6" class="node">
<title>HasType&#45;5290151780539952054</title>
<g id="a_node6"><a xlink:title="Unit&#45;0: HasType&#45;5290151780539952054">
<path fill="white" stroke="none" d="M85.17,-174C85.17,-174 130.83,-174 130.83,-174 136.17,-174 141.5,-179.33 141.5,-184.67 141.5,-184.67 141.5,-195.33 141.5,-195.33 141.5,-200.67 136.17,-206 130.83,-206 130.83,-206 85.17,-206 85.17,-206 79.83,-206 74.5,-200.67 74.5,-195.33 74.5,-195.33 74.5,-184.67 74.5,-184.67 74.5,-179.33 79.83,-174 85.17,-174"/>
<text text-anchor="start" x="79.12" y="-185.32" font-family="Helvetica,sans-Serif" font-size="14.00">HasType</text>
<path fill="none" stroke="black" d="M85.17,-174C85.17,-174 130.83,-174 130.83,-174 136.17,-174 141.5,-179.33 141.5,-184.67 141.5,-184.67 141.5,-195.33 141.5,-195.33 141.5,-200.67 136.17,-206 130.83,-206 130.83,-206 85.17,-206 85.17,-206 79.83,-206 74.5,-200.67 74.5,-195.33 74.5,-195.33 74.5,-184.67 74.5,-184.67 74.5,-179.33 79.83,-174 85.17,-174"/>
</a>
</g>
</g>
<!-- HasType&#45;17938027133241055492 -->
<g id="node7" class="node">
<title>HasType&#45;17938027133241055492</title>
<g id="a_node7"><a xlink:title="Unit&#45;0: HasType&#45;17938027133241055492">
<path fill="white" stroke="none" d="M227.17,-174C227.17,-174 272.83,-174 272.83,-174 278.17,-174 283.5,-179.33 283.5,-184.67 283.5,-184.67 283.5,-195.33 283.5,-195.33 283.5,-200.67 278.17,-206 272.83,-206 272.83,-206 227.17,-206 227.17,-206 221.83,-206 216.5,-200.67 216.5,-195.33 216.5,-195.33 216.5,-184.67 216.5,-184.67 216.5,-179.33 221.83,-174 227.17,-174"/>
<text text-anchor="start" x="221.12" y="-185.32" font-family="Helvetica,sans-Serif" font-size="14.00">HasType</text>
<path fill="none" stroke="black" d="M227.17,-174C227.17,-174 272.83,-174 272.83,-174 278.17,-174 283.5,-179.33 283.5,-184.67 283.5,-184.67 283.5,-195.33 283.5,-195.33 283.5,-200.67 278.17,-206 272.83,-206 272.83,-206 227.17,-206 227.17,-206 221.83,-206 216.5,-200.67 216.5,-195.33 216.5,-195.33 216.5,-184.67 216.5,-184.67 216.5,-179.33 221.83,-174 227.17,-174"/>
</a>
</g>
</g>
<!-- HasType&#45;3377577844511369682 -->
<g id="node8" class="node">
<title>HasType&#45;3377577844511369682</title>
<g id="a_node8"><a xlink:title="Unit&#45;0: HasType&#45;3377577844511369682">
<path fill="white" stroke="none" d="M156.17,-174C156.17,-174 201.83,-174 201.83,-174 207.17,-174 212.5,-179.33 212.5,-184.67 212.5,-184.67 212.5,-195.33 212.5,-195.33 212.5,-200.67 207.17,-206 201.83,-206 201.83,-206 156.17,-206 156.17,-206 150.83,-206 145.5,-200.67 145.5,-195.33 145.5,-195.33 145.5,-184.67 145.5,-184.67 145.5,-179.33 150.83,-174 156.17,-174"/>
<text text-anchor="start" x="150.12" y="-185.32" font-family="Helvetica,sans-Serif" font-size="14.00">HasType</text>
<path fill="none" stroke="black" d="M156.17,-174C156.17,-174 201.83,-174 201.83,-174 207.17,-174 212.5,-179.33 212.5,-184.67 212.5,-184.67 212.5,-195.33 212.5,-195.33 212.5,-200.67 207.17,-206 201.83,-206 201.83,-206 156.17,-206 156.17,-206 150.83,-206 145.5,-200.67 145.5,-195.33 145.5,-195.33 145.5,-184.67 145.5,-184.67 145.5,-179.33 150.83,-174 156.17,-174"/>
</a>
</g>
</g>
<!-- Unit&#45;0 -->
<g id="node9" class="node">
<title>Unit&#45;0</title>
<g id="a_node9"><a xlink:title="Unit&#45;0: Unit&#45;0">
<path fill="white" stroke="none" d="M37.67,-174C37.67,-174 48.33,-174 48.33,-174 53.67,-174 59,-179.33 59,-184.67 59,-184.67 59,-195.33 59,-195.33 59,-200.67 53.67,-206 48.33,-206 48.33,-206 37.67,-206 37.67,-206 32.33,-206 27,-200.67 27,-195.33 27,-195.33 27,-184.67 27,-184.67 27,-179.33 32.33,-174 37.67,-174"/>
<text text-anchor="start" x="37.75" y="-185.32" font-family="Helvetica,sans-Serif" font-size="14.00">()</text>
<path fill="none" stroke="black" d="M37.67,-174C37.67,-174 48.33,-174 48.33,-174 53.67,-174 59,-179.33 59,-184.67 59,-184.67 59,-195.33 59,-195.33 59,-200.67 53.67,-206 48.33,-206 48.33,-206 37.67,-206 37.67,-206 32.33,-206 27,-200.67 27,-195.33 27,-195.33 27,-184.67 27,-184.67 27,-179.33 32.33,-174 37.67,-174"/>
</a>
</g>
</g>
</g>
</svg>
