<?xml version="1.0" encoding="UTF-8" standalone="no"?>
<!DOCTYPE svg PUBLIC "-//W3C//DTD SVG 1.1//EN"
 "http://www.w3.org/Graphics/SVG/1.1/DTD/svg11.dtd">
<!-- Generated by graphviz version 9.0.0 (0)
 -->
<!-- Pages: 1 -->
<svg width="585pt" height="625pt"
 viewBox="0.00 0.00 585.00 625.00" xmlns="http://www.w3.org/2000/svg" xmlns:xlink="http://www.w3.org/1999/xlink">
<g id="graph0" class="graph" transform="scale(1 1) rotate(0) translate(4 621)">
<polygon fill="white" stroke="none" points="-4,4 -4,-621 581,-621 581,4 -4,4"/>
<g id="clust1" class="cluster">
<title>outer_cluster_20</title>
</g>
<g id="clust2" class="cluster">
<title>cluster_20</title>
<path fill="#ffffb3" stroke="black" stroke-dasharray="5,2" d="M426,-90C426,-90 532,-90 532,-90 538,-90 544,-96 544,-102 544,-102 544,-120 544,-120 544,-126 538,-132 532,-132 532,-132 426,-132 426,-132 420,-132 414,-126 414,-120 414,-120 414,-102 414,-102 414,-96 420,-90 426,-90"/>
</g>
<g id="clust4" class="cluster">
<title>outer_cluster_2</title>
</g>
<g id="clust5" class="cluster">
<title>cluster_2</title>
<path fill="#ffffb3" stroke="black" stroke-dasharray="5,2" d="M378,-248C378,-248 522,-248 522,-248 528,-248 534,-254 534,-260 534,-260 534,-278 534,-278 534,-284 528,-290 522,-290 522,-290 378,-290 378,-290 372,-290 366,-284 366,-278 366,-278 366,-260 366,-260 366,-254 372,-248 378,-248"/>
</g>
<g id="clust7" class="cluster">
<title>outer_cluster_4</title>
</g>
<g id="clust8" class="cluster">
<title>cluster_4</title>
<path fill="#ffffb3" stroke="black" stroke-dasharray="5,2" d="M244,-248C244,-248 332,-248 332,-248 338,-248 344,-254 344,-260 344,-260 344,-278 344,-278 344,-284 338,-290 332,-290 332,-290 244,-290 244,-290 238,-290 232,-284 232,-278 232,-278 232,-260 232,-260 232,-254 238,-248 244,-248"/>
</g>
<g id="clust10" class="cluster">
<title>outer_cluster_5</title>
</g>
<g id="clust11" class="cluster">
<title>cluster_5</title>
<path fill="#ffffb3" stroke="black" stroke-dasharray="5,2" d="M241,-485C241,-485 385,-485 385,-485 391,-485 397,-491 397,-497 397,-497 397,-515 397,-515 397,-521 391,-527 385,-527 385,-527 241,-527 241,-527 235,-527 229,-521 229,-515 229,-515 229,-497 229,-497 229,-491 235,-485 241,-485"/>
</g>
<g id="clust13" class="cluster">
<title>outer_cluster_1</title>
</g>
<g id="clust14" class="cluster">
<title>cluster_1</title>
<path fill="#ffffb3" stroke="black" stroke-dasharray="5,2" d="M460,-11C460,-11 554,-11 554,-11 560,-11 566,-17 566,-23 566,-23 566,-41 566,-41 566,-47 560,-53 554,-53 554,-53 460,-53 460,-53 454,-53 448,-47 448,-41 448,-41 448,-23 448,-23 448,-17 454,-11 460,-11"/>
</g>
<g id="clust16" class="cluster">
<title>outer_cluster_27</title>
</g>
<g id="clust17" class="cluster">
<title>cluster_27</title>
<path fill="#ffffb3" stroke="black" stroke-dasharray="5,2" d="M156,-406C156,-406 308,-406 308,-406 314,-406 320,-412 320,-418 320,-418 320,-436 320,-436 320,-442 314,-448 308,-448 308,-448 156,-448 156,-448 150,-448 144,-442 144,-436 144,-436 144,-418 144,-418 144,-412 150,-406 156,-406"/>
</g>
<g id="clust19" class="cluster">
<title>outer_cluster_0</title>
</g>
<g id="clust20" class="cluster">
<title>cluster_0</title>
<path fill="#ffffb3" stroke="black" stroke-dasharray="5,2" d="M336,-11C336,-11 430,-11 430,-11 436,-11 442,-17 442,-23 442,-23 442,-41 442,-41 442,-47 436,-53 430,-53 430,-53 336,-53 336,-53 330,-53 324,-47 324,-41 324,-41 324,-23 324,-23 324,-17 330,-11 336,-11"/>
</g>
<g id="clust22" class="cluster">
<title>outer_cluster_21</title>
</g>
<g id="clust23" class="cluster">
<title>cluster_21</title>
<path fill="#ffffb3" stroke="black" stroke-dasharray="5,2" d="M167,-169C167,-169 319,-169 319,-169 325,-169 331,-175 331,-181 331,-181 331,-199 331,-199 331,-205 325,-211 319,-211 319,-211 167,-211 167,-211 161,-211 155,-205 155,-199 155,-199 155,-181 155,-181 155,-175 161,-169 167,-169"/>
</g>
<g id="clust25" class="cluster">
<title>outer_cluster_6</title>
</g>
<g id="clust26" class="cluster">
<title>cluster_6</title>
<path fill="#ffffb3" stroke="black" stroke-dasharray="5,2" d="M48,-485C48,-485 188,-485 188,-485 194,-485 200,-491 200,-497 200,-497 200,-515 200,-515 200,-521 194,-527 188,-527 188,-527 48,-527 48,-527 42,-527 36,-521 36,-515 36,-515 36,-497 36,-497 36,-491 42,-485 48,-485"/>
</g>
<g id="clust28" class="cluster">
<title>outer_cluster_26</title>
</g>
<g id="clust29" class="cluster">
<title>cluster_26</title>
<path fill="#ffffb3" stroke="black" stroke-dasharray="5,2" d="M156,-327C156,-327 262,-327 262,-327 268,-327 274,-333 274,-339 274,-339 274,-357 274,-357 274,-363 268,-369 262,-369 262,-369 156,-369 156,-369 150,-369 144,-363 144,-357 144,-357 144,-339 144,-339 144,-333 150,-327 156,-327"/>
</g>
<g id="clust31" class="cluster">
<title>outer_cluster_7</title>
</g>
<g id="clust32" class="cluster">
<title>cluster_7</title>
<path fill="#ffffb3" stroke="black" stroke-dasharray="5,2" d="M325,-564C325,-564 401,-564 401,-564 407,-564 413,-570 413,-576 413,-576 413,-594 413,-594 413,-600 407,-606 401,-606 401,-606 325,-606 325,-606 319,-606 313,-600 313,-594 313,-594 313,-576 313,-576 313,-570 319,-564 325,-564"/>
</g>
<g id="clust34" class="cluster">
<title>outer_cluster_3</title>
</g>
<g id="clust35" class="cluster">
<title>cluster_3</title>
<path fill="#ffffb3" stroke="black" stroke-dasharray="5,2" d="M74,-248C74,-248 214,-248 214,-248 220,-248 226,-254 226,-260 226,-260 226,-278 226,-278 226,-284 220,-290 214,-290 214,-290 74,-290 74,-290 68,-290 62,-284 62,-278 62,-278 62,-260 62,-260 62,-254 68,-248 74,-248"/>
</g>
<g id="clust37" class="cluster">
<title>outer_cluster_22</title>
</g>
<g id="clust38" class="cluster">
<title>cluster_22</title>
<path fill="#bebada" stroke="black" stroke-dasharray="5,2" d="M23,-169C23,-169 103,-169 103,-169 109,-169 115,-175 115,-181 115,-181 115,-199 115,-199 115,-205 109,-211 103,-211 103,-211 23,-211 23,-211 17,-211 11,-205 11,-199 11,-199 11,-181 11,-181 11,-175 17,-169 23,-169"/>
</g>
<g id="clust40" class="cluster">
<title>outer_cluster_24</title>
</g>
<g id="clust41" class="cluster">
<title>cluster_24</title>
<path fill="#bebada" stroke="black" stroke-dasharray="5,2" d="M349,-169C349,-169 429,-169 429,-169 435,-169 441,-175 441,-181 441,-181 441,-199 441,-199 441,-205 435,-211 429,-211 429,-211 349,-211 349,-211 343,-211 337,-205 337,-199 337,-199 337,-181 337,-181 337,-175 343,-169 349,-169"/>
</g>
<!-- Op2&#45;3874777151281038672&#45;&gt;Var&#45;1747479766223496002 -->
<g id="edge1" class="edge">
<title>Op2&#45;3874777151281038672:s&#45;&gt;Var&#45;1747479766223496002</title>
<path fill="none" stroke="black" d="M448,-95C448,-78.34 459.32,-64.38 472.04,-53.95"/>
<polygon fill="black" stroke="black" points="468.93,-57.27 472.77,-53.62 467.5,-54.08 468.93,-57.27"/>
</g>
<!-- Op2&#45;3874777151281038672&#45;&gt;Var&#45;791192798209204816 -->
<g id="edge2" class="edge">
<title>Op2&#45;3874777151281038672:s&#45;&gt;Var&#45;791192798209204816</title>
<path fill="none" stroke="black" d="M510,-95C510,-86.62 473.85,-69.53 440.12,-55.42"/>
<polygon fill="black" stroke="black" points="440.98,-53.88 435.7,-53.58 439.64,-57.11 440.98,-53.88"/>
</g>
<!-- Op2&#45;11669170575846068978&#45;&gt;Var&#45;1747479766223496002 -->
<g id="edge4" class="edge">
<title>Op2&#45;11669170575846068978:s&#45;&gt;Var&#45;1747479766223496002</title>
<path fill="none" stroke="black" d="M505,-253C505,-177.11 567.91,-159.35 545,-87 541.32,-75.38 534.14,-64.1 527.01,-54.88"/>
<polygon fill="black" stroke="black" points="530.97,-56.28 526.16,-54.05 528.53,-58.79 530.97,-56.28"/>
</g>
<!-- Op2&#45;11669170575846068978&#45;&gt;Var&#45;791192798209204816 -->
<g id="edge3" class="edge">
<title>Op2&#45;11669170575846068978:s&#45;&gt;Var&#45;791192798209204816</title>
<path fill="none" stroke="black" d="M453,-253C453,-214.03 458.56,-201.28 442,-166 433.98,-148.92 422.36,-151.38 413,-135 398.73,-110.02 390.71,-77.64 386.63,-56.14"/>
<polygon fill="black" stroke="black" points="389.36,-58.52 386,-54.42 386.07,-59.72 389.36,-58.52"/>
</g>
<!-- Op1&#45;3101032191762773397&#45;&gt;Extract&#45;7784354942592584825 -->
<g id="edge5" class="edge">
<title>Op1&#45;3101032191762773397:s&#45;&gt;Extract&#45;7784354942592584825</title>
<path fill="none" stroke="black" d="M386,-253C386,-240.09 386.66,-225.68 387.36,-214.01"/>
<polygon fill="black" stroke="black" points="388.65,-217.68 387.55,-212.5 385.17,-217.24 388.65,-217.68"/>
</g>
<!-- Op1&#45;3101032191762773397&#45;&gt;Module&#45;15561416475755412481 -->
<g id="edge6" class="edge">
<title>Op1&#45;3101032191762773397:s&#45;&gt;Module&#45;15561416475755412481</title>
<path fill="none" stroke="black" d="M405,-253C405,-242.89 360.45,-226.34 318.08,-212.87"/>
<polygon fill="black" stroke="black" points="318.85,-211.28 313.56,-211.45 317.8,-214.62 318.85,-211.28"/>
</g>
<!-- Module&#45;15561416475755412481&#45;&gt;Op2&#45;3874777151281038672 -->
<g id="edge12" class="edge">
<title>Module&#45;15561416475755412481:s&#45;&gt;Op2&#45;3874777151281038672</title>
<path fill="none" stroke="black" d="M243,-174C243,-139 341.35,-123.35 411.07,-116.65"/>
<polygon fill="black" stroke="black" points="407.95,-119.06 412.52,-116.37 407.27,-115.62 407.95,-119.06"/>
</g>
<!-- Op1&#45;11518989988820601275&#45;&gt;Extract&#45;7784354942592584825 -->
<g id="edge7" class="edge">
<title>Op1&#45;11518989988820601275:s&#45;&gt;Extract&#45;7784354942592584825</title>
<path fill="none" stroke="black" d="M357,-490C357,-381.05 340.65,-351.19 365,-245 367.47,-234.23 372.11,-222.97 376.65,-213.54"/>
<polygon fill="black" stroke="black" points="376.11,-217.33 377.57,-212.24 373.26,-215.3 376.11,-217.33"/>
</g>
<!-- Op1&#45;11518989988820601275&#45;&gt;Module&#45;12183838631244042799 -->
<g id="edge8" class="edge">
<title>Op1&#45;11518989988820601275:s&#45;&gt;Module&#45;12183838631244042799</title>
<path fill="none" stroke="black" d="M376,-490C376,-474.59 347.82,-460.68 316.4,-449.96"/>
<polygon fill="black" stroke="black" points="317.23,-448.39 311.94,-448.47 316.13,-451.71 317.23,-448.39"/>
</g>
<!-- Module&#45;12183838631244042799&#45;&gt;Op2&#45;15764163735520152128 -->
<g id="edge11" class="edge">
<title>Module&#45;12183838631244042799:s&#45;&gt;Op2&#45;15764163735520152128</title>
<path fill="none" stroke="black" d="M232,-411C232,-397.31 227.01,-382.93 221.68,-371.46"/>
<polygon fill="black" stroke="black" points="225.14,-373.23 220.78,-370.22 222.31,-375.3 225.14,-373.23"/>
</g>
<!-- Op2&#45;4530183860351580419&#45;&gt;Var&#45;3454962093270020001 -->
<g id="edge9" class="edge">
<title>Op2&#45;4530183860351580419:s&#45;&gt;Var&#45;3454962093270020001</title>
<path fill="none" stroke="black" d="M258,-490C258,-457.07 304.97,-479.77 321,-451 349.7,-399.48 319.84,-328.13 300.96,-292.35"/>
<polygon fill="black" stroke="black" points="304.51,-293.93 299.99,-291.17 301.81,-296.15 304.51,-293.93"/>
</g>
<!-- Op2&#45;4530183860351580419&#45;&gt;Op2&#45;1099404310919387869 -->
<g id="edge10" class="edge">
<title>Op2&#45;4530183860351580419:s&#45;&gt;Op2&#45;1099404310919387869</title>
<path fill="none" stroke="black" d="M310,-490C310,-413.78 190.37,-510.71 143,-451 107.92,-406.78 128.84,-378.64 143,-324 145.92,-312.72 151.77,-301.28 157.53,-291.86"/>
<polygon fill="black" stroke="black" points="156.46,-296.29 158,-291.22 153.63,-294.22 156.46,-296.29"/>
</g>
<!-- Op2&#45;1099404310919387869&#45;&gt;Var&#45;1747479766223496002 -->
<g id="edge22" class="edge">
<title>Op2&#45;1099404310919387869:s&#45;&gt;Var&#45;1747479766223496002</title>
<path fill="none" stroke="black" d="M198,-253C198,-226.87 164.72,-237.83 154,-214 145.25,-194.55 141.86,-183.54 154,-166 158.37,-159.69 345.69,-91.28 445.63,-55.12"/>
<polygon fill="black" stroke="black" points="445.97,-56.86 450.07,-53.51 444.78,-53.57 445.97,-56.86"/>
</g>
<!-- Op2&#45;1099404310919387869&#45;&gt;Var&#45;791192798209204816 -->
<g id="edge21" class="edge">
<title>Op2&#45;1099404310919387869:s&#45;&gt;Var&#45;791192798209204816</title>
<path fill="none" stroke="black" d="M148,-253C148,-235.52 144.11,-231.44 143,-214 139.4,-157.67 107.74,-131.08 143,-87 164.86,-59.67 257.08,-45.21 320.62,-38.33"/>
<polygon fill="black" stroke="black" points="317.96,-40.65 322.52,-37.95 317.27,-37.22 317.96,-40.65"/>
</g>
<!-- Op2&#45;15764163735520152128&#45;&gt;Var&#45;3454962093270020001 -->
<g id="edge18" class="edge">
<title>Op2&#45;15764163735520152128:s&#45;&gt;Var&#45;3454962093270020001</title>
<path fill="none" stroke="black" d="M240,-332C240,-316.28 249.77,-302.12 260.5,-291.32"/>
<polygon fill="black" stroke="black" points="258.16,-295.46 260.95,-290.95 255.96,-292.74 258.16,-295.46"/>
</g>
<!-- Op2&#45;15764163735520152128&#45;&gt;Op2&#45;1099404310919387869 -->
<g id="edge17" class="edge">
<title>Op2&#45;15764163735520152128:s&#45;&gt;Op2&#45;1099404310919387869</title>
<path fill="none" stroke="black" d="M178,-332C178,-319.06 176.9,-304.65 175.74,-292.99"/>
<polygon fill="black" stroke="black" points="178.18,-295.99 175.41,-291.48 174.76,-296.74 178.18,-295.99"/>
</g>
<!-- Op2&#45;12447369924942790367&#45;&gt;Var&#45;3454962093270020001 -->
<g id="edge13" class="edge">
<title>Op2&#45;12447369924942790367:s&#45;&gt;Var&#45;3454962093270020001</title>
<path fill="none" stroke="black" d="M122,-490C122,-450.22 114.79,-431.04 143,-403 185.74,-360.52 234.66,-416.77 275,-372 294.14,-350.76 294.42,-316.16 291.94,-293.24"/>
<polygon fill="black" stroke="black" points="294.4,-295.91 291.51,-291.47 291,-296.74 294.4,-295.91"/>
</g>
<!-- Op2&#45;12447369924942790367&#45;&gt;Op1&#45;14698769633779669753 -->
<g id="edge14" class="edge">
<title>Op2&#45;12447369924942790367:s&#45;&gt;Op1&#45;14698769633779669753</title>
<path fill="none" stroke="black" d="M172,-490C172,-461.47 135.63,-475.5 121,-451 91.04,-400.84 89.14,-329.55 90.46,-293.22"/>
<polygon fill="black" stroke="black" points="91.92,-296.64 90.6,-291.51 88.43,-296.34 91.92,-296.64"/>
</g>
<!-- Op1&#45;14698769633779669753&#45;&gt;Module&#45;15561416475755412481 -->
<g id="edge24" class="edge">
<title>Op1&#45;14698769633779669753:s&#45;&gt;Module&#45;15561416475755412481</title>
<path fill="none" stroke="black" d="M101,-253C101,-224.87 124.69,-209.38 152.72,-200.89"/>
<polygon fill="black" stroke="black" points="149.3,-203.78 153.55,-200.63 148.26,-200.44 149.3,-203.78"/>
</g>
<!-- Op1&#45;14698769633779669753&#45;&gt;Extract&#45;956286968014291186 -->
<g id="edge23" class="edge">
<title>Op1&#45;14698769633779669753:s&#45;&gt;Extract&#45;956286968014291186</title>
<path fill="none" stroke="black" d="M82,-253C82,-239.58 77.88,-225.21 73.48,-213.69"/>
<polygon fill="black" stroke="black" points="76.59,-216.09 72.83,-212.36 73.44,-217.62 76.59,-216.09"/>
</g>
<!-- Op1&#45;13035967525744581239&#45;&gt;Module&#45;12183838631244042799 -->
<g id="edge16" class="edge">
<title>Op1&#45;13035967525744581239:s&#45;&gt;Module&#45;12183838631244042799</title>
<path fill="none" stroke="black" d="M75,-490C75,-456.34 106.6,-440.4 141.45,-433.06"/>
<polygon fill="black" stroke="black" points="138.84,-436.21 142.63,-432.51 137.36,-433.04 138.84,-436.21"/>
</g>
<!-- Op1&#45;13035967525744581239&#45;&gt;Extract&#45;956286968014291186 -->
<g id="edge15" class="edge">
<title>Op1&#45;13035967525744581239:s&#45;&gt;Extract&#45;956286968014291186</title>
<path fill="none" stroke="black" d="M56,-490C56,-387.14 60.19,-264.42 62.09,-214.18"/>
<polygon fill="black" stroke="black" points="63.58,-217.63 62.21,-212.51 60.09,-217.36 63.58,-217.63"/>
</g>
<!-- Op2&#45;16463693734372638882&#45;&gt;Op2&#45;11669170575846068978 -->
<g id="edge19" class="edge">
<title>Op2&#45;16463693734372638882:s&#45;&gt;Op2&#45;11669170575846068978</title>
<path fill="none" stroke="black" d="M340,-569C340,-537.94 379.44,-554.91 398,-530 453.58,-455.41 471.57,-341.9 476.92,-293.35"/>
<polygon fill="black" stroke="black" points="478.03,-296.73 477.3,-291.48 474.6,-296.04 478.03,-296.73"/>
</g>
<!-- Op2&#45;16463693734372638882&#45;&gt;Op2&#45;4530183860351580419 -->
<g id="edge20" class="edge">
<title>Op2&#45;16463693734372638882:s&#45;&gt;Op2&#45;4530183860351580419</title>
<path fill="none" stroke="black" d="M386,-569C386,-556.36 362.85,-541.7 338.61,-529.8"/>
<polygon fill="black" stroke="black" points="339.4,-528.24 334.14,-527.65 337.89,-531.39 339.4,-528.24"/>
</g>
<!-- Op2&#45;3874777151281038672 -->
<g id="node1" class="node">
<title>Op2&#45;3874777151281038672</title>
<g id="a_node1"><a xlink:title="20: Op2&#45;3874777151281038672">
<path fill="white" stroke="none" d="M427.67,-95C427.67,-95 530.33,-95 530.33,-95 535.67,-95 541,-100.33 541,-105.67 541,-105.67 541,-116.33 541,-116.33 541,-121.67 535.67,-127 530.33,-127 530.33,-127 427.67,-127 427.67,-127 422.33,-127 417,-121.67 417,-116.33 417,-116.33 417,-105.67 417,-105.67 417,-100.33 422.33,-95 427.67,-95"/>
<text text-anchor="start" x="421.62" y="-106.33" font-family="Helvetica,sans-Serif" font-size="14.00">Op2(Concat, ·, ·)</text>
<path fill="none" stroke="black" d="M427.67,-95C427.67,-95 530.33,-95 530.33,-95 535.67,-95 541,-100.33 541,-105.67 541,-105.67 541,-116.33 541,-116.33 541,-121.67 535.67,-127 530.33,-127 530.33,-127 427.67,-127 427.67,-127 422.33,-127 417,-121.67 417,-116.33 417,-116.33 417,-105.67 417,-105.67 417,-100.33 422.33,-95 427.67,-95"/>
</a>
</g>
</g>
<!-- Var&#45;1747479766223496002 -->
<g id="node2" class="node">
<title>Var&#45;1747479766223496002</title>
<g id="a_node2"><a xlink:title="1: Var&#45;1747479766223496002">
<path fill="white" stroke="none" d="M461.67,-16C461.67,-16 552.33,-16 552.33,-16 557.67,-16 563,-21.33 563,-26.67 563,-26.67 563,-37.33 563,-37.33 563,-42.67 557.67,-48 552.33,-48 552.33,-48 461.67,-48 461.67,-48 456.33,-48 451,-42.67 451,-37.33 451,-37.33 451,-26.67 451,-26.67 451,-21.33 456.33,-16 461.67,-16"/>
<text text-anchor="start" x="456" y="-27.32" font-family="Helvetica,sans-Serif" font-size="14.00">Var(&quot;i_bit2&quot;, 1)</text>
<path fill="none" stroke="black" d="M461.67,-16C461.67,-16 552.33,-16 552.33,-16 557.67,-16 563,-21.33 563,-26.67 563,-26.67 563,-37.33 563,-37.33 563,-42.67 557.67,-48 552.33,-48 552.33,-48 461.67,-48 461.67,-48 456.33,-48 451,-42.67 451,-37.33 451,-37.33 451,-26.67 451,-26.67 451,-21.33 456.33,-16 461.67,-16"/>
</a>
</g>
</g>
<!-- Var&#45;791192798209204816 -->
<g id="node3" class="node">
<title>Var&#45;791192798209204816</title>
<g id="a_node3"><a xlink:title="0: Var&#45;791192798209204816">
<path fill="white" stroke="none" d="M337.67,-16C337.67,-16 428.33,-16 428.33,-16 433.67,-16 439,-21.33 439,-26.67 439,-26.67 439,-37.33 439,-37.33 439,-42.67 433.67,-48 428.33,-48 428.33,-48 337.67,-48 337.67,-48 332.33,-48 327,-42.67 327,-37.33 327,-37.33 327,-26.67 327,-26.67 327,-21.33 332.33,-16 337.67,-16"/>
<text text-anchor="start" x="332" y="-27.32" font-family="Helvetica,sans-Serif" font-size="14.00">Var(&quot;i_bit1&quot;, 1)</text>
<path fill="none" stroke="black" d="M337.67,-16C337.67,-16 428.33,-16 428.33,-16 433.67,-16 439,-21.33 439,-26.67 439,-26.67 439,-37.33 439,-37.33 439,-42.67 433.67,-48 428.33,-48 428.33,-48 337.67,-48 337.67,-48 332.33,-48 327,-42.67 327,-37.33 327,-37.33 327,-26.67 327,-26.67 327,-21.33 332.33,-16 337.67,-16"/>
</a>
</g>
</g>
<!-- Op2&#45;11669170575846068978 -->
<g id="node4" class="node">
<title>Op2&#45;11669170575846068978</title>
<g id="a_node4"><a xlink:title="2: Op2&#45;11669170575846068978">
<path fill="white" stroke="none" d="M437.67,-253C437.67,-253 520.33,-253 520.33,-253 525.67,-253 531,-258.33 531,-263.67 531,-263.67 531,-274.33 531,-274.33 531,-279.67 525.67,-285 520.33,-285 520.33,-285 437.67,-285 437.67,-285 432.33,-285 427,-279.67 427,-274.33 427,-274.33 427,-263.67 427,-263.67 427,-258.33 432.33,-253 437.67,-253"/>
<text text-anchor="start" x="431.75" y="-264.32" font-family="Helvetica,sans-Serif" font-size="14.00">Op2(And, ·, ·)</text>
<path fill="none" stroke="black" d="M437.67,-253C437.67,-253 520.33,-253 520.33,-253 525.67,-253 531,-258.33 531,-263.67 531,-263.67 531,-274.33 531,-274.33 531,-279.67 525.67,-285 520.33,-285 520.33,-285 437.67,-285 437.67,-285 432.33,-285 427,-279.67 427,-274.33 427,-274.33 427,-263.67 427,-263.67 427,-258.33 432.33,-253 437.67,-253"/>
</a>
</g>
</g>
<!-- Op1&#45;3101032191762773397 -->
<g id="node5" class="node">
<title>Op1&#45;3101032191762773397</title>
<g id="a_node5"><a xlink:title="2: Op1&#45;3101032191762773397">
<path fill="white" stroke="none" d="M387.17,-253C387.17,-253 404.83,-253 404.83,-253 410.17,-253 415.5,-258.33 415.5,-263.67 415.5,-263.67 415.5,-274.33 415.5,-274.33 415.5,-279.67 410.17,-285 404.83,-285 404.83,-285 387.17,-285 387.17,-285 381.83,-285 376.5,-279.67 376.5,-274.33 376.5,-274.33 376.5,-263.67 376.5,-263.67 376.5,-258.33 381.83,-253 387.17,-253"/>
<text text-anchor="start" x="381.38" y="-264.32" font-family="Helvetica,sans-Serif" font-size="14.00">Op1</text>
<path fill="none" stroke="black" d="M387.17,-253C387.17,-253 404.83,-253 404.83,-253 410.17,-253 415.5,-258.33 415.5,-263.67 415.5,-263.67 415.5,-274.33 415.5,-274.33 415.5,-279.67 410.17,-285 404.83,-285 404.83,-285 387.17,-285 387.17,-285 381.83,-285 376.5,-279.67 376.5,-274.33 376.5,-274.33 376.5,-263.67 376.5,-263.67 376.5,-258.33 381.83,-253 387.17,-253"/>
</a>
</g>
</g>
<!-- Extract&#45;7784354942592584825 -->
<g id="node6" class="node">
<title>Extract&#45;7784354942592584825</title>
<g id="a_node6"><a xlink:title="24: Extract&#45;7784354942592584825">
<path fill="white" stroke="none" d="M351.17,-174C351.17,-174 426.83,-174 426.83,-174 432.17,-174 437.5,-179.33 437.5,-184.67 437.5,-184.67 437.5,-195.33 437.5,-195.33 437.5,-200.67 432.17,-206 426.83,-206 426.83,-206 351.17,-206 351.17,-206 345.83,-206 340.5,-200.67 340.5,-195.33 340.5,-195.33 340.5,-184.67 340.5,-184.67 340.5,-179.33 345.83,-174 351.17,-174"/>
<text text-anchor="start" x="345.5" y="-185.32" font-family="Helvetica,sans-Serif" font-size="14.00">Extract(2, 1)</text>
<path fill="none" stroke="black" d="M351.17,-174C351.17,-174 426.83,-174 426.83,-174 432.17,-174 437.5,-179.33 437.5,-184.67 437.5,-184.67 437.5,-195.33 437.5,-195.33 437.5,-200.67 432.17,-206 426.83,-206 426.83,-206 351.17,-206 351.17,-206 345.83,-206 340.5,-200.67 340.5,-195.33 340.5,-195.33 340.5,-184.67 340.5,-184.67 340.5,-179.33 345.83,-174 351.17,-174"/>
</a>
</g>
</g>
<!-- Module&#45;15561416475755412481 -->
<g id="node7" class="node">
<title>Module&#45;15561416475755412481</title>
<g id="a_node7"><a xlink:title="21: Module&#45;15561416475755412481">
<path fill="white" stroke="none" d="M169.17,-174C169.17,-174 316.83,-174 316.83,-174 322.17,-174 327.5,-179.33 327.5,-184.67 327.5,-184.67 327.5,-195.33 327.5,-195.33 327.5,-200.67 322.17,-206 316.83,-206 316.83,-206 169.17,-206 169.17,-206 163.83,-206 158.5,-200.67 158.5,-195.33 158.5,-195.33 158.5,-184.67 158.5,-184.67 158.5,-179.33 163.83,-174 169.17,-174"/>
<text text-anchor="start" x="163.5" y="-185.32" font-family="Helvetica,sans-Serif" font-size="14.00">Module(&quot;half&#45;adder&quot;, ·)</text>
<path fill="none" stroke="black" d="M169.17,-174C169.17,-174 316.83,-174 316.83,-174 322.17,-174 327.5,-179.33 327.5,-184.67 327.5,-184.67 327.5,-195.33 327.5,-195.33 327.5,-200.67 322.17,-206 316.83,-206 316.83,-206 169.17,-206 169.17,-206 163.83,-206 158.5,-200.67 158.5,-195.33 158.5,-195.33 158.5,-184.67 158.5,-184.67 158.5,-179.33 163.83,-174 169.17,-174"/>
</a>
</g>
</g>
<!-- Var&#45;3454962093270020001 -->
<g id="node8" class="node">
<title>Var&#45;3454962093270020001</title>
<g id="a_node8"><a xlink:title="4: Var&#45;3454962093270020001">
<path fill="white" stroke="none" d="M246.04,-253C246.04,-253 329.96,-253 329.96,-253 335.29,-253 340.62,-258.33 340.62,-263.67 340.62,-263.67 340.62,-274.33 340.62,-274.33 340.62,-279.67 335.29,-285 329.96,-285 329.96,-285 246.04,-285 246.04,-285 240.71,-285 235.38,-279.67 235.38,-274.33 235.38,-274.33 235.38,-263.67 235.38,-263.67 235.38,-258.33 240.71,-253 246.04,-253"/>
<text text-anchor="start" x="240.38" y="-264.32" font-family="Helvetica,sans-Serif" font-size="14.00">Var(&quot;i_cin&quot;, 1)</text>
<path fill="none" stroke="black" d="M246.04,-253C246.04,-253 329.96,-253 329.96,-253 335.29,-253 340.62,-258.33 340.62,-263.67 340.62,-263.67 340.62,-274.33 340.62,-274.33 340.62,-279.67 335.29,-285 329.96,-285 329.96,-285 246.04,-285 246.04,-285 240.71,-285 235.38,-279.67 235.38,-274.33 235.38,-274.33 235.38,-263.67 235.38,-263.67 235.38,-258.33 240.71,-253 246.04,-253"/>
</a>
</g>
</g>
<!-- Op1&#45;11518989988820601275 -->
<g id="node9" class="node">
<title>Op1&#45;11518989988820601275</title>
<g id="a_node9"><a xlink:title="5: Op1&#45;11518989988820601275">
<path fill="white" stroke="none" d="M358.17,-490C358.17,-490 375.83,-490 375.83,-490 381.17,-490 386.5,-495.33 386.5,-500.67 386.5,-500.67 386.5,-511.33 386.5,-511.33 386.5,-516.67 381.17,-522 375.83,-522 375.83,-522 358.17,-522 358.17,-522 352.83,-522 347.5,-516.67 347.5,-511.33 347.5,-511.33 347.5,-500.67 347.5,-500.67 347.5,-495.33 352.83,-490 358.17,-490"/>
<text text-anchor="start" x="352.38" y="-501.32" font-family="Helvetica,sans-Serif" font-size="14.00">Op1</text>
<path fill="none" stroke="black" d="M358.17,-490C358.17,-490 375.83,-490 375.83,-490 381.17,-490 386.5,-495.33 386.5,-500.67 386.5,-500.67 386.5,-511.33 386.5,-511.33 386.5,-516.67 381.17,-522 375.83,-522 375.83,-522 358.17,-522 358.17,-522 352.83,-522 347.5,-516.67 347.5,-511.33 347.5,-511.33 347.5,-500.67 347.5,-500.67 347.5,-495.33 352.83,-490 358.17,-490"/>
</a>
</g>
</g>
<!-- Module&#45;12183838631244042799 -->
<g id="node10" class="node">
<title>Module&#45;12183838631244042799</title>
<g id="a_node10"><a xlink:title="27: Module&#45;12183838631244042799">
<path fill="white" stroke="none" d="M158.17,-411C158.17,-411 305.83,-411 305.83,-411 311.17,-411 316.5,-416.33 316.5,-421.67 316.5,-421.67 316.5,-432.33 316.5,-432.33 316.5,-437.67 311.17,-443 305.83,-443 305.83,-443 158.17,-443 158.17,-443 152.83,-443 147.5,-437.67 147.5,-432.33 147.5,-432.33 147.5,-421.67 147.5,-421.67 147.5,-416.33 152.83,-411 158.17,-411"/>
<text text-anchor="start" x="152.5" y="-422.32" font-family="Helvetica,sans-Serif" font-size="14.00">Module(&quot;half&#45;adder&quot;, ·)</text>
<path fill="none" stroke="black" d="M158.17,-411C158.17,-411 305.83,-411 305.83,-411 311.17,-411 316.5,-416.33 316.5,-421.67 316.5,-421.67 316.5,-432.33 316.5,-432.33 316.5,-437.67 311.17,-443 305.83,-443 305.83,-443 158.17,-443 158.17,-443 152.83,-443 147.5,-437.67 147.5,-432.33 147.5,-432.33 147.5,-421.67 147.5,-421.67 147.5,-416.33 152.83,-411 158.17,-411"/>
</a>
</g>
</g>
<!-- Op2&#45;4530183860351580419 -->
<g id="node11" class="node">
<title>Op2&#45;4530183860351580419</title>
<g id="a_node11"><a xlink:title="5: Op2&#45;4530183860351580419">
<path fill="white" stroke="none" d="M242.67,-490C242.67,-490 325.33,-490 325.33,-490 330.67,-490 336,-495.33 336,-500.67 336,-500.67 336,-511.33 336,-511.33 336,-516.67 330.67,-522 325.33,-522 325.33,-522 242.67,-522 242.67,-522 237.33,-522 232,-516.67 232,-511.33 232,-511.33 232,-500.67 232,-500.67 232,-495.33 237.33,-490 242.67,-490"/>
<text text-anchor="start" x="236.75" y="-501.32" font-family="Helvetica,sans-Serif" font-size="14.00">Op2(And, ·, ·)</text>
<path fill="none" stroke="black" d="M242.67,-490C242.67,-490 325.33,-490 325.33,-490 330.67,-490 336,-495.33 336,-500.67 336,-500.67 336,-511.33 336,-511.33 336,-516.67 330.67,-522 325.33,-522 325.33,-522 242.67,-522 242.67,-522 237.33,-522 232,-516.67 232,-511.33 232,-511.33 232,-500.67 232,-500.67 232,-495.33 237.33,-490 242.67,-490"/>
</a>
</g>
</g>
<!-- Op2&#45;1099404310919387869 -->
<g id="node12" class="node">
<title>Op2&#45;1099404310919387869</title>
<g id="a_node12"><a xlink:title="3: Op2&#45;1099404310919387869">
<path fill="white" stroke="none" d="M133.67,-253C133.67,-253 212.33,-253 212.33,-253 217.67,-253 223,-258.33 223,-263.67 223,-263.67 223,-274.33 223,-274.33 223,-279.67 217.67,-285 212.33,-285 212.33,-285 133.67,-285 133.67,-285 128.33,-285 123,-279.67 123,-274.33 123,-274.33 123,-263.67 123,-263.67 123,-258.33 128.33,-253 133.67,-253"/>
<text text-anchor="start" x="127.62" y="-264.32" font-family="Helvetica,sans-Serif" font-size="14.00">Op2(Xor, ·, ·)</text>
<path fill="none" stroke="black" d="M133.67,-253C133.67,-253 212.33,-253 212.33,-253 217.67,-253 223,-258.33 223,-263.67 223,-263.67 223,-274.33 223,-274.33 223,-279.67 217.67,-285 212.33,-285 212.33,-285 133.67,-285 133.67,-285 128.33,-285 123,-279.67 123,-274.33 123,-274.33 123,-263.67 123,-263.67 123,-258.33 128.33,-253 133.67,-253"/>
</a>
</g>
</g>
<!-- Op2&#45;15764163735520152128 -->
<g id="node13" class="node">
<title>Op2&#45;15764163735520152128</title>
<g id="a_node13"><a xlink:title="26: Op2&#45;15764163735520152128">
<path fill="white" stroke="none" d="M157.67,-332C157.67,-332 260.33,-332 260.33,-332 265.67,-332 271,-337.33 271,-342.67 271,-342.67 271,-353.33 271,-353.33 271,-358.67 265.67,-364 260.33,-364 260.33,-364 157.67,-364 157.67,-364 152.33,-364 147,-358.67 147,-353.33 147,-353.33 147,-342.67 147,-342.67 147,-337.33 152.33,-332 157.67,-332"/>
<text text-anchor="start" x="151.62" y="-343.32" font-family="Helvetica,sans-Serif" font-size="14.00">Op2(Concat, ·, ·)</text>
<path fill="none" stroke="black" d="M157.67,-332C157.67,-332 260.33,-332 260.33,-332 265.67,-332 271,-337.33 271,-342.67 271,-342.67 271,-353.33 271,-353.33 271,-358.67 265.67,-364 260.33,-364 260.33,-364 157.67,-364 157.67,-364 152.33,-364 147,-358.67 147,-353.33 147,-353.33 147,-342.67 147,-342.67 147,-337.33 152.33,-332 157.67,-332"/>
</a>
</g>
</g>
<!-- Op2&#45;12447369924942790367 -->
<g id="node14" class="node">
<title>Op2&#45;12447369924942790367</title>
<g id="a_node14"><a xlink:title="6: Op2&#45;12447369924942790367">
<path fill="white" stroke="none" d="M107.67,-490C107.67,-490 186.33,-490 186.33,-490 191.67,-490 197,-495.33 197,-500.67 197,-500.67 197,-511.33 197,-511.33 197,-516.67 191.67,-522 186.33,-522 186.33,-522 107.67,-522 107.67,-522 102.33,-522 97,-516.67 97,-511.33 97,-511.33 97,-500.67 97,-500.67 97,-495.33 102.33,-490 107.67,-490"/>
<text text-anchor="start" x="101.62" y="-501.32" font-family="Helvetica,sans-Serif" font-size="14.00">Op2(Xor, ·, ·)</text>
<path fill="none" stroke="black" d="M107.67,-490C107.67,-490 186.33,-490 186.33,-490 191.67,-490 197,-495.33 197,-500.67 197,-500.67 197,-511.33 197,-511.33 197,-516.67 191.67,-522 186.33,-522 186.33,-522 107.67,-522 107.67,-522 102.33,-522 97,-516.67 97,-511.33 97,-511.33 97,-500.67 97,-500.67 97,-495.33 102.33,-490 107.67,-490"/>
</a>
</g>
</g>
<!-- Op1&#45;14698769633779669753 -->
<g id="node15" class="node">
<title>Op1&#45;14698769633779669753</title>
<g id="a_node15"><a xlink:title="3: Op1&#45;14698769633779669753">
<path fill="white" stroke="none" d="M83.17,-253C83.17,-253 100.83,-253 100.83,-253 106.17,-253 111.5,-258.33 111.5,-263.67 111.5,-263.67 111.5,-274.33 111.5,-274.33 111.5,-279.67 106.17,-285 100.83,-285 100.83,-285 83.17,-285 83.17,-285 77.83,-285 72.5,-279.67 72.5,-274.33 72.5,-274.33 72.5,-263.67 72.5,-263.67 72.5,-258.33 77.83,-253 83.17,-253"/>
<text text-anchor="start" x="77.38" y="-264.32" font-family="Helvetica,sans-Serif" font-size="14.00">Op1</text>
<path fill="none" stroke="black" d="M83.17,-253C83.17,-253 100.83,-253 100.83,-253 106.17,-253 111.5,-258.33 111.5,-263.67 111.5,-263.67 111.5,-274.33 111.5,-274.33 111.5,-279.67 106.17,-285 100.83,-285 100.83,-285 83.17,-285 83.17,-285 77.83,-285 72.5,-279.67 72.5,-274.33 72.5,-274.33 72.5,-263.67 72.5,-263.67 72.5,-258.33 77.83,-253 83.17,-253"/>
</a>
</g>
</g>
<!-- Op1&#45;13035967525744581239 -->
<g id="node16" class="node">
<title>Op1&#45;13035967525744581239</title>
<g id="a_node16"><a xlink:title="6: Op1&#45;13035967525744581239">
<path fill="white" stroke="none" d="M57.17,-490C57.17,-490 74.83,-490 74.83,-490 80.17,-490 85.5,-495.33 85.5,-500.67 85.5,-500.67 85.5,-511.33 85.5,-511.33 85.5,-516.67 80.17,-522 74.83,-522 74.83,-522 57.17,-522 57.17,-522 51.83,-522 46.5,-516.67 46.5,-511.33 46.5,-511.33 46.5,-500.67 46.5,-500.67 46.5,-495.33 51.83,-490 57.17,-490"/>
<text text-anchor="start" x="51.38" y="-501.32" font-family="Helvetica,sans-Serif" font-size="14.00">Op1</text>
<path fill="none" stroke="black" d="M57.17,-490C57.17,-490 74.83,-490 74.83,-490 80.17,-490 85.5,-495.33 85.5,-500.67 85.5,-500.67 85.5,-511.33 85.5,-511.33 85.5,-516.67 80.17,-522 74.83,-522 74.83,-522 57.17,-522 57.17,-522 51.83,-522 46.5,-516.67 46.5,-511.33 46.5,-511.33 46.5,-500.67 46.5,-500.67 46.5,-495.33 51.83,-490 57.17,-490"/>
</a>
</g>
</g>
<!-- Extract&#45;956286968014291186 -->
<g id="node17" class="node">
<title>Extract&#45;956286968014291186</title>
<g id="a_node17"><a xlink:title="22: Extract&#45;956286968014291186">
<path fill="white" stroke="none" d="M25.17,-174C25.17,-174 100.83,-174 100.83,-174 106.17,-174 111.5,-179.33 111.5,-184.67 111.5,-184.67 111.5,-195.33 111.5,-195.33 111.5,-200.67 106.17,-206 100.83,-206 100.83,-206 25.17,-206 25.17,-206 19.83,-206 14.5,-200.67 14.5,-195.33 14.5,-195.33 14.5,-184.67 14.5,-184.67 14.5,-179.33 19.83,-174 25.17,-174"/>
<text text-anchor="start" x="19.5" y="-185.32" font-family="Helvetica,sans-Serif" font-size="14.00">Extract(1, 0)</text>
<path fill="none" stroke="black" d="M25.17,-174C25.17,-174 100.83,-174 100.83,-174 106.17,-174 111.5,-179.33 111.5,-184.67 111.5,-184.67 111.5,-195.33 111.5,-195.33 111.5,-200.67 106.17,-206 100.83,-206 100.83,-206 25.17,-206 25.17,-206 19.83,-206 14.5,-200.67 14.5,-195.33 14.5,-195.33 14.5,-184.67 14.5,-184.67 14.5,-179.33 19.83,-174 25.17,-174"/>
</a>
</g>
</g>
<!-- Op2&#45;16463693734372638882 -->
<g id="node18" class="node">
<title>Op2&#45;16463693734372638882</title>
<g id="a_node18"><a xlink:title="7: Op2&#45;16463693734372638882">
<path fill="white" stroke="none" d="M326.67,-569C326.67,-569 399.33,-569 399.33,-569 404.67,-569 410,-574.33 410,-579.67 410,-579.67 410,-590.33 410,-590.33 410,-595.67 404.67,-601 399.33,-601 399.33,-601 326.67,-601 326.67,-601 321.33,-601 316,-595.67 316,-590.33 316,-590.33 316,-579.67 316,-579.67 316,-574.33 321.33,-569 326.67,-569"/>
<text text-anchor="start" x="321" y="-580.33" font-family="Helvetica,sans-Serif" font-size="14.00">Op2(Or, ·, ·)</text>
<path fill="none" stroke="black" d="M326.67,-569C326.67,-569 399.33,-569 399.33,-569 404.67,-569 410,-574.33 410,-579.67 410,-579.67 410,-590.33 410,-590.33 410,-595.67 404.67,-601 399.33,-601 399.33,-601 326.67,-601 326.67,-601 321.33,-601 316,-595.67 316,-590.33 316,-590.33 316,-579.67 316,-579.67 316,-574.33 321.33,-569 326.67,-569"/>
</a>
</g>
</g>
</g>
</svg>
