<?xml version="1.0" encoding="UTF-8" standalone="no"?>
<!DOCTYPE svg PUBLIC "-//W3C//DTD SVG 1.1//EN"
 "http://www.w3.org/Graphics/SVG/1.1/DTD/svg11.dtd">
<!-- Generated by graphviz version 9.0.0 (0)
 -->
<!-- Pages: 1 -->
<svg width="431pt" height="625pt"
 viewBox="0.00 0.00 431.00 625.00" xmlns="http://www.w3.org/2000/svg" xmlns:xlink="http://www.w3.org/1999/xlink">
<g id="graph0" class="graph" transform="scale(1 1) rotate(0) translate(4 621)">
<polygon fill="white" stroke="none" points="-4,4 -4,-621 427,-621 427,4 -4,4"/>
<g id="clust1" class="cluster">
<title>outer_cluster_23</title>
</g>
<g id="clust2" class="cluster">
<title>cluster_23</title>
<path fill="#ffffb3" stroke="black" stroke-dasharray="5,2" d="M98,-169C98,-169 168,-169 168,-169 174,-169 180,-175 180,-181 180,-181 180,-199 180,-199 180,-205 174,-211 168,-211 168,-211 98,-211 98,-211 92,-211 86,-205 86,-199 86,-199 86,-181 86,-181 86,-175 92,-169 98,-169"/>
</g>
<g id="clust4" class="cluster">
<title>outer_cluster_21</title>
</g>
<g id="clust5" class="cluster">
<title>cluster_21</title>
<path fill="#ffffb3" stroke="black" stroke-dasharray="5,2" d="M169,-90C169,-90 245,-90 245,-90 251,-90 257,-96 257,-102 257,-102 257,-120 257,-120 257,-126 251,-132 245,-132 245,-132 169,-132 169,-132 163,-132 157,-126 157,-120 157,-120 157,-102 157,-102 157,-96 163,-90 169,-90"/>
</g>
<g id="clust7" class="cluster">
<title>outer_cluster_19</title>
</g>
<g id="clust8" class="cluster">
<title>cluster_19</title>
<path fill="#ffffb3" stroke="black" stroke-dasharray="5,2" d="M74,-485C74,-485 110,-485 110,-485 116,-485 122,-491 122,-497 122,-497 122,-515 122,-515 122,-521 116,-527 110,-527 110,-527 74,-527 74,-527 68,-527 62,-521 62,-515 62,-515 62,-497 62,-497 62,-491 68,-485 74,-485"/>
</g>
<g id="clust10" class="cluster">
<title>outer_cluster_1</title>
</g>
<g id="clust11" class="cluster">
<title>cluster_1</title>
<path fill="#ffffb3" stroke="black" stroke-dasharray="5,2" d="M92,-248C92,-248 282,-248 282,-248 288,-248 294,-254 294,-260 294,-260 294,-278 294,-278 294,-284 288,-290 282,-290 282,-290 92,-290 92,-290 86,-290 80,-284 80,-278 80,-278 80,-260 80,-260 80,-254 86,-248 92,-248"/>
</g>
<g id="clust13" class="cluster">
<title>outer_cluster_4</title>
</g>
<g id="clust14" class="cluster">
<title>cluster_4</title>
<path fill="#ffffb3" stroke="black" stroke-dasharray="5,2" d="M54,-406C54,-406 130,-406 130,-406 136,-406 142,-412 142,-418 142,-418 142,-436 142,-436 142,-442 136,-448 130,-448 130,-448 54,-448 54,-448 48,-448 42,-442 42,-436 42,-436 42,-418 42,-418 42,-412 48,-406 54,-406"/>
</g>
<g id="clust16" class="cluster">
<title>outer_cluster_7</title>
</g>
<g id="clust17" class="cluster">
<title>cluster_7</title>
<path fill="#ffffb3" stroke="black" stroke-dasharray="5,2" d="M312,-248C312,-248 400,-248 400,-248 406,-248 412,-254 412,-260 412,-260 412,-278 412,-278 412,-284 406,-290 400,-290 400,-290 312,-290 312,-290 306,-290 300,-284 300,-278 300,-278 300,-260 300,-260 300,-254 306,-248 312,-248"/>
</g>
<g id="clust19" class="cluster">
<title>outer_cluster_26</title>
</g>
<g id="clust20" class="cluster">
<title>cluster_26</title>
<path fill="#ffffb3" stroke="black" stroke-dasharray="5,2" d="M261,-406C261,-406 331,-406 331,-406 337,-406 343,-412 343,-418 343,-418 343,-436 343,-436 343,-442 337,-448 331,-448 331,-448 261,-448 261,-448 255,-448 249,-442 249,-436 249,-436 249,-418 249,-418 249,-412 255,-406 261,-406"/>
</g>
<g id="clust22" class="cluster">
<title>outer_cluster_0</title>
</g>
<g id="clust23" class="cluster">
<title>cluster_0</title>
<path fill="#ffffb3" stroke="black" stroke-dasharray="5,2" d="M53,-90C53,-90 139,-90 139,-90 145,-90 151,-96 151,-102 151,-102 151,-120 151,-120 151,-126 145,-132 139,-132 139,-132 53,-132 53,-132 47,-132 41,-126 41,-120 41,-120 41,-102 41,-102 41,-96 47,-90 53,-90"/>
</g>
<g id="clust25" class="cluster">
<title>outer_cluster_3</title>
</g>
<g id="clust26" class="cluster">
<title>cluster_3</title>
<path fill="#ffffb3" stroke="black" stroke-dasharray="5,2" d="M172,-485C172,-485 362,-485 362,-485 368,-485 374,-491 374,-497 374,-497 374,-515 374,-515 374,-521 368,-527 362,-527 362,-527 172,-527 172,-527 166,-527 160,-521 160,-515 160,-515 160,-497 160,-497 160,-491 166,-485 172,-485"/>
</g>
<g id="clust31" class="cluster">
<title>outer_cluster_5</title>
</g>
<g id="clust32" class="cluster">
<title>cluster_5</title>
<path fill="#ffffb3" stroke="black" stroke-dasharray="5,2" d="M23,-11C23,-11 117,-11 117,-11 123,-11 129,-17 129,-23 129,-23 129,-41 129,-41 129,-47 123,-53 117,-53 117,-53 23,-53 23,-53 17,-53 11,-47 11,-41 11,-41 11,-23 11,-23 11,-17 17,-11 23,-11"/>
</g>
<g id="clust28" class="cluster">
<title>outer_cluster_2</title>
</g>
<g id="clust29" class="cluster">
<title>cluster_2</title>
<path fill="#ffffb3" stroke="black" stroke-dasharray="5,2" d="M172,-327C172,-327 258,-327 258,-327 264,-327 270,-333 270,-339 270,-339 270,-357 270,-357 270,-363 264,-369 258,-369 258,-369 172,-369 172,-369 166,-369 160,-363 160,-357 160,-357 160,-339 160,-339 160,-333 166,-327 172,-327"/>
</g>
<g id="clust34" class="cluster">
<title>outer_cluster_20</title>
</g>
<g id="clust35" class="cluster">
<title>cluster_20</title>
<path fill="#ffffb3" stroke="black" stroke-dasharray="5,2" d="M301,-564C301,-564 337,-564 337,-564 343,-564 349,-570 349,-576 349,-576 349,-594 349,-594 349,-600 343,-606 337,-606 337,-606 301,-606 301,-606 295,-606 289,-600 289,-594 289,-594 289,-576 289,-576 289,-570 295,-564 301,-564"/>
</g>
<g id="clust40" class="cluster">
<title>outer_cluster_6</title>
</g>
<g id="clust41" class="cluster">
<title>cluster_6</title>
<path fill="#ffffb3" stroke="black" stroke-dasharray="5,2" d="M183,-11C183,-11 277,-11 277,-11 283,-11 289,-17 289,-23 289,-23 289,-41 289,-41 289,-47 283,-53 277,-53 277,-53 183,-53 183,-53 177,-53 171,-47 171,-41 171,-41 171,-23 171,-23 171,-17 177,-11 183,-11"/>
</g>
<g id="clust37" class="cluster">
<title>outer_cluster_25</title>
</g>
<g id="clust38" class="cluster">
<title>cluster_25</title>
<path fill="#ffffb3" stroke="black" stroke-dasharray="5,2" d="M288,-327C288,-327 364,-327 364,-327 370,-327 376,-333 376,-339 376,-339 376,-357 376,-357 376,-363 370,-369 364,-369 364,-369 288,-369 288,-369 282,-369 276,-363 276,-357 276,-357 276,-339 276,-339 276,-333 282,-327 288,-327"/>
</g>
<!-- Op1&#45;2071832938192927936&#45;&gt;Op2&#45;16148859959482838396 -->
<g id="edge1" class="edge">
<title>Op1&#45;2071832938192927936:s&#45;&gt;Op2&#45;16148859959482838396</title>
<path fill="none" stroke="black" d="M133,-174C133,-159.22 125.15,-144.9 116.68,-133.75"/>
<polygon fill="black" stroke="black" points="120.75,-135.11 115.88,-133.02 118.39,-137.69 120.75,-135.11"/>
</g>
<!-- Op2&#45;16148859959482838396&#45;&gt;Var&#45;11808970072622434574 -->
<g id="edge12" class="edge">
<title>Op2&#45;16148859959482838396:s&#45;&gt;Var&#45;11808970072622434574</title>
<path fill="none" stroke="black" d="M70,-95C70,-82.22 70,-67.96 70,-56.35"/>
<polygon fill="black" stroke="black" points="71.75,-59.51 70,-54.51 68.25,-59.51 71.75,-59.51"/>
</g>
<!-- Op2&#45;16148859959482838396&#45;&gt;Var&#45;9335705567684163424 -->
<g id="edge13" class="edge">
<title>Op2&#45;16148859959482838396:s&#45;&gt;Var&#45;9335705567684163424</title>
<path fill="none" stroke="black" d="M122,-95C122,-69.98 144.07,-54.91 168.25,-45.91"/>
<polygon fill="black" stroke="black" points="165.54,-48.82 169.59,-45.4 164.29,-45.55 165.54,-48.82"/>
</g>
<!-- Op2&#45;14676005712340803439&#45;&gt;Var&#45;11808970072622434574 -->
<g id="edge2" class="edge">
<title>Op2&#45;14676005712340803439:s&#45;&gt;Var&#45;11808970072622434574</title>
<path fill="none" stroke="black" d="M184,-95C184,-67.88 158.79,-52.55 132.07,-43.93"/>
<polygon fill="black" stroke="black" points="135.49,-43.93 130.3,-42.86 133.69,-46.93 135.49,-43.93"/>
</g>
<!-- Op2&#45;14676005712340803439&#45;&gt;Var&#45;9335705567684163424 -->
<g id="edge3" class="edge">
<title>Op2&#45;14676005712340803439:s&#45;&gt;Var&#45;9335705567684163424</title>
<path fill="none" stroke="black" d="M230,-95C230,-82.22 230,-67.96 230,-56.35"/>
<polygon fill="black" stroke="black" points="231.75,-59.51 230,-54.51 228.25,-59.51 231.75,-59.51"/>
</g>
<!-- Out&#45;5040379952546458196&#45;&gt;Op2&#45;14115315143431114661 -->
<g id="edge4" class="edge">
<title>Out&#45;5040379952546458196:s&#45;&gt;Op2&#45;14115315143431114661</title>
<path fill="none" stroke="black" d="M92,-490C92,-477.22 92,-462.96 92,-451.35"/>
<polygon fill="black" stroke="black" points="93.75,-454.51 92,-449.51 90.25,-454.51 93.75,-454.51"/>
</g>
<!-- Op2&#45;14115315143431114661&#45;&gt;Op2&#45;16148859959482838396 -->
<g id="edge9" class="edge">
<title>Op2&#45;14115315143431114661:s&#45;&gt;Op2&#45;16148859959482838396</title>
<path fill="none" stroke="black" d="M69,-411C69,-301.88 69.95,-274.08 85,-166 86.42,-155.84 88.58,-144.71 90.61,-135.21"/>
<polygon fill="black" stroke="black" points="91.03,-138.68 91.39,-133.39 87.81,-137.3 91.03,-138.68"/>
</g>
<!-- Op2&#45;14115315143431114661&#45;&gt;Op2&#45;12189652888947418315 -->
<g id="edge10" class="edge">
<title>Op2&#45;14115315143431114661:s&#45;&gt;Op2&#45;12189652888947418315</title>
<path fill="none" stroke="black" d="M115,-411C115,-387.56 135.09,-372.68 157.26,-363.39"/>
<polygon fill="black" stroke="black" points="154.94,-366.49 158.64,-362.7 153.39,-363.36 154.94,-366.49"/>
</g>
<!-- Op2&#45;16583436537916150031&#45;&gt;Var&#45;11808970072622434574 -->
<g id="edge5" class="edge">
<title>Op2&#45;16583436537916150031:s&#45;&gt;Var&#45;11808970072622434574</title>
<path fill="none" stroke="black" d="M216,-253C216,-192.25 132.57,-251.78 85,-214 38.11,-176.76 24.98,-144.97 40,-87 42.92,-75.72 48.77,-64.28 54.53,-54.86"/>
<polygon fill="black" stroke="black" points="53.46,-59.29 55,-54.22 50.63,-57.22 53.46,-59.29"/>
</g>
<!-- Op2&#45;16583436537916150031&#45;&gt;Var&#45;9335705567684163424 -->
<g id="edge6" class="edge">
<title>Op2&#45;16583436537916150031:s&#45;&gt;Var&#45;9335705567684163424</title>
<path fill="none" stroke="black" d="M266,-253C266,-179.14 277.22,-158.32 258,-87 255.04,-76.02 249.62,-64.73 244.33,-55.32"/>
<polygon fill="black" stroke="black" points="247.87,-56.46 243.13,-54.09 245.35,-58.89 247.87,-56.46"/>
</g>
<!-- Op2&#45;4589661714853897680&#45;&gt;Op1&#45;2071832938192927936 -->
<g id="edge8" class="edge">
<title>Op2&#45;4589661714853897680:s&#45;&gt;Op1&#45;2071832938192927936</title>
<path fill="none" stroke="black" d="M161,-253C161,-238.99 154.99,-224.66 148.54,-213.31"/>
<polygon fill="black" stroke="black" points="152.11,-214.53 147.4,-212.1 149.56,-216.94 152.11,-214.53"/>
</g>
<!-- Op2&#45;4589661714853897680&#45;&gt;Op2&#45;14676005712340803439 -->
<g id="edge7" class="edge">
<title>Op2&#45;4589661714853897680:s&#45;&gt;Op2&#45;14676005712340803439</title>
<path fill="none" stroke="black" d="M109,-253C109,-216.61 158.63,-242.71 181,-214 198.79,-191.17 204.52,-157.55 206.3,-135.23"/>
<polygon fill="black" stroke="black" points="207.62,-138.68 206.53,-133.5 204.15,-138.23 207.62,-138.68"/>
</g>
<!-- Op2&#45;12189652888947418315&#45;&gt;Op2&#45;16583436537916150031 -->
<g id="edge19" class="edge">
<title>Op2&#45;12189652888947418315:s&#45;&gt;Op2&#45;16583436537916150031</title>
<path fill="none" stroke="black" d="M241,-332C241,-319.22 241,-304.96 241,-293.35"/>
<polygon fill="black" stroke="black" points="242.75,-296.51 241,-291.51 239.25,-296.51 242.75,-296.51"/>
</g>
<!-- Op2&#45;12189652888947418315&#45;&gt;Var&#45;4610716319256996192 -->
<g id="edge18" class="edge">
<title>Op2&#45;12189652888947418315:s&#45;&gt;Var&#45;4610716319256996192</title>
<path fill="none" stroke="black" d="M189,-332C189,-281.8 247.96,-310.52 295,-293 295.66,-292.76 296.32,-292.51 296.98,-292.26"/>
<polygon fill="black" stroke="black" points="297.55,-293.92 301.62,-290.53 296.33,-290.64 297.55,-293.92"/>
</g>
<!-- Op1&#45;13815394951320932842&#45;&gt;Op2&#45;12189652888947418315 -->
<g id="edge11" class="edge">
<title>Op1&#45;13815394951320932842:s&#45;&gt;Op2&#45;12189652888947418315</title>
<path fill="none" stroke="black" d="M296,-411C296,-392.54 282.58,-378.84 266.66,-369.08"/>
<polygon fill="black" stroke="black" points="272.89,-368.3 267.67,-369.24 272.33,-371.76 272.89,-368.3"/>
</g>
<!-- Op2&#45;1660094879829076647&#45;&gt;Op2&#45;4589661714853897680 -->
<g id="edge15" class="edge">
<title>Op2&#45;1660094879829076647:s&#45;&gt;Op2&#45;4589661714853897680</title>
<path fill="none" stroke="black" d="M238,-490C238,-426.89 184.19,-429.87 159,-372 147.75,-346.15 141.32,-314.22 138.01,-293.04"/>
<polygon fill="black" stroke="black" points="140.66,-295.72 137.52,-291.45 137.31,-296.74 140.66,-295.72"/>
</g>
<!-- Op2&#45;1660094879829076647&#45;&gt;Var&#45;4610716319256996192 -->
<g id="edge14" class="edge">
<title>Op2&#45;1660094879829076647:s&#45;&gt;Var&#45;4610716319256996192</title>
<path fill="none" stroke="black" d="M188,-490C188,-418.53 289.8,-497.59 344,-451 388.23,-412.98 387.75,-381.32 377,-324 374.99,-313.29 370.93,-301.98 366.9,-292.5"/>
<polygon fill="black" stroke="black" points="370.29,-294.52 366.11,-291.27 367.36,-296.42 370.29,-294.52"/>
</g>
<!-- Op2&#45;5816659167976044345&#45;&gt;Op1&#45;13815394951320932842 -->
<g id="edge17" class="edge">
<title>Op2&#45;5816659167976044345:s&#45;&gt;Op1&#45;13815394951320932842</title>
<path fill="none" stroke="black" d="M345,-490C345,-474.15 335.03,-459.99 324.08,-449.21"/>
<polygon fill="black" stroke="black" points="328.69,-450.3 323.59,-448.87 326.69,-453.17 328.69,-450.3"/>
</g>
<!-- Op2&#45;5816659167976044345&#45;&gt;Op2&#45;6060249715730674357 -->
<g id="edge16" class="edge">
<title>Op2&#45;5816659167976044345:s&#45;&gt;Op2&#45;6060249715730674357</title>
<path fill="none" stroke="black" d="M293,-490C293,-461.47 331.36,-476.58 344,-451 356.52,-425.65 346.88,-392.97 337.57,-371.52"/>
<polygon fill="black" stroke="black" points="340.94,-373.56 336.78,-370.28 337.98,-375.44 340.94,-373.56"/>
</g>
<!-- Op2&#45;6060249715730674357&#45;&gt;Op2&#45;16583436537916150031 -->
<g id="edge22" class="edge">
<title>Op2&#45;6060249715730674357:s&#45;&gt;Op2&#45;16583436537916150031</title>
<path fill="none" stroke="black" d="M349,-332C349,-324.58 317.94,-307.29 289.13,-292.84"/>
<polygon fill="black" stroke="black" points="290.02,-291.33 284.76,-290.67 288.46,-294.46 290.02,-291.33"/>
</g>
<!-- Op2&#45;6060249715730674357&#45;&gt;Var&#45;4610716319256996192 -->
<g id="edge21" class="edge">
<title>Op2&#45;6060249715730674357:s&#45;&gt;Var&#45;4610716319256996192</title>
<path fill="none" stroke="black" d="M303,-332C303,-315.75 313.65,-301.61 325.4,-290.95"/>
<polygon fill="black" stroke="black" points="322.27,-294.69 325.8,-290.73 320.58,-291.63 322.27,-294.69"/>
</g>
<!-- Out&#45;17615343019692007359&#45;&gt;Op2&#45;5816659167976044345 -->
<g id="edge20" class="edge">
<title>Out&#45;17615343019692007359:s&#45;&gt;Op2&#45;5816659167976044345</title>
<path fill="none" stroke="black" d="M319,-569C319,-556.22 319,-541.96 319,-530.35"/>
<polygon fill="black" stroke="black" points="320.75,-533.51 319,-528.51 317.25,-533.51 320.75,-533.51"/>
</g>
<!-- Op1&#45;2071832938192927936 -->
<g id="node1" class="node">
<title>Op1&#45;2071832938192927936</title>
<g id="a_node1"><a xlink:title="23: Op1&#45;2071832938192927936">
<path fill="white" stroke="none" d="M100.04,-174C100.04,-174 165.96,-174 165.96,-174 171.29,-174 176.62,-179.33 176.62,-184.67 176.62,-184.67 176.62,-195.33 176.62,-195.33 176.62,-200.67 171.29,-206 165.96,-206 165.96,-206 100.04,-206 100.04,-206 94.71,-206 89.38,-200.67 89.38,-195.33 89.38,-195.33 89.38,-184.67 89.38,-184.67 89.38,-179.33 94.71,-174 100.04,-174"/>
<text text-anchor="start" x="94.38" y="-185.32" font-family="Helvetica,sans-Serif" font-size="14.00">Op1(Not, ·)</text>
<path fill="none" stroke="black" d="M100.04,-174C100.04,-174 165.96,-174 165.96,-174 171.29,-174 176.62,-179.33 176.62,-184.67 176.62,-184.67 176.62,-195.33 176.62,-195.33 176.62,-200.67 171.29,-206 165.96,-206 165.96,-206 100.04,-206 100.04,-206 94.71,-206 89.38,-200.67 89.38,-195.33 89.38,-195.33 89.38,-184.67 89.38,-184.67 89.38,-179.33 94.71,-174 100.04,-174"/>
</a>
</g>
</g>
<!-- Op2&#45;16148859959482838396 -->
<g id="node2" class="node">
<title>Op2&#45;16148859959482838396</title>
<g id="a_node2"><a xlink:title="0: Op2&#45;16148859959482838396">
<path fill="white" stroke="none" d="M54.67,-95C54.67,-95 137.33,-95 137.33,-95 142.67,-95 148,-100.33 148,-105.67 148,-105.67 148,-116.33 148,-116.33 148,-121.67 142.67,-127 137.33,-127 137.33,-127 54.67,-127 54.67,-127 49.33,-127 44,-121.67 44,-116.33 44,-116.33 44,-105.67 44,-105.67 44,-100.33 49.33,-95 54.67,-95"/>
<text text-anchor="start" x="48.75" y="-106.33" font-family="Helvetica,sans-Serif" font-size="14.00">Op2(And, ·, ·)</text>
<path fill="none" stroke="black" d="M54.67,-95C54.67,-95 137.33,-95 137.33,-95 142.67,-95 148,-100.33 148,-105.67 148,-105.67 148,-116.33 148,-116.33 148,-121.67 142.67,-127 137.33,-127 137.33,-127 54.67,-127 54.67,-127 49.33,-127 44,-121.67 44,-116.33 44,-116.33 44,-105.67 44,-105.67 44,-100.33 49.33,-95 54.67,-95"/>
</a>
</g>
</g>
<!-- Op2&#45;14676005712340803439 -->
<g id="node3" class="node">
<title>Op2&#45;14676005712340803439</title>
<g id="a_node3"><a xlink:title="21: Op2&#45;14676005712340803439">
<path fill="white" stroke="none" d="M170.67,-95C170.67,-95 243.33,-95 243.33,-95 248.67,-95 254,-100.33 254,-105.67 254,-105.67 254,-116.33 254,-116.33 254,-121.67 248.67,-127 243.33,-127 243.33,-127 170.67,-127 170.67,-127 165.33,-127 160,-121.67 160,-116.33 160,-116.33 160,-105.67 160,-105.67 160,-100.33 165.33,-95 170.67,-95"/>
<text text-anchor="start" x="165" y="-106.33" font-family="Helvetica,sans-Serif" font-size="14.00">Op2(Or, ·, ·)</text>
<path fill="none" stroke="black" d="M170.67,-95C170.67,-95 243.33,-95 243.33,-95 248.67,-95 254,-100.33 254,-105.67 254,-105.67 254,-116.33 254,-116.33 254,-121.67 248.67,-127 243.33,-127 243.33,-127 170.67,-127 170.67,-127 165.33,-127 160,-121.67 160,-116.33 160,-116.33 160,-105.67 160,-105.67 160,-100.33 165.33,-95 170.67,-95"/>
</a>
</g>
</g>
<!-- Var&#45;11808970072622434574 -->
<g id="node4" class="node">
<title>Var&#45;11808970072622434574</title>
<g id="a_node4"><a xlink:title="5: Var&#45;11808970072622434574">
<path fill="white" stroke="none" d="M24.67,-16C24.67,-16 115.33,-16 115.33,-16 120.67,-16 126,-21.33 126,-26.67 126,-26.67 126,-37.33 126,-37.33 126,-42.67 120.67,-48 115.33,-48 115.33,-48 24.67,-48 24.67,-48 19.33,-48 14,-42.67 14,-37.33 14,-37.33 14,-26.67 14,-26.67 14,-21.33 19.33,-16 24.67,-16"/>
<text text-anchor="start" x="19" y="-27.32" font-family="Helvetica,sans-Serif" font-size="14.00">Var(&quot;i_bit1&quot;, 1)</text>
<path fill="none" stroke="black" d="M24.67,-16C24.67,-16 115.33,-16 115.33,-16 120.67,-16 126,-21.33 126,-26.67 126,-26.67 126,-37.33 126,-37.33 126,-42.67 120.67,-48 115.33,-48 115.33,-48 24.67,-48 24.67,-48 19.33,-48 14,-42.67 14,-37.33 14,-37.33 14,-26.67 14,-26.67 14,-21.33 19.33,-16 24.67,-16"/>
</a>
</g>
</g>
<!-- Var&#45;9335705567684163424 -->
<g id="node5" class="node">
<title>Var&#45;9335705567684163424</title>
<g id="a_node5"><a xlink:title="6: Var&#45;9335705567684163424">
<path fill="white" stroke="none" d="M184.67,-16C184.67,-16 275.33,-16 275.33,-16 280.67,-16 286,-21.33 286,-26.67 286,-26.67 286,-37.33 286,-37.33 286,-42.67 280.67,-48 275.33,-48 275.33,-48 184.67,-48 184.67,-48 179.33,-48 174,-42.67 174,-37.33 174,-37.33 174,-26.67 174,-26.67 174,-21.33 179.33,-16 184.67,-16"/>
<text text-anchor="start" x="179" y="-27.32" font-family="Helvetica,sans-Serif" font-size="14.00">Var(&quot;i_bit2&quot;, 1)</text>
<path fill="none" stroke="black" d="M184.67,-16C184.67,-16 275.33,-16 275.33,-16 280.67,-16 286,-21.33 286,-26.67 286,-26.67 286,-37.33 286,-37.33 286,-42.67 280.67,-48 275.33,-48 275.33,-48 184.67,-48 184.67,-48 179.33,-48 174,-42.67 174,-37.33 174,-37.33 174,-26.67 174,-26.67 174,-21.33 179.33,-16 184.67,-16"/>
</a>
</g>
</g>
<!-- Out&#45;5040379952546458196 -->
<g id="node6" class="node">
<title>Out&#45;5040379952546458196</title>
<g id="a_node6"><a xlink:title="19: Out&#45;5040379952546458196">
<path fill="white" stroke="none" d="M84.92,-490C84.92,-490 99.08,-490 99.08,-490 104.42,-490 109.75,-495.33 109.75,-500.67 109.75,-500.67 109.75,-511.33 109.75,-511.33 109.75,-516.67 104.42,-522 99.08,-522 99.08,-522 84.92,-522 84.92,-522 79.58,-522 74.25,-516.67 74.25,-511.33 74.25,-511.33 74.25,-500.67 74.25,-500.67 74.25,-495.33 79.58,-490 84.92,-490"/>
<text text-anchor="start" x="79.25" y="-501.32" font-family="Helvetica,sans-Serif" font-size="14.00">Out</text>
<path fill="none" stroke="black" d="M84.92,-490C84.92,-490 99.08,-490 99.08,-490 104.42,-490 109.75,-495.33 109.75,-500.67 109.75,-500.67 109.75,-511.33 109.75,-511.33 109.75,-516.67 104.42,-522 99.08,-522 99.08,-522 84.92,-522 84.92,-522 79.58,-522 74.25,-516.67 74.25,-511.33 74.25,-511.33 74.25,-500.67 74.25,-500.67 74.25,-495.33 79.58,-490 84.92,-490"/>
</a>
</g>
</g>
<!-- Op2&#45;14115315143431114661 -->
<g id="node7" class="node">
<title>Op2&#45;14115315143431114661</title>
<g id="a_node7"><a xlink:title="4: Op2&#45;14115315143431114661">
<path fill="white" stroke="none" d="M55.67,-411C55.67,-411 128.33,-411 128.33,-411 133.67,-411 139,-416.33 139,-421.67 139,-421.67 139,-432.33 139,-432.33 139,-437.67 133.67,-443 128.33,-443 128.33,-443 55.67,-443 55.67,-443 50.33,-443 45,-437.67 45,-432.33 45,-432.33 45,-421.67 45,-421.67 45,-416.33 50.33,-411 55.67,-411"/>
<text text-anchor="start" x="50" y="-422.32" font-family="Helvetica,sans-Serif" font-size="14.00">Op2(Or, ·, ·)</text>
<path fill="none" stroke="black" d="M55.67,-411C55.67,-411 128.33,-411 128.33,-411 133.67,-411 139,-416.33 139,-421.67 139,-421.67 139,-432.33 139,-432.33 139,-437.67 133.67,-443 128.33,-443 128.33,-443 55.67,-443 55.67,-443 50.33,-443 45,-437.67 45,-432.33 45,-432.33 45,-421.67 45,-421.67 45,-416.33 50.33,-411 55.67,-411"/>
</a>
</g>
</g>
<!-- Op2&#45;16583436537916150031 -->
<g id="node8" class="node">
<title>Op2&#45;16583436537916150031</title>
<g id="a_node8"><a xlink:title="1: Op2&#45;16583436537916150031">
<path fill="white" stroke="none" d="M201.67,-253C201.67,-253 280.33,-253 280.33,-253 285.67,-253 291,-258.33 291,-263.67 291,-263.67 291,-274.33 291,-274.33 291,-279.67 285.67,-285 280.33,-285 280.33,-285 201.67,-285 201.67,-285 196.33,-285 191,-279.67 191,-274.33 191,-274.33 191,-263.67 191,-263.67 191,-258.33 196.33,-253 201.67,-253"/>
<text text-anchor="start" x="195.62" y="-264.32" font-family="Helvetica,sans-Serif" font-size="14.00">Op2(Xor, ·, ·)</text>
<path fill="none" stroke="black" d="M201.67,-253C201.67,-253 280.33,-253 280.33,-253 285.67,-253 291,-258.33 291,-263.67 291,-263.67 291,-274.33 291,-274.33 291,-279.67 285.67,-285 280.33,-285 280.33,-285 201.67,-285 201.67,-285 196.33,-285 191,-279.67 191,-274.33 191,-274.33 191,-263.67 191,-263.67 191,-258.33 196.33,-253 201.67,-253"/>
</a>
</g>
</g>
<!-- Op2&#45;4589661714853897680 -->
<g id="node9" class="node">
<title>Op2&#45;4589661714853897680</title>
<g id="a_node9"><a xlink:title="1: Op2&#45;4589661714853897680">
<path fill="white" stroke="none" d="M93.67,-253C93.67,-253 176.33,-253 176.33,-253 181.67,-253 187,-258.33 187,-263.67 187,-263.67 187,-274.33 187,-274.33 187,-279.67 181.67,-285 176.33,-285 176.33,-285 93.67,-285 93.67,-285 88.33,-285 83,-279.67 83,-274.33 83,-274.33 83,-263.67 83,-263.67 83,-258.33 88.33,-253 93.67,-253"/>
<text text-anchor="start" x="87.75" y="-264.32" font-family="Helvetica,sans-Serif" font-size="14.00">Op2(And, ·, ·)</text>
<path fill="none" stroke="black" d="M93.67,-253C93.67,-253 176.33,-253 176.33,-253 181.67,-253 187,-258.33 187,-263.67 187,-263.67 187,-274.33 187,-274.33 187,-279.67 181.67,-285 176.33,-285 176.33,-285 93.67,-285 93.67,-285 88.33,-285 83,-279.67 83,-274.33 83,-274.33 83,-263.67 83,-263.67 83,-258.33 88.33,-253 93.67,-253"/>
</a>
</g>
</g>
<!-- Op2&#45;12189652888947418315 -->
<g id="node10" class="node">
<title>Op2&#45;12189652888947418315</title>
<g id="a_node10"><a xlink:title="2: Op2&#45;12189652888947418315">
<path fill="white" stroke="none" d="M173.67,-332C173.67,-332 256.33,-332 256.33,-332 261.67,-332 267,-337.33 267,-342.67 267,-342.67 267,-353.33 267,-353.33 267,-358.67 261.67,-364 256.33,-364 256.33,-364 173.67,-364 173.67,-364 168.33,-364 163,-358.67 163,-353.33 163,-353.33 163,-342.67 163,-342.67 163,-337.33 168.33,-332 173.67,-332"/>
<text text-anchor="start" x="167.75" y="-343.32" font-family="Helvetica,sans-Serif" font-size="14.00">Op2(And, ·, ·)</text>
<path fill="none" stroke="black" d="M173.67,-332C173.67,-332 256.33,-332 256.33,-332 261.67,-332 267,-337.33 267,-342.67 267,-342.67 267,-353.33 267,-353.33 267,-358.67 261.67,-364 256.33,-364 256.33,-364 173.67,-364 173.67,-364 168.33,-364 163,-358.67 163,-353.33 163,-353.33 163,-342.67 163,-342.67 163,-337.33 168.33,-332 173.67,-332"/>
</a>
</g>
</g>
<!-- Var&#45;4610716319256996192 -->
<g id="node11" class="node">
<title>Var&#45;4610716319256996192</title>
<g id="a_node11"><a xlink:title="7: Var&#45;4610716319256996192">
<path fill="white" stroke="none" d="M314.04,-253C314.04,-253 397.96,-253 397.96,-253 403.29,-253 408.62,-258.33 408.62,-263.67 408.62,-263.67 408.62,-274.33 408.62,-274.33 408.62,-279.67 403.29,-285 397.96,-285 397.96,-285 314.04,-285 314.04,-285 308.71,-285 303.38,-279.67 303.38,-274.33 303.38,-274.33 303.38,-263.67 303.38,-263.67 303.38,-258.33 308.71,-253 314.04,-253"/>
<text text-anchor="start" x="308.38" y="-264.32" font-family="Helvetica,sans-Serif" font-size="14.00">Var(&quot;i_cin&quot;, 1)</text>
<path fill="none" stroke="black" d="M314.04,-253C314.04,-253 397.96,-253 397.96,-253 403.29,-253 408.62,-258.33 408.62,-263.67 408.62,-263.67 408.62,-274.33 408.62,-274.33 408.62,-279.67 403.29,-285 397.96,-285 397.96,-285 314.04,-285 314.04,-285 308.71,-285 303.38,-279.67 303.38,-274.33 303.38,-274.33 303.38,-263.67 303.38,-263.67 303.38,-258.33 308.71,-253 314.04,-253"/>
</a>
</g>
</g>
<!-- Op1&#45;13815394951320932842 -->
<g id="node12" class="node">
<title>Op1&#45;13815394951320932842</title>
<g id="a_node12"><a xlink:title="26: Op1&#45;13815394951320932842">
<path fill="white" stroke="none" d="M263.04,-411C263.04,-411 328.96,-411 328.96,-411 334.29,-411 339.62,-416.33 339.62,-421.67 339.62,-421.67 339.62,-432.33 339.62,-432.33 339.62,-437.67 334.29,-443 328.96,-443 328.96,-443 263.04,-443 263.04,-443 257.71,-443 252.38,-437.67 252.38,-432.33 252.38,-432.33 252.38,-421.67 252.38,-421.67 252.38,-416.33 257.71,-411 263.04,-411"/>
<text text-anchor="start" x="257.38" y="-422.32" font-family="Helvetica,sans-Serif" font-size="14.00">Op1(Not, ·)</text>
<path fill="none" stroke="black" d="M263.04,-411C263.04,-411 328.96,-411 328.96,-411 334.29,-411 339.62,-416.33 339.62,-421.67 339.62,-421.67 339.62,-432.33 339.62,-432.33 339.62,-437.67 334.29,-443 328.96,-443 328.96,-443 263.04,-443 263.04,-443 257.71,-443 252.38,-437.67 252.38,-432.33 252.38,-432.33 252.38,-421.67 252.38,-421.67 252.38,-416.33 257.71,-411 263.04,-411"/>
</a>
</g>
</g>
<!-- Op2&#45;1660094879829076647 -->
<g id="node13" class="node">
<title>Op2&#45;1660094879829076647</title>
<g id="a_node13"><a xlink:title="3: Op2&#45;1660094879829076647">
<path fill="white" stroke="none" d="M173.67,-490C173.67,-490 252.33,-490 252.33,-490 257.67,-490 263,-495.33 263,-500.67 263,-500.67 263,-511.33 263,-511.33 263,-516.67 257.67,-522 252.33,-522 252.33,-522 173.67,-522 173.67,-522 168.33,-522 163,-516.67 163,-511.33 163,-511.33 163,-500.67 163,-500.67 163,-495.33 168.33,-490 173.67,-490"/>
<text text-anchor="start" x="167.62" y="-501.32" font-family="Helvetica,sans-Serif" font-size="14.00">Op2(Xor, ·, ·)</text>
<path fill="none" stroke="black" d="M173.67,-490C173.67,-490 252.33,-490 252.33,-490 257.67,-490 263,-495.33 263,-500.67 263,-500.67 263,-511.33 263,-511.33 263,-516.67 257.67,-522 252.33,-522 252.33,-522 173.67,-522 173.67,-522 168.33,-522 163,-516.67 163,-511.33 163,-511.33 163,-500.67 163,-500.67 163,-495.33 168.33,-490 173.67,-490"/>
</a>
</g>
</g>
<!-- Op2&#45;5816659167976044345 -->
<g id="node14" class="node">
<title>Op2&#45;5816659167976044345</title>
<g id="a_node14"><a xlink:title="3: Op2&#45;5816659167976044345">
<path fill="white" stroke="none" d="M277.67,-490C277.67,-490 360.33,-490 360.33,-490 365.67,-490 371,-495.33 371,-500.67 371,-500.67 371,-511.33 371,-511.33 371,-516.67 365.67,-522 360.33,-522 360.33,-522 277.67,-522 277.67,-522 272.33,-522 267,-516.67 267,-511.33 267,-511.33 267,-500.67 267,-500.67 267,-495.33 272.33,-490 277.67,-490"/>
<text text-anchor="start" x="271.75" y="-501.32" font-family="Helvetica,sans-Serif" font-size="14.00">Op2(And, ·, ·)</text>
<path fill="none" stroke="black" d="M277.67,-490C277.67,-490 360.33,-490 360.33,-490 365.67,-490 371,-495.33 371,-500.67 371,-500.67 371,-511.33 371,-511.33 371,-516.67 365.67,-522 360.33,-522 360.33,-522 277.67,-522 277.67,-522 272.33,-522 267,-516.67 267,-511.33 267,-511.33 267,-500.67 267,-500.67 267,-495.33 272.33,-490 277.67,-490"/>
</a>
</g>
</g>
<!-- Op2&#45;6060249715730674357 -->
<g id="node15" class="node">
<title>Op2&#45;6060249715730674357</title>
<g id="a_node15"><a xlink:title="25: Op2&#45;6060249715730674357">
<path fill="white" stroke="none" d="M289.67,-332C289.67,-332 362.33,-332 362.33,-332 367.67,-332 373,-337.33 373,-342.67 373,-342.67 373,-353.33 373,-353.33 373,-358.67 367.67,-364 362.33,-364 362.33,-364 289.67,-364 289.67,-364 284.33,-364 279,-358.67 279,-353.33 279,-353.33 279,-342.67 279,-342.67 279,-337.33 284.33,-332 289.67,-332"/>
<text text-anchor="start" x="284" y="-343.32" font-family="Helvetica,sans-Serif" font-size="14.00">Op2(Or, ·, ·)</text>
<path fill="none" stroke="black" d="M289.67,-332C289.67,-332 362.33,-332 362.33,-332 367.67,-332 373,-337.33 373,-342.67 373,-342.67 373,-353.33 373,-353.33 373,-358.67 367.67,-364 362.33,-364 362.33,-364 289.67,-364 289.67,-364 284.33,-364 279,-358.67 279,-353.33 279,-353.33 279,-342.67 279,-342.67 279,-337.33 284.33,-332 289.67,-332"/>
</a>
</g>
</g>
<!-- Out&#45;17615343019692007359 -->
<g id="node16" class="node">
<title>Out&#45;17615343019692007359</title>
<g id="a_node16"><a xlink:title="20: Out&#45;17615343019692007359">
<path fill="white" stroke="none" d="M311.92,-569C311.92,-569 326.08,-569 326.08,-569 331.42,-569 336.75,-574.33 336.75,-579.67 336.75,-579.67 336.75,-590.33 336.75,-590.33 336.75,-595.67 331.42,-601 326.08,-601 326.08,-601 311.92,-601 311.92,-601 306.58,-601 301.25,-595.67 301.25,-590.33 301.25,-590.33 301.25,-579.67 301.25,-579.67 301.25,-574.33 306.58,-569 311.92,-569"/>
<text text-anchor="start" x="306.25" y="-580.33" font-family="Helvetica,sans-Serif" font-size="14.00">Out</text>
<path fill="none" stroke="black" d="M311.92,-569C311.92,-569 326.08,-569 326.08,-569 331.42,-569 336.75,-574.33 336.75,-579.67 336.75,-579.67 336.75,-590.33 336.75,-590.33 336.75,-595.67 331.42,-601 326.08,-601 326.08,-601 311.92,-601 311.92,-601 306.58,-601 301.25,-595.67 301.25,-590.33 301.25,-590.33 301.25,-579.67 301.25,-579.67 301.25,-574.33 306.58,-569 311.92,-569"/>
</a>
</g>
</g>
</g>
</svg>
