<?xml version="1.0" encoding="UTF-8" standalone="no"?>
<!DOCTYPE svg PUBLIC "-//W3C//DTD SVG 1.1//EN"
 "http://www.w3.org/Graphics/SVG/1.1/DTD/svg11.dtd">
<!-- Generated by graphviz version 9.0.0 (0)
 -->
<!-- Pages: 1 -->
<svg width="396pt" height="546pt"
 viewBox="0.00 0.00 396.00 546.00" xmlns="http://www.w3.org/2000/svg" xmlns:xlink="http://www.w3.org/1999/xlink">
<g id="graph0" class="graph" transform="scale(1 1) rotate(0) translate(4 542)">
<polygon fill="white" stroke="none" points="-4,4 -4,-542 392,-542 392,4 -4,4"/>
<g id="clust1" class="cluster">
<title>outer_cluster_28</title>
</g>
<g id="clust2" class="cluster">
<title>cluster_28</title>
<path fill="#ffffb3" stroke="black" stroke-dasharray="5,2" d="M170,-406C170,-406 240,-406 240,-406 246,-406 252,-412 252,-418 252,-418 252,-436 252,-436 252,-442 246,-448 240,-448 240,-448 170,-448 170,-448 164,-448 158,-442 158,-436 158,-436 158,-418 158,-418 158,-412 164,-406 170,-406"/>
</g>
<g id="clust4" class="cluster">
<title>outer_cluster_26</title>
</g>
<g id="clust5" class="cluster">
<title>cluster_26</title>
<path fill="#ffffb3" stroke="black" stroke-dasharray="5,2" d="M197,-485C197,-485 283,-485 283,-485 289,-485 295,-491 295,-497 295,-497 295,-515 295,-515 295,-521 289,-527 283,-527 283,-527 197,-527 197,-527 191,-527 185,-521 185,-515 185,-515 185,-497 185,-497 185,-491 191,-485 197,-485"/>
</g>
<g id="clust7" class="cluster">
<title>outer_cluster_5</title>
</g>
<g id="clust8" class="cluster">
<title>cluster_5</title>
<path fill="#ffffb3" stroke="black" stroke-dasharray="5,2" d="M147,-11C147,-11 241,-11 241,-11 247,-11 253,-17 253,-23 253,-23 253,-41 253,-41 253,-47 247,-53 241,-53 241,-53 147,-53 147,-53 141,-53 135,-47 135,-41 135,-41 135,-23 135,-23 135,-17 141,-11 147,-11"/>
</g>
<g id="clust10" class="cluster">
<title>outer_cluster_7</title>
</g>
<g id="clust11" class="cluster">
<title>cluster_7</title>
<path fill="#ffffb3" stroke="black" stroke-dasharray="5,2" d="M263,-248C263,-248 351,-248 351,-248 357,-248 363,-254 363,-260 363,-260 363,-278 363,-278 363,-284 357,-290 351,-290 351,-290 263,-290 263,-290 257,-290 251,-284 251,-278 251,-278 251,-260 251,-260 251,-254 257,-248 263,-248"/>
</g>
<g id="clust13" class="cluster">
<title>outer_cluster_3</title>
</g>
<g id="clust14" class="cluster">
<title>cluster_3</title>
<path fill="#ffffb3" stroke="black" stroke-dasharray="5,2" d="M329,-327C329,-327 365,-327 365,-327 371,-327 377,-333 377,-339 377,-339 377,-357 377,-357 377,-363 371,-369 365,-369 365,-369 329,-369 329,-369 323,-369 317,-363 317,-357 317,-357 317,-339 317,-339 317,-333 323,-327 329,-327"/>
</g>
<g id="clust16" class="cluster">
<title>outer_cluster_21</title>
</g>
<g id="clust17" class="cluster">
<title>cluster_21</title>
<path fill="#ffffb3" stroke="black" stroke-dasharray="5,2" d="M153,-90C153,-90 229,-90 229,-90 235,-90 241,-96 241,-102 241,-102 241,-120 241,-120 241,-126 235,-132 229,-132 229,-132 153,-132 153,-132 147,-132 141,-126 141,-120 141,-120 141,-102 141,-102 141,-96 147,-90 153,-90"/>
</g>
<g id="clust19" class="cluster">
<title>outer_cluster_20</title>
</g>
<g id="clust20" class="cluster">
<title>cluster_20</title>
<path fill="#ffffb3" stroke="black" stroke-dasharray="5,2" d="M329,-406C329,-406 365,-406 365,-406 371,-406 377,-412 377,-418 377,-418 377,-436 377,-436 377,-442 371,-448 365,-448 365,-448 329,-448 329,-448 323,-448 317,-442 317,-436 317,-436 317,-418 317,-418 317,-412 323,-406 329,-406"/>
</g>
<g id="clust22" class="cluster">
<title>outer_cluster_19</title>
</g>
<g id="clust23" class="cluster">
<title>cluster_19</title>
<path fill="#ffffb3" stroke="black" stroke-dasharray="5,2" d="M84,-485C84,-485 120,-485 120,-485 126,-485 132,-491 132,-497 132,-497 132,-515 132,-515 132,-521 126,-527 120,-527 120,-527 84,-527 84,-527 78,-527 72,-521 72,-515 72,-515 72,-497 72,-497 72,-491 78,-485 84,-485"/>
</g>
<g id="clust25" class="cluster">
<title>outer_cluster_1</title>
</g>
<g id="clust26" class="cluster">
<title>cluster_1</title>
<path fill="#ffffb3" stroke="black" stroke-dasharray="5,2" d="M147,-248C147,-248 233,-248 233,-248 239,-248 245,-254 245,-260 245,-260 245,-278 245,-278 245,-284 239,-290 233,-290 233,-290 147,-290 147,-290 141,-290 135,-284 135,-278 135,-278 135,-260 135,-260 135,-254 141,-248 147,-248"/>
</g>
<g id="clust28" class="cluster">
<title>outer_cluster_23</title>
</g>
<g id="clust29" class="cluster">
<title>cluster_23</title>
<path fill="#ffffb3" stroke="black" stroke-dasharray="5,2" d="M100,-169C100,-169 170,-169 170,-169 176,-169 182,-175 182,-181 182,-181 182,-199 182,-199 182,-205 176,-211 170,-211 170,-211 100,-211 100,-211 94,-211 88,-205 88,-199 88,-199 88,-181 88,-181 88,-175 94,-169 100,-169"/>
</g>
<g id="clust34" class="cluster">
<title>outer_cluster_6</title>
</g>
<g id="clust35" class="cluster">
<title>cluster_6</title>
<path fill="#ffffb3" stroke="black" stroke-dasharray="5,2" d="M23,-11C23,-11 117,-11 117,-11 123,-11 129,-17 129,-23 129,-23 129,-41 129,-41 129,-47 123,-53 117,-53 117,-53 23,-53 23,-53 17,-53 11,-47 11,-41 11,-41 11,-23 11,-23 11,-17 17,-11 23,-11"/>
</g>
<g id="clust31" class="cluster">
<title>outer_cluster_2</title>
</g>
<g id="clust32" class="cluster">
<title>cluster_2</title>
<path fill="#ffffb3" stroke="black" stroke-dasharray="5,2" d="M107,-327C107,-327 193,-327 193,-327 199,-327 205,-333 205,-339 205,-339 205,-357 205,-357 205,-363 199,-369 193,-369 193,-369 107,-369 107,-369 101,-369 95,-363 95,-357 95,-357 95,-339 95,-339 95,-333 101,-327 107,-327"/>
</g>
<g id="clust37" class="cluster">
<title>outer_cluster_0</title>
</g>
<g id="clust38" class="cluster">
<title>cluster_0</title>
<path fill="#ffffb3" stroke="black" stroke-dasharray="5,2" d="M37,-90C37,-90 123,-90 123,-90 129,-90 135,-96 135,-102 135,-102 135,-120 135,-120 135,-126 129,-132 123,-132 123,-132 37,-132 37,-132 31,-132 25,-126 25,-120 25,-120 25,-102 25,-102 25,-96 31,-90 37,-90"/>
</g>
<g id="clust40" class="cluster">
<title>outer_cluster_27</title>
</g>
<g id="clust41" class="cluster">
<title>cluster_27</title>
<path fill="#ffffb3" stroke="black" stroke-dasharray="5,2" d="M223,-327C223,-327 299,-327 299,-327 305,-327 311,-333 311,-339 311,-339 311,-357 311,-357 311,-363 305,-369 299,-369 299,-369 223,-369 223,-369 217,-369 211,-363 211,-357 211,-357 211,-339 211,-339 211,-333 217,-327 223,-327"/>
</g>
<g id="clust43" class="cluster">
<title>outer_cluster_4</title>
</g>
<g id="clust44" class="cluster">
<title>cluster_4</title>
<path fill="#ffffb3" stroke="black" stroke-dasharray="5,2" d="M64,-406C64,-406 140,-406 140,-406 146,-406 152,-412 152,-418 152,-418 152,-436 152,-436 152,-442 146,-448 140,-448 140,-448 64,-448 64,-448 58,-448 52,-442 52,-436 52,-436 52,-418 52,-418 52,-412 58,-406 64,-406"/>
</g>
<!-- Op1&#45;13815394951320932842&#45;&gt;Op2&#45;12189652888947418315 -->
<g id="edge1" class="edge">
<title>Op1&#45;13815394951320932842:s&#45;&gt;Op2&#45;12189652888947418315</title>
<path fill="none" stroke="black" d="M205,-411C205,-394.61 194.12,-380.54 182.03,-369.96"/>
<polygon fill="black" stroke="black" points="186.77,-370.44 181.52,-369.69 185.16,-373.54 186.77,-370.44"/>
</g>
<!-- Op2&#45;12189652888947418315&#45;&gt;Var&#45;4610716319256996192 -->
<g id="edge13" class="edge">
<title>Op2&#45;12189652888947418315:s&#45;&gt;Var&#45;4610716319256996192</title>
<path fill="none" stroke="black" d="M124,-332C124,-275.07 192.24,-311.71 246,-293 246.78,-292.73 247.57,-292.45 248.36,-292.18"/>
<polygon fill="black" stroke="black" points="248.93,-293.83 253.05,-290.5 247.76,-290.53 248.93,-293.83"/>
</g>
<!-- Op2&#45;12189652888947418315&#45;&gt;Op2&#45;4589661714853897680 -->
<g id="edge14" class="edge">
<title>Op2&#45;12189652888947418315:s&#45;&gt;Op2&#45;4589661714853897680</title>
<path fill="none" stroke="black" d="M176,-332C176,-318.87 179.02,-304.56 182.26,-292.99"/>
<polygon fill="black" stroke="black" points="182.2,-296.48 183.28,-291.3 179.2,-294.68 182.2,-296.48"/>
</g>
<!-- Op2&#45;142676360964343096&#45;&gt;Op1&#45;13815394951320932842 -->
<g id="edge3" class="edge">
<title>Op2&#45;142676360964343096:s&#45;&gt;Op1&#45;13815394951320932842</title>
<path fill="none" stroke="black" d="M266,-490C266,-472.92 254.09,-458.83 240.8,-448.42"/>
<polygon fill="black" stroke="black" points="246.52,-449.07 241.24,-448.62 245.09,-452.26 246.52,-449.07"/>
</g>
<!-- Op2&#45;142676360964343096&#45;&gt;Op2&#45;6060249715730674357 -->
<g id="edge2" class="edge">
<title>Op2&#45;142676360964343096:s&#45;&gt;Op2&#45;6060249715730674357</title>
<path fill="none" stroke="black" d="M214,-490C214,-465.49 242.74,-473.26 253,-451 264.59,-425.85 265.03,-393.51 263.6,-372.06"/>
<polygon fill="black" stroke="black" points="265.87,-375.15 263.35,-370.49 262.42,-375.71 265.87,-375.15"/>
</g>
<!-- Op2&#45;6060249715730674357&#45;&gt;Var&#45;4610716319256996192 -->
<g id="edge17" class="edge">
<title>Op2&#45;6060249715730674357:s&#45;&gt;Var&#45;4610716319256996192</title>
<path fill="none" stroke="black" d="M238,-332C238,-314.36 250.63,-300.46 265.09,-290.34"/>
<polygon fill="black" stroke="black" points="260.56,-293.23 265.01,-290.36 259.74,-289.83 260.56,-293.23"/>
</g>
<!-- Op2&#45;6060249715730674357&#45;&gt;Op2&#45;4589661714853897680 -->
<g id="edge18" class="edge">
<title>Op2&#45;6060249715730674357:s&#45;&gt;Op2&#45;4589661714853897680</title>
<path fill="none" stroke="black" d="M284,-332C284,-319.96 262.23,-305.14 239.64,-293.02"/>
<polygon fill="black" stroke="black" points="240.47,-291.48 235.23,-290.7 238.84,-294.58 240.47,-291.48"/>
</g>
<!-- Op2&#45;1660094879829076647&#45;&gt;Var&#45;4610716319256996192 -->
<g id="edge4" class="edge">
<title>Op2&#45;1660094879829076647:s&#45;&gt;Var&#45;4610716319256996192</title>
<path fill="none" stroke="black" d="M337,-332C337,-317.82 330.56,-303.47 323.65,-292.15"/>
<polygon fill="black" stroke="black" points="327.27,-294.5 323.07,-291.27 324.34,-296.41 327.27,-294.5"/>
</g>
<!-- Op2&#45;1660094879829076647&#45;&gt;Op2&#45;4589661714853897680 -->
<g id="edge5" class="edge">
<title>Op2&#45;1660094879829076647:s&#45;&gt;Op2&#45;4589661714853897680</title>
<path fill="none" stroke="black" d="M356,-332C356,-281.8 296.99,-310.65 250,-293 249.35,-292.76 248.69,-292.51 248.04,-292.26"/>
<polygon fill="black" stroke="black" points="248.75,-290.66 243.46,-290.53 247.52,-293.94 248.75,-290.66"/>
</g>
<!-- Op2&#45;4589661714853897680&#45;&gt;Op2&#45;14676005712340803439 -->
<g id="edge10" class="edge">
<title>Op2&#45;4589661714853897680:s&#45;&gt;Op2&#45;14676005712340803439</title>
<path fill="none" stroke="black" d="M164,-253C164,-233.72 177.94,-232.6 183,-214 190.16,-187.71 191.61,-156.3 191.62,-135.35"/>
<polygon fill="black" stroke="black" points="193.41,-138.49 191.6,-133.51 189.91,-138.53 193.41,-138.49"/>
</g>
<!-- Op2&#45;4589661714853897680&#45;&gt;Op1&#45;2071832938192927936 -->
<g id="edge11" class="edge">
<title>Op2&#45;4589661714853897680:s&#45;&gt;Op1&#45;2071832938192927936</title>
<path fill="none" stroke="black" d="M216,-253C216,-240.92 192.99,-224.1 171.5,-211.03"/>
<polygon fill="black" stroke="black" points="177.72,-209.78 172.59,-211.12 177.44,-213.27 177.72,-209.78"/>
</g>
<!-- Op2&#45;14676005712340803439&#45;&gt;Var&#45;11808970072622434574 -->
<g id="edge6" class="edge">
<title>Op2&#45;14676005712340803439:s&#45;&gt;Var&#45;11808970072622434574</title>
<path fill="none" stroke="black" d="M168,-95C168,-81.18 173.56,-66.89 179.54,-55.51"/>
<polygon fill="black" stroke="black" points="178.79,-59.1 180.69,-54.15 176.12,-56.83 178.79,-59.1"/>
</g>
<!-- Op2&#45;14676005712340803439&#45;&gt;Var&#45;9335705567684163424 -->
<g id="edge7" class="edge">
<title>Op2&#45;14676005712340803439:s&#45;&gt;Var&#45;9335705567684163424</title>
<path fill="none" stroke="black" d="M214,-95C214,-90.09 168.22,-71 128.28,-55.29"/>
<polygon fill="black" stroke="black" points="129.14,-53.75 123.84,-53.55 127.86,-57.01 129.14,-53.75"/>
</g>
<!-- Out&#45;17615343019692007359&#45;&gt;Op2&#45;1660094879829076647 -->
<g id="edge8" class="edge">
<title>Out&#45;17615343019692007359:s&#45;&gt;Op2&#45;1660094879829076647</title>
<path fill="none" stroke="black" d="M347,-411C347,-398.22 347,-383.96 347,-372.35"/>
<polygon fill="black" stroke="black" points="348.75,-375.51 347,-370.51 345.25,-375.51 348.75,-375.51"/>
</g>
<!-- Out&#45;5040379952546458196&#45;&gt;Op2&#45;14115315143431114661 -->
<g id="edge9" class="edge">
<title>Out&#45;5040379952546458196:s&#45;&gt;Op2&#45;14115315143431114661</title>
<path fill="none" stroke="black" d="M102,-490C102,-477.22 102,-462.96 102,-451.35"/>
<polygon fill="black" stroke="black" points="103.75,-454.51 102,-449.51 100.25,-454.51 103.75,-454.51"/>
</g>
<!-- Op2&#45;14115315143431114661&#45;&gt;Op2&#45;12189652888947418315 -->
<g id="edge20" class="edge">
<title>Op2&#45;14115315143431114661:s&#45;&gt;Op2&#45;12189652888947418315</title>
<path fill="none" stroke="black" d="M125,-411C125,-397.26 130.34,-382.97 136.09,-371.58"/>
<polygon fill="black" stroke="black" points="135.48,-375.21 137.18,-370.19 132.72,-373.06 135.48,-375.21"/>
</g>
<!-- Op2&#45;14115315143431114661&#45;&gt;Op2&#45;16148859959482838396 -->
<g id="edge19" class="edge">
<title>Op2&#45;14115315143431114661:s&#45;&gt;Op2&#45;16148859959482838396</title>
<path fill="none" stroke="black" d="M79,-411C79,-308.16 79.6,-185.43 79.87,-135.18"/>
<polygon fill="black" stroke="black" points="81.58,-138.53 79.89,-133.51 78.08,-138.49 81.58,-138.53"/>
</g>
<!-- Op1&#45;2071832938192927936&#45;&gt;Op2&#45;16148859959482838396 -->
<g id="edge12" class="edge">
<title>Op1&#45;2071832938192927936:s&#45;&gt;Op2&#45;16148859959482838396</title>
<path fill="none" stroke="black" d="M135,-174C135,-157.61 124.12,-143.54 112.03,-132.96"/>
<polygon fill="black" stroke="black" points="116.77,-133.44 111.52,-132.69 115.16,-136.54 116.77,-133.44"/>
</g>
<!-- Op2&#45;16148859959482838396&#45;&gt;Var&#45;11808970072622434574 -->
<g id="edge15" class="edge">
<title>Op2&#45;16148859959482838396:s&#45;&gt;Var&#45;11808970072622434574</title>
<path fill="none" stroke="black" d="M54,-95C54,-90.2 98.62,-71.06 137.48,-55.3"/>
<polygon fill="black" stroke="black" points="137.79,-57.06 141.77,-53.57 136.47,-53.82 137.79,-57.06"/>
</g>
<!-- Op2&#45;16148859959482838396&#45;&gt;Var&#45;9335705567684163424 -->
<g id="edge16" class="edge">
<title>Op2&#45;16148859959482838396:s&#45;&gt;Var&#45;9335705567684163424</title>
<path fill="none" stroke="black" d="M106,-95C106,-80.32 98.36,-66.01 90.12,-54.84"/>
<polygon fill="black" stroke="black" points="94.12,-56.43 89.37,-54.08 91.63,-58.88 94.12,-56.43"/>
</g>
<!-- Op1&#45;13815394951320932842 -->
<g id="node1" class="node">
<title>Op1&#45;13815394951320932842</title>
<g id="a_node1"><a xlink:title="28: Op1&#45;13815394951320932842">
<path fill="white" stroke="none" d="M172.04,-411C172.04,-411 237.96,-411 237.96,-411 243.29,-411 248.62,-416.33 248.62,-421.67 248.62,-421.67 248.62,-432.33 248.62,-432.33 248.62,-437.67 243.29,-443 237.96,-443 237.96,-443 172.04,-443 172.04,-443 166.71,-443 161.38,-437.67 161.38,-432.33 161.38,-432.33 161.38,-421.67 161.38,-421.67 161.38,-416.33 166.71,-411 172.04,-411"/>
<text text-anchor="start" x="166.38" y="-422.32" font-family="Helvetica,sans-Serif" font-size="14.00">Op1(Not, ·)</text>
<path fill="none" stroke="black" d="M172.04,-411C172.04,-411 237.96,-411 237.96,-411 243.29,-411 248.62,-416.33 248.62,-421.67 248.62,-421.67 248.62,-432.33 248.62,-432.33 248.62,-437.67 243.29,-443 237.96,-443 237.96,-443 172.04,-443 172.04,-443 166.71,-443 161.38,-437.67 161.38,-432.33 161.38,-432.33 161.38,-421.67 161.38,-421.67 161.38,-416.33 166.71,-411 172.04,-411"/>
</a>
</g>
</g>
<!-- Op2&#45;12189652888947418315 -->
<g id="node2" class="node">
<title>Op2&#45;12189652888947418315</title>
<g id="a_node2"><a xlink:title="2: Op2&#45;12189652888947418315">
<path fill="white" stroke="none" d="M108.67,-332C108.67,-332 191.33,-332 191.33,-332 196.67,-332 202,-337.33 202,-342.67 202,-342.67 202,-353.33 202,-353.33 202,-358.67 196.67,-364 191.33,-364 191.33,-364 108.67,-364 108.67,-364 103.33,-364 98,-358.67 98,-353.33 98,-353.33 98,-342.67 98,-342.67 98,-337.33 103.33,-332 108.67,-332"/>
<text text-anchor="start" x="102.75" y="-343.32" font-family="Helvetica,sans-Serif" font-size="14.00">Op2(And, ·, ·)</text>
<path fill="none" stroke="black" d="M108.67,-332C108.67,-332 191.33,-332 191.33,-332 196.67,-332 202,-337.33 202,-342.67 202,-342.67 202,-353.33 202,-353.33 202,-358.67 196.67,-364 191.33,-364 191.33,-364 108.67,-364 108.67,-364 103.33,-364 98,-358.67 98,-353.33 98,-353.33 98,-342.67 98,-342.67 98,-337.33 103.33,-332 108.67,-332"/>
</a>
</g>
</g>
<!-- Op2&#45;142676360964343096 -->
<g id="node3" class="node">
<title>Op2&#45;142676360964343096</title>
<g id="a_node3"><a xlink:title="26: Op2&#45;142676360964343096">
<path fill="white" stroke="none" d="M198.67,-490C198.67,-490 281.33,-490 281.33,-490 286.67,-490 292,-495.33 292,-500.67 292,-500.67 292,-511.33 292,-511.33 292,-516.67 286.67,-522 281.33,-522 281.33,-522 198.67,-522 198.67,-522 193.33,-522 188,-516.67 188,-511.33 188,-511.33 188,-500.67 188,-500.67 188,-495.33 193.33,-490 198.67,-490"/>
<text text-anchor="start" x="192.75" y="-501.32" font-family="Helvetica,sans-Serif" font-size="14.00">Op2(And, ·, ·)</text>
<path fill="none" stroke="black" d="M198.67,-490C198.67,-490 281.33,-490 281.33,-490 286.67,-490 292,-495.33 292,-500.67 292,-500.67 292,-511.33 292,-511.33 292,-516.67 286.67,-522 281.33,-522 281.33,-522 198.67,-522 198.67,-522 193.33,-522 188,-516.67 188,-511.33 188,-511.33 188,-500.67 188,-500.67 188,-495.33 193.33,-490 198.67,-490"/>
</a>
</g>
</g>
<!-- Op2&#45;6060249715730674357 -->
<g id="node4" class="node">
<title>Op2&#45;6060249715730674357</title>
<g id="a_node4"><a xlink:title="27: Op2&#45;6060249715730674357">
<path fill="white" stroke="none" d="M224.67,-332C224.67,-332 297.33,-332 297.33,-332 302.67,-332 308,-337.33 308,-342.67 308,-342.67 308,-353.33 308,-353.33 308,-358.67 302.67,-364 297.33,-364 297.33,-364 224.67,-364 224.67,-364 219.33,-364 214,-358.67 214,-353.33 214,-353.33 214,-342.67 214,-342.67 214,-337.33 219.33,-332 224.67,-332"/>
<text text-anchor="start" x="219" y="-343.32" font-family="Helvetica,sans-Serif" font-size="14.00">Op2(Or, ·, ·)</text>
<path fill="none" stroke="black" d="M224.67,-332C224.67,-332 297.33,-332 297.33,-332 302.67,-332 308,-337.33 308,-342.67 308,-342.67 308,-353.33 308,-353.33 308,-358.67 302.67,-364 297.33,-364 297.33,-364 224.67,-364 224.67,-364 219.33,-364 214,-358.67 214,-353.33 214,-353.33 214,-342.67 214,-342.67 214,-337.33 219.33,-332 224.67,-332"/>
</a>
</g>
</g>
<!-- Var&#45;11808970072622434574 -->
<g id="node5" class="node">
<title>Var&#45;11808970072622434574</title>
<g id="a_node5"><a xlink:title="5: Var&#45;11808970072622434574">
<path fill="white" stroke="none" d="M148.67,-16C148.67,-16 239.33,-16 239.33,-16 244.67,-16 250,-21.33 250,-26.67 250,-26.67 250,-37.33 250,-37.33 250,-42.67 244.67,-48 239.33,-48 239.33,-48 148.67,-48 148.67,-48 143.33,-48 138,-42.67 138,-37.33 138,-37.33 138,-26.67 138,-26.67 138,-21.33 143.33,-16 148.67,-16"/>
<text text-anchor="start" x="143" y="-27.32" font-family="Helvetica,sans-Serif" font-size="14.00">Var(&quot;i_bit1&quot;, 1)</text>
<path fill="none" stroke="black" d="M148.67,-16C148.67,-16 239.33,-16 239.33,-16 244.67,-16 250,-21.33 250,-26.67 250,-26.67 250,-37.33 250,-37.33 250,-42.67 244.67,-48 239.33,-48 239.33,-48 148.67,-48 148.67,-48 143.33,-48 138,-42.67 138,-37.33 138,-37.33 138,-26.67 138,-26.67 138,-21.33 143.33,-16 148.67,-16"/>
</a>
</g>
</g>
<!-- Var&#45;4610716319256996192 -->
<g id="node6" class="node">
<title>Var&#45;4610716319256996192</title>
<g id="a_node6"><a xlink:title="7: Var&#45;4610716319256996192">
<path fill="white" stroke="none" d="M265.04,-253C265.04,-253 348.96,-253 348.96,-253 354.29,-253 359.62,-258.33 359.62,-263.67 359.62,-263.67 359.62,-274.33 359.62,-274.33 359.62,-279.67 354.29,-285 348.96,-285 348.96,-285 265.04,-285 265.04,-285 259.71,-285 254.38,-279.67 254.38,-274.33 254.38,-274.33 254.38,-263.67 254.38,-263.67 254.38,-258.33 259.71,-253 265.04,-253"/>
<text text-anchor="start" x="259.38" y="-264.32" font-family="Helvetica,sans-Serif" font-size="14.00">Var(&quot;i_cin&quot;, 1)</text>
<path fill="none" stroke="black" d="M265.04,-253C265.04,-253 348.96,-253 348.96,-253 354.29,-253 359.62,-258.33 359.62,-263.67 359.62,-263.67 359.62,-274.33 359.62,-274.33 359.62,-279.67 354.29,-285 348.96,-285 348.96,-285 265.04,-285 265.04,-285 259.71,-285 254.38,-279.67 254.38,-274.33 254.38,-274.33 254.38,-263.67 254.38,-263.67 254.38,-258.33 259.71,-253 265.04,-253"/>
</a>
</g>
</g>
<!-- Op2&#45;1660094879829076647 -->
<g id="node7" class="node">
<title>Op2&#45;1660094879829076647</title>
<g id="a_node7"><a xlink:title="3: Op2&#45;1660094879829076647">
<path fill="white" stroke="none" d="M338.17,-332C338.17,-332 355.83,-332 355.83,-332 361.17,-332 366.5,-337.33 366.5,-342.67 366.5,-342.67 366.5,-353.33 366.5,-353.33 366.5,-358.67 361.17,-364 355.83,-364 355.83,-364 338.17,-364 338.17,-364 332.83,-364 327.5,-358.67 327.5,-353.33 327.5,-353.33 327.5,-342.67 327.5,-342.67 327.5,-337.33 332.83,-332 338.17,-332"/>
<text text-anchor="start" x="332.38" y="-343.32" font-family="Helvetica,sans-Serif" font-size="14.00">Op2</text>
<path fill="none" stroke="black" d="M338.17,-332C338.17,-332 355.83,-332 355.83,-332 361.17,-332 366.5,-337.33 366.5,-342.67 366.5,-342.67 366.5,-353.33 366.5,-353.33 366.5,-358.67 361.17,-364 355.83,-364 355.83,-364 338.17,-364 338.17,-364 332.83,-364 327.5,-358.67 327.5,-353.33 327.5,-353.33 327.5,-342.67 327.5,-342.67 327.5,-337.33 332.83,-332 338.17,-332"/>
</a>
</g>
</g>
<!-- Op2&#45;4589661714853897680 -->
<g id="node8" class="node">
<title>Op2&#45;4589661714853897680</title>
<g id="a_node8"><a xlink:title="1: Op2&#45;4589661714853897680">
<path fill="white" stroke="none" d="M148.67,-253C148.67,-253 231.33,-253 231.33,-253 236.67,-253 242,-258.33 242,-263.67 242,-263.67 242,-274.33 242,-274.33 242,-279.67 236.67,-285 231.33,-285 231.33,-285 148.67,-285 148.67,-285 143.33,-285 138,-279.67 138,-274.33 138,-274.33 138,-263.67 138,-263.67 138,-258.33 143.33,-253 148.67,-253"/>
<text text-anchor="start" x="142.75" y="-264.32" font-family="Helvetica,sans-Serif" font-size="14.00">Op2(And, ·, ·)</text>
<path fill="none" stroke="black" d="M148.67,-253C148.67,-253 231.33,-253 231.33,-253 236.67,-253 242,-258.33 242,-263.67 242,-263.67 242,-274.33 242,-274.33 242,-279.67 236.67,-285 231.33,-285 231.33,-285 148.67,-285 148.67,-285 143.33,-285 138,-279.67 138,-274.33 138,-274.33 138,-263.67 138,-263.67 138,-258.33 143.33,-253 148.67,-253"/>
</a>
</g>
</g>
<!-- Op2&#45;14676005712340803439 -->
<g id="node9" class="node">
<title>Op2&#45;14676005712340803439</title>
<g id="a_node9"><a xlink:title="21: Op2&#45;14676005712340803439">
<path fill="white" stroke="none" d="M154.67,-95C154.67,-95 227.33,-95 227.33,-95 232.67,-95 238,-100.33 238,-105.67 238,-105.67 238,-116.33 238,-116.33 238,-121.67 232.67,-127 227.33,-127 227.33,-127 154.67,-127 154.67,-127 149.33,-127 144,-121.67 144,-116.33 144,-116.33 144,-105.67 144,-105.67 144,-100.33 149.33,-95 154.67,-95"/>
<text text-anchor="start" x="149" y="-106.33" font-family="Helvetica,sans-Serif" font-size="14.00">Op2(Or, ·, ·)</text>
<path fill="none" stroke="black" d="M154.67,-95C154.67,-95 227.33,-95 227.33,-95 232.67,-95 238,-100.33 238,-105.67 238,-105.67 238,-116.33 238,-116.33 238,-121.67 232.67,-127 227.33,-127 227.33,-127 154.67,-127 154.67,-127 149.33,-127 144,-121.67 144,-116.33 144,-116.33 144,-105.67 144,-105.67 144,-100.33 149.33,-95 154.67,-95"/>
</a>
</g>
</g>
<!-- Var&#45;9335705567684163424 -->
<g id="node10" class="node">
<title>Var&#45;9335705567684163424</title>
<g id="a_node10"><a xlink:title="6: Var&#45;9335705567684163424">
<path fill="white" stroke="none" d="M24.67,-16C24.67,-16 115.33,-16 115.33,-16 120.67,-16 126,-21.33 126,-26.67 126,-26.67 126,-37.33 126,-37.33 126,-42.67 120.67,-48 115.33,-48 115.33,-48 24.67,-48 24.67,-48 19.33,-48 14,-42.67 14,-37.33 14,-37.33 14,-26.67 14,-26.67 14,-21.33 19.33,-16 24.67,-16"/>
<text text-anchor="start" x="19" y="-27.32" font-family="Helvetica,sans-Serif" font-size="14.00">Var(&quot;i_bit2&quot;, 1)</text>
<path fill="none" stroke="black" d="M24.67,-16C24.67,-16 115.33,-16 115.33,-16 120.67,-16 126,-21.33 126,-26.67 126,-26.67 126,-37.33 126,-37.33 126,-42.67 120.67,-48 115.33,-48 115.33,-48 24.67,-48 24.67,-48 19.33,-48 14,-42.67 14,-37.33 14,-37.33 14,-26.67 14,-26.67 14,-21.33 19.33,-16 24.67,-16"/>
</a>
</g>
</g>
<!-- Out&#45;17615343019692007359 -->
<g id="node11" class="node">
<title>Out&#45;17615343019692007359</title>
<g id="a_node11"><a xlink:title="20: Out&#45;17615343019692007359">
<path fill="white" stroke="none" d="M339.92,-411C339.92,-411 354.08,-411 354.08,-411 359.42,-411 364.75,-416.33 364.75,-421.67 364.75,-421.67 364.75,-432.33 364.75,-432.33 364.75,-437.67 359.42,-443 354.08,-443 354.08,-443 339.92,-443 339.92,-443 334.58,-443 329.25,-437.67 329.25,-432.33 329.25,-432.33 329.25,-421.67 329.25,-421.67 329.25,-416.33 334.58,-411 339.92,-411"/>
<text text-anchor="start" x="334.25" y="-422.32" font-family="Helvetica,sans-Serif" font-size="14.00">Out</text>
<path fill="none" stroke="black" d="M339.92,-411C339.92,-411 354.08,-411 354.08,-411 359.42,-411 364.75,-416.33 364.75,-421.67 364.75,-421.67 364.75,-432.33 364.75,-432.33 364.75,-437.67 359.42,-443 354.08,-443 354.08,-443 339.92,-443 339.92,-443 334.58,-443 329.25,-437.67 329.25,-432.33 329.25,-432.33 329.25,-421.67 329.25,-421.67 329.25,-416.33 334.58,-411 339.92,-411"/>
</a>
</g>
</g>
<!-- Out&#45;5040379952546458196 -->
<g id="node12" class="node">
<title>Out&#45;5040379952546458196</title>
<g id="a_node12"><a xlink:title="19: Out&#45;5040379952546458196">
<path fill="white" stroke="none" d="M94.92,-490C94.92,-490 109.08,-490 109.08,-490 114.42,-490 119.75,-495.33 119.75,-500.67 119.75,-500.67 119.75,-511.33 119.75,-511.33 119.75,-516.67 114.42,-522 109.08,-522 109.08,-522 94.92,-522 94.92,-522 89.58,-522 84.25,-516.67 84.25,-511.33 84.25,-511.33 84.25,-500.67 84.25,-500.67 84.25,-495.33 89.58,-490 94.92,-490"/>
<text text-anchor="start" x="89.25" y="-501.32" font-family="Helvetica,sans-Serif" font-size="14.00">Out</text>
<path fill="none" stroke="black" d="M94.92,-490C94.92,-490 109.08,-490 109.08,-490 114.42,-490 119.75,-495.33 119.75,-500.67 119.75,-500.67 119.75,-511.33 119.75,-511.33 119.75,-516.67 114.42,-522 109.08,-522 109.08,-522 94.92,-522 94.92,-522 89.58,-522 84.25,-516.67 84.25,-511.33 84.25,-511.33 84.25,-500.67 84.25,-500.67 84.25,-495.33 89.58,-490 94.92,-490"/>
</a>
</g>
</g>
<!-- Op2&#45;14115315143431114661 -->
<g id="node13" class="node">
<title>Op2&#45;14115315143431114661</title>
<g id="a_node13"><a xlink:title="4: Op2&#45;14115315143431114661">
<path fill="white" stroke="none" d="M65.67,-411C65.67,-411 138.33,-411 138.33,-411 143.67,-411 149,-416.33 149,-421.67 149,-421.67 149,-432.33 149,-432.33 149,-437.67 143.67,-443 138.33,-443 138.33,-443 65.67,-443 65.67,-443 60.33,-443 55,-437.67 55,-432.33 55,-432.33 55,-421.67 55,-421.67 55,-416.33 60.33,-411 65.67,-411"/>
<text text-anchor="start" x="60" y="-422.32" font-family="Helvetica,sans-Serif" font-size="14.00">Op2(Or, ·, ·)</text>
<path fill="none" stroke="black" d="M65.67,-411C65.67,-411 138.33,-411 138.33,-411 143.67,-411 149,-416.33 149,-421.67 149,-421.67 149,-432.33 149,-432.33 149,-437.67 143.67,-443 138.33,-443 138.33,-443 65.67,-443 65.67,-443 60.33,-443 55,-437.67 55,-432.33 55,-432.33 55,-421.67 55,-421.67 55,-416.33 60.33,-411 65.67,-411"/>
</a>
</g>
</g>
<!-- Op1&#45;2071832938192927936 -->
<g id="node14" class="node">
<title>Op1&#45;2071832938192927936</title>
<g id="a_node14"><a xlink:title="23: Op1&#45;2071832938192927936">
<path fill="white" stroke="none" d="M102.04,-174C102.04,-174 167.96,-174 167.96,-174 173.29,-174 178.62,-179.33 178.62,-184.67 178.62,-184.67 178.62,-195.33 178.62,-195.33 178.62,-200.67 173.29,-206 167.96,-206 167.96,-206 102.04,-206 102.04,-206 96.71,-206 91.38,-200.67 91.38,-195.33 91.38,-195.33 91.38,-184.67 91.38,-184.67 91.38,-179.33 96.71,-174 102.04,-174"/>
<text text-anchor="start" x="96.38" y="-185.32" font-family="Helvetica,sans-Serif" font-size="14.00">Op1(Not, ·)</text>
<path fill="none" stroke="black" d="M102.04,-174C102.04,-174 167.96,-174 167.96,-174 173.29,-174 178.62,-179.33 178.62,-184.67 178.62,-184.67 178.62,-195.33 178.62,-195.33 178.62,-200.67 173.29,-206 167.96,-206 167.96,-206 102.04,-206 102.04,-206 96.71,-206 91.38,-200.67 91.38,-195.33 91.38,-195.33 91.38,-184.67 91.38,-184.67 91.38,-179.33 96.71,-174 102.04,-174"/>
</a>
</g>
</g>
<!-- Op2&#45;16148859959482838396 -->
<g id="node15" class="node">
<title>Op2&#45;16148859959482838396</title>
<g id="a_node15"><a xlink:title="0: Op2&#45;16148859959482838396">
<path fill="white" stroke="none" d="M38.67,-95C38.67,-95 121.33,-95 121.33,-95 126.67,-95 132,-100.33 132,-105.67 132,-105.67 132,-116.33 132,-116.33 132,-121.67 126.67,-127 121.33,-127 121.33,-127 38.67,-127 38.67,-127 33.33,-127 28,-121.67 28,-116.33 28,-116.33 28,-105.67 28,-105.67 28,-100.33 33.33,-95 38.67,-95"/>
<text text-anchor="start" x="32.75" y="-106.33" font-family="Helvetica,sans-Serif" font-size="14.00">Op2(And, ·, ·)</text>
<path fill="none" stroke="black" d="M38.67,-95C38.67,-95 121.33,-95 121.33,-95 126.67,-95 132,-100.33 132,-105.67 132,-105.67 132,-116.33 132,-116.33 132,-121.67 126.67,-127 121.33,-127 121.33,-127 38.67,-127 38.67,-127 33.33,-127 28,-121.67 28,-116.33 28,-116.33 28,-105.67 28,-105.67 28,-100.33 33.33,-95 38.67,-95"/>
</a>
</g>
</g>
</g>
</svg>
