<?xml version="1.0" encoding="UTF-8" standalone="no"?>
<!DOCTYPE svg PUBLIC "-//W3C//DTD SVG 1.1//EN"
 "http://www.w3.org/Graphics/SVG/1.1/DTD/svg11.dtd">
<!-- Generated by graphviz version 9.0.0 (0)
 -->
<!-- Pages: 1 -->
<svg width="274pt" height="309pt"
 viewBox="0.00 0.00 274.00 309.00" xmlns="http://www.w3.org/2000/svg" xmlns:xlink="http://www.w3.org/1999/xlink">
<g id="graph0" class="graph" transform="scale(1 1) rotate(0) translate(4 305)">
<polygon fill="white" stroke="none" points="-4,4 -4,-305 270,-305 270,4 -4,4"/>
<g id="clust1" class="cluster">
<title>outer_cluster_3</title>
</g>
<g id="clust2" class="cluster">
<title>cluster_3</title>
<path fill="#ffffb3" stroke="black" stroke-dasharray="5,2" d="M23,-11C23,-11 117,-11 117,-11 123,-11 129,-17 129,-23 129,-23 129,-41 129,-41 129,-47 123,-53 117,-53 117,-53 23,-53 23,-53 17,-53 11,-47 11,-41 11,-41 11,-23 11,-23 11,-17 17,-11 23,-11"/>
</g>
<g id="clust4" class="cluster">
<title>outer_cluster_11</title>
</g>
<g id="clust5" class="cluster">
<title>cluster_11</title>
<path fill="#ffffb3" stroke="black" stroke-dasharray="5,2" d="M36,-90C36,-90 112,-90 112,-90 118,-90 124,-96 124,-102 124,-102 124,-120 124,-120 124,-126 118,-132 112,-132 112,-132 36,-132 36,-132 30,-132 24,-126 24,-120 24,-120 24,-102 24,-102 24,-96 30,-90 36,-90"/>
</g>
<g id="clust7" class="cluster">
<title>outer_cluster_0</title>
</g>
<g id="clust8" class="cluster">
<title>cluster_0</title>
<path fill="#ffffb3" stroke="black" stroke-dasharray="5,2" d="M142,-90C142,-90 228,-90 228,-90 234,-90 240,-96 240,-102 240,-102 240,-120 240,-120 240,-126 234,-132 228,-132 228,-132 142,-132 142,-132 136,-132 130,-126 130,-120 130,-120 130,-102 130,-102 130,-96 136,-90 142,-90"/>
</g>
<g id="clust10" class="cluster">
<title>outer_cluster_1</title>
</g>
<g id="clust11" class="cluster">
<title>cluster_1</title>
<path fill="#ffffb3" stroke="black" stroke-dasharray="5,2" d="M87,-248C87,-248 173,-248 173,-248 179,-248 185,-254 185,-260 185,-260 185,-278 185,-278 185,-284 179,-290 173,-290 173,-290 87,-290 87,-290 81,-290 75,-284 75,-278 75,-278 75,-260 75,-260 75,-254 81,-248 87,-248"/>
</g>
<g id="clust13" class="cluster">
<title>outer_cluster_2</title>
</g>
<g id="clust14" class="cluster">
<title>cluster_2</title>
<path fill="#ffffb3" stroke="black" stroke-dasharray="5,2" d="M149,-11C149,-11 243,-11 243,-11 249,-11 255,-17 255,-23 255,-23 255,-41 255,-41 255,-47 249,-53 243,-53 243,-53 149,-53 149,-53 143,-53 137,-47 137,-41 137,-41 137,-23 137,-23 137,-17 143,-11 149,-11"/>
</g>
<g id="clust16" class="cluster">
<title>outer_cluster_13</title>
</g>
<g id="clust17" class="cluster">
<title>cluster_13</title>
<path fill="#ffffb3" stroke="black" stroke-dasharray="5,2" d="M136,-169C136,-169 206,-169 206,-169 212,-169 218,-175 218,-181 218,-181 218,-199 218,-199 218,-205 212,-211 206,-211 206,-211 136,-211 136,-211 130,-211 124,-205 124,-199 124,-199 124,-181 124,-181 124,-175 130,-169 136,-169"/>
</g>
<!-- Op2&#45;8758873339515225765&#45;&gt;Var&#45;11808970072622434574 -->
<g id="edge1" class="edge">
<title>Op2&#45;8758873339515225765:s&#45;&gt;Var&#45;11808970072622434574</title>
<path fill="none" stroke="black" d="M51,-95C51,-81.58 55.12,-67.21 59.52,-55.69"/>
<polygon fill="black" stroke="black" points="59.56,-59.62 60.17,-54.36 56.41,-58.09 59.56,-59.62"/>
</g>
<!-- Op2&#45;8758873339515225765&#45;&gt;Var&#45;10852683104608143388 -->
<g id="edge2" class="edge">
<title>Op2&#45;8758873339515225765:s&#45;&gt;Var&#45;10852683104608143388</title>
<path fill="none" stroke="black" d="M97,-95C97,-82.57 119.72,-67.82 143.39,-55.82"/>
<polygon fill="black" stroke="black" points="144.03,-57.46 147.73,-53.67 142.48,-54.32 144.03,-57.46"/>
</g>
<!-- Op2&#45;2353521701394760001&#45;&gt;Var&#45;11808970072622434574 -->
<g id="edge3" class="edge">
<title>Op2&#45;2353521701394760001:s&#45;&gt;Var&#45;11808970072622434574</title>
<path fill="none" stroke="black" d="M159,-95C159,-78.21 148.2,-65.59 134.13,-56.28"/>
<polygon fill="black" stroke="black" points="135.27,-54.93 130.09,-53.79 133.43,-57.91 135.27,-54.93"/>
</g>
<!-- Op2&#45;2353521701394760001&#45;&gt;Var&#45;10852683104608143388 -->
<g id="edge4" class="edge">
<title>Op2&#45;2353521701394760001:s&#45;&gt;Var&#45;10852683104608143388</title>
<path fill="none" stroke="black" d="M211,-95C211,-81.82 207.76,-67.51 204.29,-55.95"/>
<polygon fill="black" stroke="black" points="207.39,-57.49 203.19,-54.27 204.46,-59.41 207.39,-57.49"/>
</g>
<!-- Op2&#45;17462896186401281376&#45;&gt;Op2&#45;8758873339515225765 -->
<g id="edge5" class="edge">
<title>Op2&#45;17462896186401281376:s&#45;&gt;Op2&#45;8758873339515225765</title>
<path fill="none" stroke="black" d="M104,-253C104,-210.42 90.75,-162.16 81.86,-134.58"/>
<polygon fill="black" stroke="black" points="84.79,-137.53 81.44,-133.42 81.5,-138.72 84.79,-137.53"/>
</g>
<!-- Op2&#45;17462896186401281376&#45;&gt;Op1&#45;12930351210441812130 -->
<g id="edge6" class="edge">
<title>Op2&#45;17462896186401281376:s&#45;&gt;Op1&#45;12930351210441812130</title>
<path fill="none" stroke="black" d="M156,-253C156,-239.82 159.24,-225.51 162.71,-213.95"/>
<polygon fill="black" stroke="black" points="162.54,-217.41 163.81,-212.27 159.61,-215.49 162.54,-217.41"/>
</g>
<!-- Op1&#45;12930351210441812130&#45;&gt;Op2&#45;2353521701394760001 -->
<g id="edge7" class="edge">
<title>Op1&#45;12930351210441812130:s&#45;&gt;Op2&#45;2353521701394760001</title>
<path fill="none" stroke="black" d="M171,-174C171,-160.87 174.02,-146.56 177.26,-134.99"/>
<polygon fill="black" stroke="black" points="177.2,-138.48 178.28,-133.3 174.2,-136.68 177.2,-138.48"/>
</g>
<!-- Var&#45;11808970072622434574 -->
<g id="node1" class="node">
<title>Var&#45;11808970072622434574</title>
<g id="a_node1"><a xlink:title="3: Var&#45;11808970072622434574">
<path fill="white" stroke="none" d="M24.67,-16C24.67,-16 115.33,-16 115.33,-16 120.67,-16 126,-21.33 126,-26.67 126,-26.67 126,-37.33 126,-37.33 126,-42.67 120.67,-48 115.33,-48 115.33,-48 24.67,-48 24.67,-48 19.33,-48 14,-42.67 14,-37.33 14,-37.33 14,-26.67 14,-26.67 14,-21.33 19.33,-16 24.67,-16"/>
<text text-anchor="start" x="19" y="-27.32" font-family="Helvetica,sans-Serif" font-size="14.00">Var(&quot;i_bit1&quot;, 1)</text>
<path fill="none" stroke="black" d="M24.67,-16C24.67,-16 115.33,-16 115.33,-16 120.67,-16 126,-21.33 126,-26.67 126,-26.67 126,-37.33 126,-37.33 126,-42.67 120.67,-48 115.33,-48 115.33,-48 24.67,-48 24.67,-48 19.33,-48 14,-42.67 14,-37.33 14,-37.33 14,-26.67 14,-26.67 14,-21.33 19.33,-16 24.67,-16"/>
</a>
</g>
</g>
<!-- Op2&#45;8758873339515225765 -->
<g id="node2" class="node">
<title>Op2&#45;8758873339515225765</title>
<g id="a_node2"><a xlink:title="11: Op2&#45;8758873339515225765">
<path fill="white" stroke="none" d="M37.67,-95C37.67,-95 110.33,-95 110.33,-95 115.67,-95 121,-100.33 121,-105.67 121,-105.67 121,-116.33 121,-116.33 121,-121.67 115.67,-127 110.33,-127 110.33,-127 37.67,-127 37.67,-127 32.33,-127 27,-121.67 27,-116.33 27,-116.33 27,-105.67 27,-105.67 27,-100.33 32.33,-95 37.67,-95"/>
<text text-anchor="start" x="32" y="-106.33" font-family="Helvetica,sans-Serif" font-size="14.00">Op2(Or, ·, ·)</text>
<path fill="none" stroke="black" d="M37.67,-95C37.67,-95 110.33,-95 110.33,-95 115.67,-95 121,-100.33 121,-105.67 121,-105.67 121,-116.33 121,-116.33 121,-121.67 115.67,-127 110.33,-127 110.33,-127 37.67,-127 37.67,-127 32.33,-127 27,-121.67 27,-116.33 27,-116.33 27,-105.67 27,-105.67 27,-100.33 32.33,-95 37.67,-95"/>
</a>
</g>
</g>
<!-- Var&#45;10852683104608143388 -->
<g id="node3" class="node">
<title>Var&#45;10852683104608143388</title>
<g id="a_node3"><a xlink:title="2: Var&#45;10852683104608143388">
<path fill="white" stroke="none" d="M150.67,-16C150.67,-16 241.33,-16 241.33,-16 246.67,-16 252,-21.33 252,-26.67 252,-26.67 252,-37.33 252,-37.33 252,-42.67 246.67,-48 241.33,-48 241.33,-48 150.67,-48 150.67,-48 145.33,-48 140,-42.67 140,-37.33 140,-37.33 140,-26.67 140,-26.67 140,-21.33 145.33,-16 150.67,-16"/>
<text text-anchor="start" x="145" y="-27.32" font-family="Helvetica,sans-Serif" font-size="14.00">Var(&quot;i_bit2&quot;, 1)</text>
<path fill="none" stroke="black" d="M150.67,-16C150.67,-16 241.33,-16 241.33,-16 246.67,-16 252,-21.33 252,-26.67 252,-26.67 252,-37.33 252,-37.33 252,-42.67 246.67,-48 241.33,-48 241.33,-48 150.67,-48 150.67,-48 145.33,-48 140,-42.67 140,-37.33 140,-37.33 140,-26.67 140,-26.67 140,-21.33 145.33,-16 150.67,-16"/>
</a>
</g>
</g>
<!-- Op2&#45;2353521701394760001 -->
<g id="node4" class="node">
<title>Op2&#45;2353521701394760001</title>
<g id="a_node4"><a xlink:title="0: Op2&#45;2353521701394760001">
<path fill="white" stroke="none" d="M143.67,-95C143.67,-95 226.33,-95 226.33,-95 231.67,-95 237,-100.33 237,-105.67 237,-105.67 237,-116.33 237,-116.33 237,-121.67 231.67,-127 226.33,-127 226.33,-127 143.67,-127 143.67,-127 138.33,-127 133,-121.67 133,-116.33 133,-116.33 133,-105.67 133,-105.67 133,-100.33 138.33,-95 143.67,-95"/>
<text text-anchor="start" x="137.75" y="-106.33" font-family="Helvetica,sans-Serif" font-size="14.00">Op2(And, ·, ·)</text>
<path fill="none" stroke="black" d="M143.67,-95C143.67,-95 226.33,-95 226.33,-95 231.67,-95 237,-100.33 237,-105.67 237,-105.67 237,-116.33 237,-116.33 237,-121.67 231.67,-127 226.33,-127 226.33,-127 143.67,-127 143.67,-127 138.33,-127 133,-121.67 133,-116.33 133,-116.33 133,-105.67 133,-105.67 133,-100.33 138.33,-95 143.67,-95"/>
</a>
</g>
</g>
<!-- Op2&#45;17462896186401281376 -->
<g id="node5" class="node">
<title>Op2&#45;17462896186401281376</title>
<g id="a_node5"><a xlink:title="1: Op2&#45;17462896186401281376">
<path fill="white" stroke="none" d="M88.67,-253C88.67,-253 171.33,-253 171.33,-253 176.67,-253 182,-258.33 182,-263.67 182,-263.67 182,-274.33 182,-274.33 182,-279.67 176.67,-285 171.33,-285 171.33,-285 88.67,-285 88.67,-285 83.33,-285 78,-279.67 78,-274.33 78,-274.33 78,-263.67 78,-263.67 78,-258.33 83.33,-253 88.67,-253"/>
<text text-anchor="start" x="82.75" y="-264.32" font-family="Helvetica,sans-Serif" font-size="14.00">Op2(And, ·, ·)</text>
<path fill="none" stroke="black" d="M88.67,-253C88.67,-253 171.33,-253 171.33,-253 176.67,-253 182,-258.33 182,-263.67 182,-263.67 182,-274.33 182,-274.33 182,-279.67 176.67,-285 171.33,-285 171.33,-285 88.67,-285 88.67,-285 83.33,-285 78,-279.67 78,-274.33 78,-274.33 78,-263.67 78,-263.67 78,-258.33 83.33,-253 88.67,-253"/>
</a>
</g>
</g>
<!-- Op1&#45;12930351210441812130 -->
<g id="node6" class="node">
<title>Op1&#45;12930351210441812130</title>
<g id="a_node6"><a xlink:title="13: Op1&#45;12930351210441812130">
<path fill="white" stroke="none" d="M138.04,-174C138.04,-174 203.96,-174 203.96,-174 209.29,-174 214.62,-179.33 214.62,-184.67 214.62,-184.67 214.62,-195.33 214.62,-195.33 214.62,-200.67 209.29,-206 203.96,-206 203.96,-206 138.04,-206 138.04,-206 132.71,-206 127.38,-200.67 127.38,-195.33 127.38,-195.33 127.38,-184.67 127.38,-184.67 127.38,-179.33 132.71,-174 138.04,-174"/>
<text text-anchor="start" x="132.38" y="-185.32" font-family="Helvetica,sans-Serif" font-size="14.00">Op1(Not, ·)</text>
<path fill="none" stroke="black" d="M138.04,-174C138.04,-174 203.96,-174 203.96,-174 209.29,-174 214.62,-179.33 214.62,-184.67 214.62,-184.67 214.62,-195.33 214.62,-195.33 214.62,-200.67 209.29,-206 203.96,-206 203.96,-206 138.04,-206 138.04,-206 132.71,-206 127.38,-200.67 127.38,-195.33 127.38,-195.33 127.38,-184.67 127.38,-184.67 127.38,-179.33 132.71,-174 138.04,-174"/>
</a>
</g>
</g>
</g>
</svg>
