<?xml version="1.0" encoding="UTF-8" standalone="no"?>
<!DOCTYPE svg PUBLIC "-//W3C//DTD SVG 1.1//EN"
 "http://www.w3.org/Graphics/SVG/1.1/DTD/svg11.dtd">
<!-- Generated by graphviz version 9.0.0 (0)
 -->
<!-- Pages: 1 -->
<svg width="277pt" height="151pt"
 viewBox="0.00 0.00 277.00 151.00" xmlns="http://www.w3.org/2000/svg" xmlns:xlink="http://www.w3.org/1999/xlink">
<g id="graph0" class="graph" transform="scale(1 1) rotate(0) translate(4 147)">
<polygon fill="white" stroke="none" points="-4,4 -4,-147 273,-147 273,4 -4,4"/>
<g id="clust1" class="cluster">
<title>outer_cluster_3</title>
</g>
<g id="clust2" class="cluster">
<title>cluster_3</title>
<path fill="#ffffb3" stroke="black" stroke-dasharray="5,2" d="M23,-11C23,-11 117,-11 117,-11 123,-11 129,-17 129,-23 129,-23 129,-41 129,-41 129,-47 123,-53 117,-53 117,-53 23,-53 23,-53 17,-53 11,-47 11,-41 11,-41 11,-23 11,-23 11,-17 17,-11 23,-11"/>
</g>
<g id="clust4" class="cluster">
<title>outer_cluster_1</title>
</g>
<g id="clust5" class="cluster">
<title>cluster_1</title>
<path fill="#ffffb3" stroke="black" stroke-dasharray="5,2" d="M34,-90C34,-90 116,-90 116,-90 122,-90 128,-96 128,-102 128,-102 128,-120 128,-120 128,-126 122,-132 116,-132 116,-132 34,-132 34,-132 28,-132 22,-126 22,-120 22,-120 22,-102 22,-102 22,-96 28,-90 34,-90"/>
</g>
<g id="clust7" class="cluster">
<title>outer_cluster_2</title>
</g>
<g id="clust8" class="cluster">
<title>cluster_2</title>
<path fill="#ffffb3" stroke="black" stroke-dasharray="5,2" d="M152,-11C152,-11 246,-11 246,-11 252,-11 258,-17 258,-23 258,-23 258,-41 258,-41 258,-47 252,-53 246,-53 246,-53 152,-53 152,-53 146,-53 140,-47 140,-41 140,-41 140,-23 140,-23 140,-17 146,-11 152,-11"/>
</g>
<g id="clust10" class="cluster">
<title>outer_cluster_0</title>
</g>
<g id="clust11" class="cluster">
<title>cluster_0</title>
<path fill="#ffffb3" stroke="black" stroke-dasharray="5,2" d="M146,-90C146,-90 232,-90 232,-90 238,-90 244,-96 244,-102 244,-102 244,-120 244,-120 244,-126 238,-132 232,-132 232,-132 146,-132 146,-132 140,-132 134,-126 134,-120 134,-120 134,-102 134,-102 134,-96 140,-90 146,-90"/>
</g>
<!-- Op2&#45;15660640694187950306&#45;&gt;Var&#45;11808970072622434574 -->
<g id="edge1" class="edge">
<title>Op2&#45;15660640694187950306:s&#45;&gt;Var&#45;11808970072622434574</title>
<path fill="none" stroke="black" d="M50,-95C50,-81.52 54.34,-67.15 58.97,-55.64"/>
<polygon fill="black" stroke="black" points="58.84,-59.56 59.68,-54.33 55.76,-57.89 58.84,-59.56"/>
</g>
<!-- Op2&#45;15660640694187950306&#45;&gt;Var&#45;10852683104608143388 -->
<g id="edge2" class="edge">
<title>Op2&#45;15660640694187950306:s&#45;&gt;Var&#45;10852683104608143388</title>
<path fill="none" stroke="black" d="M100,-95C100,-82.57 122.72,-67.82 146.39,-55.82"/>
<polygon fill="black" stroke="black" points="147.03,-57.46 150.73,-53.67 145.48,-54.32 147.03,-57.46"/>
</g>
<!-- Op2&#45;2353521701394760001&#45;&gt;Var&#45;11808970072622434574 -->
<g id="edge3" class="edge">
<title>Op2&#45;2353521701394760001:s&#45;&gt;Var&#45;11808970072622434574</title>
<path fill="none" stroke="black" d="M163,-95C163,-75.57 148.77,-61.85 131.44,-52.35"/>
<polygon fill="black" stroke="black" points="135.27,-53.02 130.21,-51.44 133.18,-55.83 135.27,-53.02"/>
</g>
<!-- Op2&#45;2353521701394760001&#45;&gt;Var&#45;10852683104608143388 -->
<g id="edge4" class="edge">
<title>Op2&#45;2353521701394760001:s&#45;&gt;Var&#45;10852683104608143388</title>
<path fill="none" stroke="black" d="M215,-95C215,-81.77 211.54,-67.45 207.85,-55.91"/>
<polygon fill="black" stroke="black" points="210.66,-58.52 207.3,-54.42 207.37,-59.72 210.66,-58.52"/>
</g>
<!-- Var&#45;11808970072622434574 -->
<g id="node1" class="node">
<title>Var&#45;11808970072622434574</title>
<g id="a_node1"><a xlink:title="3: Var&#45;11808970072622434574">
<path fill="white" stroke="none" d="M24.67,-16C24.67,-16 115.33,-16 115.33,-16 120.67,-16 126,-21.33 126,-26.67 126,-26.67 126,-37.33 126,-37.33 126,-42.67 120.67,-48 115.33,-48 115.33,-48 24.67,-48 24.67,-48 19.33,-48 14,-42.67 14,-37.33 14,-37.33 14,-26.67 14,-26.67 14,-21.33 19.33,-16 24.67,-16"/>
<text text-anchor="start" x="19" y="-27.32" font-family="Helvetica,sans-Serif" font-size="14.00">Var(&quot;i_bit1&quot;, 1)</text>
<path fill="none" stroke="black" d="M24.67,-16C24.67,-16 115.33,-16 115.33,-16 120.67,-16 126,-21.33 126,-26.67 126,-26.67 126,-37.33 126,-37.33 126,-42.67 120.67,-48 115.33,-48 115.33,-48 24.67,-48 24.67,-48 19.33,-48 14,-42.67 14,-37.33 14,-37.33 14,-26.67 14,-26.67 14,-21.33 19.33,-16 24.67,-16"/>
</a>
</g>
</g>
<!-- Op2&#45;15660640694187950306 -->
<g id="node2" class="node">
<title>Op2&#45;15660640694187950306</title>
<g id="a_node2"><a xlink:title="1: Op2&#45;15660640694187950306">
<path fill="white" stroke="none" d="M35.67,-95C35.67,-95 114.33,-95 114.33,-95 119.67,-95 125,-100.33 125,-105.67 125,-105.67 125,-116.33 125,-116.33 125,-121.67 119.67,-127 114.33,-127 114.33,-127 35.67,-127 35.67,-127 30.33,-127 25,-121.67 25,-116.33 25,-116.33 25,-105.67 25,-105.67 25,-100.33 30.33,-95 35.67,-95"/>
<text text-anchor="start" x="29.62" y="-106.33" font-family="Helvetica,sans-Serif" font-size="14.00">Op2(Xor, 路, 路)</text>
<path fill="none" stroke="black" d="M35.67,-95C35.67,-95 114.33,-95 114.33,-95 119.67,-95 125,-100.33 125,-105.67 125,-105.67 125,-116.33 125,-116.33 125,-121.67 119.67,-127 114.33,-127 114.33,-127 35.67,-127 35.67,-127 30.33,-127 25,-121.67 25,-116.33 25,-116.33 25,-105.67 25,-105.67 25,-100.33 30.33,-95 35.67,-95"/>
</a>
</g>
</g>
<!-- Var&#45;10852683104608143388 -->
<g id="node3" class="node">
<title>Var&#45;10852683104608143388</title>
<g id="a_node3"><a xlink:title="2: Var&#45;10852683104608143388">
<path fill="white" stroke="none" d="M153.67,-16C153.67,-16 244.33,-16 244.33,-16 249.67,-16 255,-21.33 255,-26.67 255,-26.67 255,-37.33 255,-37.33 255,-42.67 249.67,-48 244.33,-48 244.33,-48 153.67,-48 153.67,-48 148.33,-48 143,-42.67 143,-37.33 143,-37.33 143,-26.67 143,-26.67 143,-21.33 148.33,-16 153.67,-16"/>
<text text-anchor="start" x="148" y="-27.32" font-family="Helvetica,sans-Serif" font-size="14.00">Var(&quot;i_bit2&quot;, 1)</text>
<path fill="none" stroke="black" d="M153.67,-16C153.67,-16 244.33,-16 244.33,-16 249.67,-16 255,-21.33 255,-26.67 255,-26.67 255,-37.33 255,-37.33 255,-42.67 249.67,-48 244.33,-48 244.33,-48 153.67,-48 153.67,-48 148.33,-48 143,-42.67 143,-37.33 143,-37.33 143,-26.67 143,-26.67 143,-21.33 148.33,-16 153.67,-16"/>
</a>
</g>
</g>
<!-- Op2&#45;2353521701394760001 -->
<g id="node4" class="node">
<title>Op2&#45;2353521701394760001</title>
<g id="a_node4"><a xlink:title="0: Op2&#45;2353521701394760001">
<path fill="white" stroke="none" d="M147.67,-95C147.67,-95 230.33,-95 230.33,-95 235.67,-95 241,-100.33 241,-105.67 241,-105.67 241,-116.33 241,-116.33 241,-121.67 235.67,-127 230.33,-127 230.33,-127 147.67,-127 147.67,-127 142.33,-127 137,-121.67 137,-116.33 137,-116.33 137,-105.67 137,-105.67 137,-100.33 142.33,-95 147.67,-95"/>
<text text-anchor="start" x="141.75" y="-106.33" font-family="Helvetica,sans-Serif" font-size="14.00">Op2(And, 路, 路)</text>
<path fill="none" stroke="black" d="M147.67,-95C147.67,-95 230.33,-95 230.33,-95 235.67,-95 241,-100.33 241,-105.67 241,-105.67 241,-116.33 241,-116.33 241,-121.67 235.67,-127 230.33,-127 230.33,-127 147.67,-127 147.67,-127 142.33,-127 137,-121.67 137,-116.33 137,-116.33 137,-105.67 137,-105.67 137,-100.33 142.33,-95 147.67,-95"/>
</a>
</g>
</g>
</g>
</svg>
