<?xml version="1.0" encoding="UTF-8" standalone="no"?>
<!DOCTYPE svg PUBLIC "-//W3C//DTD SVG 1.1//EN"
 "http://www.w3.org/Graphics/SVG/1.1/DTD/svg11.dtd">
<!-- Generated by graphviz version 9.0.0 (0)
 -->
<!-- Pages: 1 -->
<svg width="370pt" height="309pt"
 viewBox="0.00 0.00 370.00 309.00" xmlns="http://www.w3.org/2000/svg" xmlns:xlink="http://www.w3.org/1999/xlink">
<g id="graph0" class="graph" transform="scale(1 1) rotate(0) translate(4 305)">
<polygon fill="white" stroke="none" points="-4,4 -4,-305 366,-305 366,4 -4,4"/>
<g id="clust1" class="cluster">
<title>outer_cluster_3</title>
</g>
<g id="clust2" class="cluster">
<title>cluster_3</title>
<path fill="#ffffb3" stroke="black" stroke-dasharray="5,2" d="M257,-90C257,-90 339,-90 339,-90 345,-90 351,-96 351,-102 351,-102 351,-120 351,-120 351,-126 345,-132 339,-132 339,-132 257,-132 257,-132 251,-132 245,-126 245,-120 245,-120 245,-102 245,-102 245,-96 251,-90 257,-90"/>
</g>
<g id="clust4" class="cluster">
<title>outer_cluster_4</title>
</g>
<g id="clust5" class="cluster">
<title>cluster_4</title>
<path fill="#ffffb3" stroke="black" stroke-dasharray="5,2" d="M139,-90C139,-90 227,-90 227,-90 233,-90 239,-96 239,-102 239,-102 239,-120 239,-120 239,-126 233,-132 227,-132 227,-132 139,-132 139,-132 133,-132 127,-126 127,-120 127,-120 127,-102 127,-102 127,-96 133,-90 139,-90"/>
</g>
<g id="clust7" class="cluster">
<title>outer_cluster_1</title>
</g>
<g id="clust8" class="cluster">
<title>cluster_1</title>
<path fill="#ffffb3" stroke="black" stroke-dasharray="5,2" d="M216,-11C216,-11 310,-11 310,-11 316,-11 322,-17 322,-23 322,-23 322,-41 322,-41 322,-47 316,-53 310,-53 310,-53 216,-53 216,-53 210,-53 204,-47 204,-41 204,-41 204,-23 204,-23 204,-17 210,-11 216,-11"/>
</g>
<g id="clust10" class="cluster">
<title>outer_cluster_6</title>
</g>
<g id="clust11" class="cluster">
<title>cluster_6</title>
<path fill="#ffffb3" stroke="black" stroke-dasharray="5,2" d="M117,-169C117,-169 199,-169 199,-169 205,-169 211,-175 211,-181 211,-181 211,-199 211,-199 211,-205 205,-211 199,-211 199,-211 117,-211 117,-211 111,-211 105,-205 105,-199 105,-199 105,-181 105,-181 105,-175 111,-169 117,-169"/>
</g>
<g id="clust13" class="cluster">
<title>outer_cluster_5</title>
</g>
<g id="clust14" class="cluster">
<title>cluster_5</title>
<path fill="#ffffb3" stroke="black" stroke-dasharray="5,2" d="M229,-169C229,-169 315,-169 315,-169 321,-169 327,-175 327,-181 327,-181 327,-199 327,-199 327,-205 321,-211 315,-211 315,-211 229,-211 229,-211 223,-211 217,-205 217,-199 217,-199 217,-181 217,-181 217,-175 223,-169 229,-169"/>
</g>
<g id="clust16" class="cluster">
<title>outer_cluster_7</title>
</g>
<g id="clust17" class="cluster">
<title>cluster_7</title>
<path fill="#ffffb3" stroke="black" stroke-dasharray="5,2" d="M138,-248C138,-248 214,-248 214,-248 220,-248 226,-254 226,-260 226,-260 226,-278 226,-278 226,-284 220,-290 214,-290 214,-290 138,-290 138,-290 132,-290 126,-284 126,-278 126,-278 126,-260 126,-260 126,-254 132,-248 138,-248"/>
</g>
<g id="clust19" class="cluster">
<title>outer_cluster_0</title>
</g>
<g id="clust20" class="cluster">
<title>cluster_0</title>
<path fill="#ffffb3" stroke="black" stroke-dasharray="5,2" d="M64,-11C64,-11 158,-11 158,-11 164,-11 170,-17 170,-23 170,-23 170,-41 170,-41 170,-47 164,-53 158,-53 158,-53 64,-53 64,-53 58,-53 52,-47 52,-41 52,-41 52,-23 52,-23 52,-17 58,-11 64,-11"/>
</g>
<g id="clust22" class="cluster">
<title>outer_cluster_2</title>
</g>
<g id="clust23" class="cluster">
<title>cluster_2</title>
<path fill="#ffffb3" stroke="black" stroke-dasharray="5,2" d="M23,-90C23,-90 109,-90 109,-90 115,-90 121,-96 121,-102 121,-102 121,-120 121,-120 121,-126 115,-132 109,-132 109,-132 23,-132 23,-132 17,-132 11,-126 11,-120 11,-120 11,-102 11,-102 11,-96 17,-90 23,-90"/>
</g>
<!-- Op2&#45;1099404310919387869&#45;&gt;Var&#45;791192798209204816 -->
<g id="edge1" class="edge">
<title>Op2&#45;1099404310919387869:s&#45;&gt;Var&#45;791192798209204816</title>
<path fill="none" stroke="black" d="M273,-95C273,-83.83 218.61,-64.79 172.86,-50.75"/>
<polygon fill="black" stroke="black" points="176.41,-50.98 171.27,-49.71 174.5,-53.91 176.41,-50.98"/>
</g>
<!-- Op2&#45;1099404310919387869&#45;&gt;Var&#45;1747479766223496002 -->
<g id="edge2" class="edge">
<title>Op2&#45;1099404310919387869:s&#45;&gt;Var&#45;1747479766223496002</title>
<path fill="none" stroke="black" d="M323,-95C323,-78.06 311.29,-63.98 298.21,-53.55"/>
<polygon fill="black" stroke="black" points="303.78,-55.03 298.63,-53.82 301.9,-57.98 303.78,-55.03"/>
</g>
<!-- Op2&#45;12447369924942790367&#45;&gt;Op2&#45;1099404310919387869 -->
<g id="edge4" class="edge">
<title>Op2&#45;12447369924942790367:s&#45;&gt;Op2&#45;1099404310919387869</title>
<path fill="none" stroke="black" d="M183,-174C183,-166.22 216.03,-148.97 246.69,-134.64"/>
<polygon fill="black" stroke="black" points="247.21,-136.33 251,-132.63 245.73,-133.15 247.21,-136.33"/>
</g>
<!-- Op2&#45;12447369924942790367&#45;&gt;Var&#45;3454962093270020001 -->
<g id="edge3" class="edge">
<title>Op2&#45;12447369924942790367:s&#45;&gt;Var&#45;3454962093270020001</title>
<path fill="none" stroke="black" d="M133,-174C133,-158.15 143.02,-144.06 154.1,-133.34"/>
<polygon fill="black" stroke="black" points="151.72,-137.31 154.67,-132.91 149.62,-134.51 151.72,-137.31"/>
</g>
<!-- Op2&#45;4530183860351580419&#45;&gt;Op2&#45;1099404310919387869 -->
<g id="edge6" class="edge">
<title>Op2&#45;4530183860351580419:s&#45;&gt;Op2&#45;1099404310919387869</title>
<path fill="none" stroke="black" d="M298,-174C298,-161.22 298,-146.96 298,-135.35"/>
<polygon fill="black" stroke="black" points="299.75,-138.51 298,-133.51 296.25,-138.51 299.75,-138.51"/>
</g>
<!-- Op2&#45;4530183860351580419&#45;&gt;Var&#45;3454962093270020001 -->
<g id="edge5" class="edge">
<title>Op2&#45;4530183860351580419:s&#45;&gt;Var&#45;3454962093270020001</title>
<path fill="none" stroke="black" d="M246,-174C246,-156.78 233.89,-142.74 220.3,-132.41"/>
<polygon fill="black" stroke="black" points="225.95,-132.71 220.65,-132.54 224.69,-135.97 225.95,-132.71"/>
</g>
<!-- Op2&#45;16463693734372638882&#45;&gt;Op2&#45;4530183860351580419 -->
<g id="edge8" class="edge">
<title>Op2&#45;16463693734372638882:s&#45;&gt;Op2&#45;4530183860351580419</title>
<path fill="none" stroke="black" d="M199,-253C199,-234.92 212.16,-221.02 227.31,-211"/>
<polygon fill="black" stroke="black" points="221.03,-212.86 226,-211.03 220.97,-209.36 221.03,-212.86"/>
</g>
<!-- Op2&#45;16463693734372638882&#45;&gt;Op2&#45;11669170575846068978 -->
<g id="edge7" class="edge">
<title>Op2&#45;16463693734372638882:s&#45;&gt;Op2&#45;11669170575846068978</title>
<path fill="none" stroke="black" d="M153,-253C153,-225.17 120.34,-236.53 104,-214 86.53,-189.91 76.17,-156.87 70.79,-135"/>
<polygon fill="black" stroke="black" points="73.75,-137.1 70,-133.36 70.6,-138.63 73.75,-137.1"/>
</g>
<!-- Op2&#45;11669170575846068978&#45;&gt;Var&#45;791192798209204816 -->
<g id="edge9" class="edge">
<title>Op2&#45;11669170575846068978:s&#45;&gt;Var&#45;791192798209204816</title>
<path fill="none" stroke="black" d="M40,-95C40,-77.06 53.02,-63.12 67.9,-53.04"/>
<polygon fill="black" stroke="black" points="62.51,-56.92 66.59,-53.53 61.29,-53.64 62.51,-56.92"/>
</g>
<!-- Op2&#45;11669170575846068978&#45;&gt;Var&#45;1747479766223496002 -->
<g id="edge10" class="edge">
<title>Op2&#45;11669170575846068978:s&#45;&gt;Var&#45;1747479766223496002</title>
<path fill="none" stroke="black" d="M92,-95C92,-83.04 151.9,-63.52 200.8,-49.57"/>
<polygon fill="black" stroke="black" points="199.13,-52.49 202.67,-48.55 197.45,-49.42 199.13,-52.49"/>
</g>
<!-- Op2&#45;1099404310919387869 -->
<g id="node1" class="node">
<title>Op2&#45;1099404310919387869</title>
<g id="a_node1"><a xlink:title="3: Op2&#45;1099404310919387869">
<path fill="white" stroke="none" d="M258.67,-95C258.67,-95 337.33,-95 337.33,-95 342.67,-95 348,-100.33 348,-105.67 348,-105.67 348,-116.33 348,-116.33 348,-121.67 342.67,-127 337.33,-127 337.33,-127 258.67,-127 258.67,-127 253.33,-127 248,-121.67 248,-116.33 248,-116.33 248,-105.67 248,-105.67 248,-100.33 253.33,-95 258.67,-95"/>
<text text-anchor="start" x="252.62" y="-106.33" font-family="Helvetica,sans-Serif" font-size="14.00">Op2(Xor, ·, ·)</text>
<path fill="none" stroke="black" d="M258.67,-95C258.67,-95 337.33,-95 337.33,-95 342.67,-95 348,-100.33 348,-105.67 348,-105.67 348,-116.33 348,-116.33 348,-121.67 342.67,-127 337.33,-127 337.33,-127 258.67,-127 258.67,-127 253.33,-127 248,-121.67 248,-116.33 248,-116.33 248,-105.67 248,-105.67 248,-100.33 253.33,-95 258.67,-95"/>
</a>
</g>
</g>
<!-- Var&#45;791192798209204816 -->
<g id="node2" class="node">
<title>Var&#45;791192798209204816</title>
<g id="a_node2"><a xlink:title="0: Var&#45;791192798209204816">
<path fill="white" stroke="none" d="M65.67,-16C65.67,-16 156.33,-16 156.33,-16 161.67,-16 167,-21.33 167,-26.67 167,-26.67 167,-37.33 167,-37.33 167,-42.67 161.67,-48 156.33,-48 156.33,-48 65.67,-48 65.67,-48 60.33,-48 55,-42.67 55,-37.33 55,-37.33 55,-26.67 55,-26.67 55,-21.33 60.33,-16 65.67,-16"/>
<text text-anchor="start" x="60" y="-27.32" font-family="Helvetica,sans-Serif" font-size="14.00">Var(&quot;i_bit1&quot;, 1)</text>
<path fill="none" stroke="black" d="M65.67,-16C65.67,-16 156.33,-16 156.33,-16 161.67,-16 167,-21.33 167,-26.67 167,-26.67 167,-37.33 167,-37.33 167,-42.67 161.67,-48 156.33,-48 156.33,-48 65.67,-48 65.67,-48 60.33,-48 55,-42.67 55,-37.33 55,-37.33 55,-26.67 55,-26.67 55,-21.33 60.33,-16 65.67,-16"/>
</a>
</g>
</g>
<!-- Var&#45;1747479766223496002 -->
<g id="node3" class="node">
<title>Var&#45;1747479766223496002</title>
<g id="a_node3"><a xlink:title="1: Var&#45;1747479766223496002">
<path fill="white" stroke="none" d="M217.67,-16C217.67,-16 308.33,-16 308.33,-16 313.67,-16 319,-21.33 319,-26.67 319,-26.67 319,-37.33 319,-37.33 319,-42.67 313.67,-48 308.33,-48 308.33,-48 217.67,-48 217.67,-48 212.33,-48 207,-42.67 207,-37.33 207,-37.33 207,-26.67 207,-26.67 207,-21.33 212.33,-16 217.67,-16"/>
<text text-anchor="start" x="212" y="-27.32" font-family="Helvetica,sans-Serif" font-size="14.00">Var(&quot;i_bit2&quot;, 1)</text>
<path fill="none" stroke="black" d="M217.67,-16C217.67,-16 308.33,-16 308.33,-16 313.67,-16 319,-21.33 319,-26.67 319,-26.67 319,-37.33 319,-37.33 319,-42.67 313.67,-48 308.33,-48 308.33,-48 217.67,-48 217.67,-48 212.33,-48 207,-42.67 207,-37.33 207,-37.33 207,-26.67 207,-26.67 207,-21.33 212.33,-16 217.67,-16"/>
</a>
</g>
</g>
<!-- Var&#45;3454962093270020001 -->
<g id="node4" class="node">
<title>Var&#45;3454962093270020001</title>
<g id="a_node4"><a xlink:title="4: Var&#45;3454962093270020001">
<path fill="white" stroke="none" d="M141.04,-95C141.04,-95 224.96,-95 224.96,-95 230.29,-95 235.62,-100.33 235.62,-105.67 235.62,-105.67 235.62,-116.33 235.62,-116.33 235.62,-121.67 230.29,-127 224.96,-127 224.96,-127 141.04,-127 141.04,-127 135.71,-127 130.38,-121.67 130.38,-116.33 130.38,-116.33 130.38,-105.67 130.38,-105.67 130.38,-100.33 135.71,-95 141.04,-95"/>
<text text-anchor="start" x="135.38" y="-106.33" font-family="Helvetica,sans-Serif" font-size="14.00">Var(&quot;i_cin&quot;, 1)</text>
<path fill="none" stroke="black" d="M141.04,-95C141.04,-95 224.96,-95 224.96,-95 230.29,-95 235.62,-100.33 235.62,-105.67 235.62,-105.67 235.62,-116.33 235.62,-116.33 235.62,-121.67 230.29,-127 224.96,-127 224.96,-127 141.04,-127 141.04,-127 135.71,-127 130.38,-121.67 130.38,-116.33 130.38,-116.33 130.38,-105.67 130.38,-105.67 130.38,-100.33 135.71,-95 141.04,-95"/>
</a>
</g>
</g>
<!-- Op2&#45;12447369924942790367 -->
<g id="node5" class="node">
<title>Op2&#45;12447369924942790367</title>
<g id="a_node5"><a xlink:title="6: Op2&#45;12447369924942790367">
<path fill="white" stroke="none" d="M118.67,-174C118.67,-174 197.33,-174 197.33,-174 202.67,-174 208,-179.33 208,-184.67 208,-184.67 208,-195.33 208,-195.33 208,-200.67 202.67,-206 197.33,-206 197.33,-206 118.67,-206 118.67,-206 113.33,-206 108,-200.67 108,-195.33 108,-195.33 108,-184.67 108,-184.67 108,-179.33 113.33,-174 118.67,-174"/>
<text text-anchor="start" x="112.62" y="-185.32" font-family="Helvetica,sans-Serif" font-size="14.00">Op2(Xor, ·, ·)</text>
<path fill="none" stroke="black" d="M118.67,-174C118.67,-174 197.33,-174 197.33,-174 202.67,-174 208,-179.33 208,-184.67 208,-184.67 208,-195.33 208,-195.33 208,-200.67 202.67,-206 197.33,-206 197.33,-206 118.67,-206 118.67,-206 113.33,-206 108,-200.67 108,-195.33 108,-195.33 108,-184.67 108,-184.67 108,-179.33 113.33,-174 118.67,-174"/>
</a>
</g>
</g>
<!-- Op2&#45;4530183860351580419 -->
<g id="node6" class="node">
<title>Op2&#45;4530183860351580419</title>
<g id="a_node6"><a xlink:title="5: Op2&#45;4530183860351580419">
<path fill="white" stroke="none" d="M230.67,-174C230.67,-174 313.33,-174 313.33,-174 318.67,-174 324,-179.33 324,-184.67 324,-184.67 324,-195.33 324,-195.33 324,-200.67 318.67,-206 313.33,-206 313.33,-206 230.67,-206 230.67,-206 225.33,-206 220,-200.67 220,-195.33 220,-195.33 220,-184.67 220,-184.67 220,-179.33 225.33,-174 230.67,-174"/>
<text text-anchor="start" x="224.75" y="-185.32" font-family="Helvetica,sans-Serif" font-size="14.00">Op2(And, ·, ·)</text>
<path fill="none" stroke="black" d="M230.67,-174C230.67,-174 313.33,-174 313.33,-174 318.67,-174 324,-179.33 324,-184.67 324,-184.67 324,-195.33 324,-195.33 324,-200.67 318.67,-206 313.33,-206 313.33,-206 230.67,-206 230.67,-206 225.33,-206 220,-200.67 220,-195.33 220,-195.33 220,-184.67 220,-184.67 220,-179.33 225.33,-174 230.67,-174"/>
</a>
</g>
</g>
<!-- Op2&#45;16463693734372638882 -->
<g id="node7" class="node">
<title>Op2&#45;16463693734372638882</title>
<g id="a_node7"><a xlink:title="7: Op2&#45;16463693734372638882">
<path fill="white" stroke="none" d="M139.67,-253C139.67,-253 212.33,-253 212.33,-253 217.67,-253 223,-258.33 223,-263.67 223,-263.67 223,-274.33 223,-274.33 223,-279.67 217.67,-285 212.33,-285 212.33,-285 139.67,-285 139.67,-285 134.33,-285 129,-279.67 129,-274.33 129,-274.33 129,-263.67 129,-263.67 129,-258.33 134.33,-253 139.67,-253"/>
<text text-anchor="start" x="134" y="-264.32" font-family="Helvetica,sans-Serif" font-size="14.00">Op2(Or, ·, ·)</text>
<path fill="none" stroke="black" d="M139.67,-253C139.67,-253 212.33,-253 212.33,-253 217.67,-253 223,-258.33 223,-263.67 223,-263.67 223,-274.33 223,-274.33 223,-279.67 217.67,-285 212.33,-285 212.33,-285 139.67,-285 139.67,-285 134.33,-285 129,-279.67 129,-274.33 129,-274.33 129,-263.67 129,-263.67 129,-258.33 134.33,-253 139.67,-253"/>
</a>
</g>
</g>
<!-- Op2&#45;11669170575846068978 -->
<g id="node8" class="node">
<title>Op2&#45;11669170575846068978</title>
<g id="a_node8"><a xlink:title="2: Op2&#45;11669170575846068978">
<path fill="white" stroke="none" d="M24.67,-95C24.67,-95 107.33,-95 107.33,-95 112.67,-95 118,-100.33 118,-105.67 118,-105.67 118,-116.33 118,-116.33 118,-121.67 112.67,-127 107.33,-127 107.33,-127 24.67,-127 24.67,-127 19.33,-127 14,-121.67 14,-116.33 14,-116.33 14,-105.67 14,-105.67 14,-100.33 19.33,-95 24.67,-95"/>
<text text-anchor="start" x="18.75" y="-106.33" font-family="Helvetica,sans-Serif" font-size="14.00">Op2(And, ·, ·)</text>
<path fill="none" stroke="black" d="M24.67,-95C24.67,-95 107.33,-95 107.33,-95 112.67,-95 118,-100.33 118,-105.67 118,-105.67 118,-116.33 118,-116.33 118,-121.67 112.67,-127 107.33,-127 107.33,-127 24.67,-127 24.67,-127 19.33,-127 14,-121.67 14,-116.33 14,-116.33 14,-105.67 14,-105.67 14,-100.33 19.33,-95 24.67,-95"/>
</a>
</g>
</g>
</g>
</svg>
